G04*
G04 #@! TF.GenerationSoftware,Altium Limited,Altium Designer,20.0.10 (225)*
G04*
G04 Layer_Color=65280*
%FSLAX44Y44*%
%MOMM*%
G71*
G01*
G75*
%ADD10C,0.2000*%
%ADD11C,0.2540*%
%ADD79C,0.5000*%
D10*
X0Y533400D02*
X685800D01*
X0Y0D02*
X685800D01*
Y533400D01*
X0Y0D02*
Y533400D01*
D11*
X1556Y-333220D02*
X926556D01*
X1556Y-408220D02*
X926556D01*
X1556Y-508220D02*
X926556D01*
X1556Y-608220D02*
X926556D01*
Y-508220D02*
Y-333220D01*
Y-607470D02*
Y-507470D01*
X401556Y-508220D02*
Y-408220D01*
X1556Y-508220D02*
Y-333220D01*
X751556Y-408220D02*
Y-333220D01*
X1556Y-607470D02*
Y-507470D01*
X1230397Y861084D02*
X1220240D01*
X1230397Y871241D01*
Y873780D01*
X1227858Y876319D01*
X1222779D01*
X1220240Y873780D01*
X1235475Y861084D02*
Y863623D01*
X1238014D01*
Y861084D01*
X1235475D01*
X1263406Y876319D02*
Y861084D01*
X1271024D01*
X1273563Y863623D01*
Y866162D01*
X1271024Y868701D01*
X1263406D01*
X1271024D01*
X1273563Y871241D01*
Y873780D01*
X1271024Y876319D01*
X1263406D01*
X1286259D02*
X1281180D01*
X1278641Y873780D01*
Y863623D01*
X1281180Y861084D01*
X1286259D01*
X1288798Y863623D01*
Y873780D01*
X1286259Y876319D01*
X1293876Y861084D02*
Y871241D01*
X1298954Y876319D01*
X1304033Y871241D01*
Y861084D01*
Y868701D01*
X1293876D01*
X1309111Y861084D02*
Y876319D01*
X1316729D01*
X1319268Y873780D01*
Y868701D01*
X1316729Y866162D01*
X1309111D01*
X1314190D02*
X1319268Y861084D01*
X1324346Y876319D02*
Y861084D01*
X1331964D01*
X1334503Y863623D01*
Y873780D01*
X1331964Y876319D01*
X1324346D01*
X1364973D02*
X1354816D01*
Y868701D01*
X1359895D01*
X1354816D01*
Y861084D01*
X1370052Y876319D02*
X1375130D01*
X1372591D01*
Y861084D01*
X1370052D01*
X1375130D01*
X1382747D02*
Y876319D01*
X1392904Y861084D01*
Y876319D01*
X1397982D02*
X1403061D01*
X1400522D01*
Y861084D01*
X1397982D01*
X1403061D01*
X1420835Y873780D02*
X1418296Y876319D01*
X1413218D01*
X1410678Y873780D01*
Y871241D01*
X1413218Y868701D01*
X1418296D01*
X1420835Y866162D01*
Y863623D01*
X1418296Y861084D01*
X1413218D01*
X1410678Y863623D01*
X1425914Y876319D02*
Y861084D01*
Y868701D01*
X1436070D01*
Y876319D01*
Y861084D01*
X1441149Y871241D02*
X1443688D01*
Y868701D01*
X1441149D01*
Y871241D01*
Y863623D02*
X1443688D01*
Y861084D01*
X1441149D01*
Y863623D01*
X1469079Y876319D02*
X1474158D01*
X1471619D01*
Y861084D01*
X1469079D01*
X1474158D01*
X1481775D02*
Y876319D01*
X1486854Y871241D01*
X1491932Y876319D01*
Y861084D01*
X1497010D02*
Y876319D01*
X1502089Y871241D01*
X1507167Y876319D01*
Y861084D01*
X1522402Y876319D02*
X1512245D01*
Y861084D01*
X1522402D01*
X1512245Y868701D02*
X1517324D01*
X1527481Y861084D02*
Y876319D01*
X1535098D01*
X1537637Y873780D01*
Y868701D01*
X1535098Y866162D01*
X1527481D01*
X1532559D02*
X1537637Y861084D01*
X1552872Y873780D02*
X1550333Y876319D01*
X1545255D01*
X1542716Y873780D01*
Y871241D01*
X1545255Y868701D01*
X1550333D01*
X1552872Y866162D01*
Y863623D01*
X1550333Y861084D01*
X1545255D01*
X1542716Y863623D01*
X1557951Y876319D02*
X1563029D01*
X1560490D01*
Y861084D01*
X1557951D01*
X1563029D01*
X1578264Y876319D02*
X1573186D01*
X1570647Y873780D01*
Y863623D01*
X1573186Y861084D01*
X1578264D01*
X1580803Y863623D01*
Y873780D01*
X1578264Y876319D01*
X1585882Y861084D02*
Y876319D01*
X1596038Y861084D01*
Y876319D01*
X1616352Y861084D02*
Y871241D01*
X1621430Y876319D01*
X1626509Y871241D01*
Y861084D01*
Y868701D01*
X1616352D01*
X1631587Y871241D02*
Y863623D01*
X1634126Y861084D01*
X1641744D01*
Y871241D01*
X1646822Y861084D02*
X1656979Y871241D01*
X1672214Y876319D02*
X1662057D01*
Y861084D01*
X1672214D01*
X1662057Y868701D02*
X1667135D01*
X1677292Y876319D02*
Y861084D01*
X1687449D01*
X1702684Y876319D02*
X1692527D01*
Y861084D01*
X1702684D01*
X1692527Y868701D02*
X1697605D01*
X1717919Y873780D02*
X1715380Y876319D01*
X1710302D01*
X1707762Y873780D01*
Y863623D01*
X1710302Y861084D01*
X1715380D01*
X1717919Y863623D01*
X1722997Y876319D02*
X1733154D01*
X1728076D01*
Y861084D01*
X1738232D02*
Y876319D01*
X1745850D01*
X1748389Y873780D01*
Y868701D01*
X1745850Y866162D01*
X1738232D01*
X1743311D02*
X1748389Y861084D01*
X1761085Y876319D02*
X1756007D01*
X1753468Y873780D01*
Y863623D01*
X1756007Y861084D01*
X1761085D01*
X1763624Y863623D01*
Y873780D01*
X1761085Y876319D01*
X1768703D02*
Y861084D01*
X1778859D01*
X1794094Y876319D02*
X1783938D01*
Y861084D01*
X1794094D01*
X1783938Y868701D02*
X1789016D01*
X1809329Y873780D02*
X1806790Y876319D01*
X1801712D01*
X1799173Y873780D01*
Y871241D01*
X1801712Y868701D01*
X1806790D01*
X1809329Y866162D01*
Y863623D01*
X1806790Y861084D01*
X1801712D01*
X1799173Y863623D01*
X1824565Y873780D02*
X1822025Y876319D01*
X1816947D01*
X1814408Y873780D01*
Y871241D01*
X1816947Y868701D01*
X1822025D01*
X1824565Y866162D01*
Y863623D01*
X1822025Y861084D01*
X1816947D01*
X1814408Y863623D01*
X1844878Y861084D02*
Y876319D01*
X1855035Y861084D01*
Y876319D01*
X1860113Y861084D02*
X1865191D01*
X1862652D01*
Y871241D01*
X1860113D01*
X1872809Y868701D02*
Y871241D01*
X1875348D01*
Y868701D01*
X1872809D01*
Y863623D02*
X1875348D01*
Y861084D01*
X1872809Y858545D01*
X1875348Y861084D02*
X1872809D01*
Y863623D01*
X1900740Y873780D02*
X1903279Y876319D01*
X1908357D01*
X1910897Y873780D01*
Y863623D01*
X1908357Y861084D01*
X1903279D01*
X1900740Y863623D01*
Y873780D01*
X1915975Y861084D02*
Y863623D01*
X1918514D01*
Y861084D01*
X1915975D01*
X1928671Y873780D02*
X1931210Y876319D01*
X1936288D01*
X1938828Y873780D01*
Y863623D01*
X1936288Y861084D01*
X1931210D01*
X1928671Y863623D01*
Y873780D01*
X1954063Y876319D02*
X1943906D01*
Y868701D01*
X1948984Y871241D01*
X1951523D01*
X1954063Y868701D01*
Y863623D01*
X1951523Y861084D01*
X1946445D01*
X1943906Y863623D01*
X1959141Y868701D02*
X1969298D01*
X1974376Y873780D02*
X1976915Y876319D01*
X1981994D01*
X1984533Y873780D01*
Y863623D01*
X1981994Y861084D01*
X1976915D01*
X1974376Y863623D01*
Y873780D01*
X1989611Y861084D02*
Y863623D01*
X1992150D01*
Y861084D01*
X1989611D01*
X2002307D02*
X2007385D01*
X2004846D01*
Y876319D01*
X2002307Y873780D01*
X2025160Y861084D02*
X2015003D01*
X2025160Y871241D01*
Y873780D01*
X2022620Y876319D01*
X2017542D01*
X2015003Y873780D01*
X2045473Y871241D02*
Y863623D01*
X2048012Y861084D01*
X2055630D01*
Y871241D01*
X2060708Y861084D02*
Y871241D01*
X2063247D01*
X2065786Y868701D01*
Y861084D01*
Y868701D01*
X2068326Y871241D01*
X2070865Y868701D01*
Y861084D01*
X2101335Y873780D02*
X2098796Y876319D01*
X2093717D01*
X2091178Y873780D01*
Y863623D01*
X2093717Y861084D01*
X2098796D01*
X2101335Y863623D01*
Y868701D01*
X2096257D01*
X2114031Y876319D02*
X2108952D01*
X2106413Y873780D01*
Y863623D01*
X2108952Y861084D01*
X2114031D01*
X2116570Y863623D01*
Y873780D01*
X2114031Y876319D01*
X2121648D02*
Y861084D01*
X2131805D01*
X2136883Y876319D02*
Y861084D01*
X2144501D01*
X2147040Y863623D01*
Y873780D01*
X2144501Y876319D01*
X2136883D01*
X2152119Y868701D02*
Y871241D01*
X2154658D01*
Y868701D01*
X2152119D01*
Y863623D02*
X2154658D01*
Y861084D01*
X2152119Y858545D01*
X2154658Y861084D02*
X2152119D01*
Y863623D01*
X2180049Y873780D02*
X2182589Y876319D01*
X2187667D01*
X2190206Y873780D01*
Y871241D01*
X2187667Y868701D01*
X2185128D01*
X2187667D01*
X2190206Y866162D01*
Y863623D01*
X2187667Y861084D01*
X2182589D01*
X2180049Y863623D01*
X2195284Y868701D02*
X2205441D01*
X2220676Y876319D02*
X2215598Y873780D01*
X2210520Y868701D01*
Y863623D01*
X2213059Y861084D01*
X2218137D01*
X2220676Y863623D01*
Y866162D01*
X2218137Y868701D01*
X2210520D01*
X2225755Y871241D02*
Y863623D01*
X2228294Y861084D01*
X2235911D01*
Y871241D01*
X2240990Y861084D02*
Y871241D01*
X2243529D01*
X2246068Y868701D01*
Y861084D01*
Y868701D01*
X2248607Y871241D01*
X2251147Y868701D01*
Y861084D01*
X2271460D02*
Y876319D01*
X2281617Y861084D01*
Y876319D01*
X2286695D02*
X2291773D01*
X2289234D01*
Y861084D01*
X2286695D01*
X2291773D01*
X2309548Y873780D02*
X2307008Y876319D01*
X2301930D01*
X2299391Y873780D01*
Y863623D01*
X2301930Y861084D01*
X2307008D01*
X2309548Y863623D01*
X2314626Y876319D02*
Y861084D01*
Y866162D01*
X2324783Y876319D01*
X2317165Y868701D01*
X2324783Y861084D01*
X2340018Y876319D02*
X2329861D01*
Y861084D01*
X2340018D01*
X2329861Y868701D02*
X2334939D01*
X2345096Y876319D02*
Y861084D01*
X2355253D01*
X1230397Y726319D02*
X1220240D01*
Y718702D01*
X1225318Y721241D01*
X1227858D01*
X1230397Y718702D01*
Y713623D01*
X1227858Y711084D01*
X1222779D01*
X1220240Y713623D01*
X1235475Y711084D02*
Y713623D01*
X1238014D01*
Y711084D01*
X1235475D01*
X1263406D02*
Y726319D01*
X1271024D01*
X1273563Y723780D01*
Y718702D01*
X1271024Y716162D01*
X1263406D01*
X1278641Y711084D02*
Y721241D01*
X1283719Y726319D01*
X1288798Y721241D01*
Y711084D01*
Y718702D01*
X1278641D01*
X1293876Y711084D02*
Y726319D01*
X1304033Y711084D01*
Y726319D01*
X1319268D02*
X1309111D01*
Y711084D01*
X1319268D01*
X1309111Y718702D02*
X1314190D01*
X1324346Y726319D02*
Y711084D01*
X1334503D01*
X1339581Y726319D02*
X1344660D01*
X1342121D01*
Y711084D01*
X1339581D01*
X1344660D01*
X1352277Y726319D02*
X1362434D01*
Y723780D01*
X1352277Y713623D01*
Y711084D01*
X1362434D01*
X1377669Y726319D02*
X1367512D01*
Y711084D01*
X1377669D01*
X1367512Y718702D02*
X1372591D01*
X1397982Y726319D02*
X1408139D01*
X1403061D01*
Y711084D01*
X1413218Y726319D02*
Y711084D01*
Y718702D01*
X1423374D01*
Y726319D01*
Y711084D01*
X1438609Y726319D02*
X1428453D01*
Y711084D01*
X1438609D01*
X1428453Y718702D02*
X1433531D01*
X1458923Y726319D02*
Y711084D01*
X1466540D01*
X1469079Y713623D01*
Y716162D01*
X1466540Y718702D01*
X1458923D01*
X1466540D01*
X1469079Y721241D01*
Y723780D01*
X1466540Y726319D01*
X1458923D01*
X1481775D02*
X1476697D01*
X1474158Y723780D01*
Y713623D01*
X1476697Y711084D01*
X1481775D01*
X1484315Y713623D01*
Y723780D01*
X1481775Y726319D01*
X1489393Y711084D02*
Y721241D01*
X1494471Y726319D01*
X1499550Y721241D01*
Y711084D01*
Y718702D01*
X1489393D01*
X1504628Y711084D02*
Y726319D01*
X1512245D01*
X1514785Y723780D01*
Y718702D01*
X1512245Y716162D01*
X1504628D01*
X1509706D02*
X1514785Y711084D01*
X1519863Y726319D02*
Y711084D01*
X1527481D01*
X1530020Y713623D01*
Y723780D01*
X1527481Y726319D01*
X1519863D01*
X1555412Y711084D02*
X1550333Y716162D01*
Y721241D01*
X1555412Y726319D01*
X1570647Y711084D02*
Y726319D01*
X1563029Y718702D01*
X1573186D01*
X1578264Y711084D02*
Y726319D01*
X1585882D01*
X1588421Y723780D01*
Y718702D01*
X1585882Y716162D01*
X1578264D01*
X1603656Y723780D02*
X1601117Y726319D01*
X1596038D01*
X1593499Y723780D01*
Y713623D01*
X1596038Y711084D01*
X1601117D01*
X1603656Y713623D01*
X1618891Y723780D02*
X1616352Y726319D01*
X1611273D01*
X1608734Y723780D01*
Y721241D01*
X1611273Y718702D01*
X1616352D01*
X1618891Y716162D01*
Y713623D01*
X1616352Y711084D01*
X1611273D01*
X1608734Y713623D01*
X1639205Y711084D02*
Y726319D01*
X1646822D01*
X1649361Y723780D01*
Y718702D01*
X1646822Y716162D01*
X1639205D01*
X1664596Y726319D02*
X1654440D01*
Y711084D01*
X1664596D01*
X1654440Y718702D02*
X1659518D01*
X1669675Y711084D02*
Y726319D01*
X1677292D01*
X1679831Y723780D01*
Y718702D01*
X1677292Y716162D01*
X1669675D01*
X1674753D02*
X1679831Y711084D01*
X1700145D02*
Y726319D01*
X1707762D01*
X1710302Y723780D01*
Y718702D01*
X1707762Y716162D01*
X1700145D01*
X1715380Y711084D02*
Y721241D01*
X1720458Y726319D01*
X1725537Y721241D01*
Y711084D01*
Y718702D01*
X1715380D01*
X1730615Y711084D02*
Y726319D01*
X1740772Y711084D01*
Y726319D01*
X1756007D02*
X1745850D01*
Y711084D01*
X1756007D01*
X1745850Y718702D02*
X1750928D01*
X1761085Y726319D02*
Y711084D01*
X1771242D01*
X1776320D02*
X1781398Y716162D01*
Y721241D01*
X1776320Y726319D01*
X1789016Y711084D02*
Y713623D01*
X1791555D01*
Y711084D01*
X1789016D01*
X1816947D02*
Y726319D01*
X1824565D01*
X1827104Y723780D01*
Y718702D01*
X1824565Y716162D01*
X1816947D01*
X1832182Y726319D02*
Y711084D01*
X1842339D01*
X1847417D02*
Y721241D01*
X1852496Y726319D01*
X1857574Y721241D01*
Y711084D01*
Y718702D01*
X1847417D01*
X1872809Y723780D02*
X1870270Y726319D01*
X1865191D01*
X1862652Y723780D01*
Y713623D01*
X1865191Y711084D01*
X1870270D01*
X1872809Y713623D01*
X1888044Y726319D02*
X1877887D01*
Y711084D01*
X1888044D01*
X1877887Y718702D02*
X1882966D01*
X1918514Y726319D02*
X1908357D01*
Y718702D01*
X1913436D01*
X1908357D01*
Y711084D01*
X1923593Y726319D02*
X1928671D01*
X1926132D01*
Y711084D01*
X1923593D01*
X1928671D01*
X1936288Y726319D02*
Y711084D01*
X1943906D01*
X1946445Y713623D01*
Y723780D01*
X1943906Y726319D01*
X1936288D01*
X1951523D02*
Y713623D01*
X1954063Y711084D01*
X1959141D01*
X1961680Y713623D01*
Y726319D01*
X1976915Y723780D02*
X1974376Y726319D01*
X1969298D01*
X1966759Y723780D01*
Y713623D01*
X1969298Y711084D01*
X1974376D01*
X1976915Y713623D01*
X1981994Y726319D02*
X1987072D01*
X1984533D01*
Y711084D01*
X1981994D01*
X1987072D01*
X1994689D02*
Y721241D01*
X1999768Y726319D01*
X2004846Y721241D01*
Y711084D01*
Y718702D01*
X1994689D01*
X2009924Y726319D02*
Y711084D01*
X2020081D01*
X2035316Y723780D02*
X2032777Y726319D01*
X2027699D01*
X2025160Y723780D01*
Y721241D01*
X2027699Y718702D01*
X2032777D01*
X2035316Y716162D01*
Y713623D01*
X2032777Y711084D01*
X2027699D01*
X2025160Y713623D01*
X2063247Y726319D02*
X2058169D01*
X2055630Y723780D01*
Y713623D01*
X2058169Y711084D01*
X2063247D01*
X2065786Y713623D01*
Y723780D01*
X2063247Y726319D01*
X2070865Y711084D02*
Y726319D01*
X2081022Y711084D01*
Y726319D01*
X2101335D02*
X2111492D01*
X2106413D01*
Y711084D01*
X2116570Y726319D02*
Y711084D01*
Y718702D01*
X2126727D01*
Y726319D01*
Y711084D01*
X2141962Y726319D02*
X2131805D01*
Y711084D01*
X2141962D01*
X2131805Y718702D02*
X2136884D01*
X2162275Y711084D02*
Y726319D01*
X2169893D01*
X2172432Y723780D01*
Y718702D01*
X2169893Y716162D01*
X2162275D01*
X2177510Y711084D02*
Y721241D01*
X2182589Y726319D01*
X2187667Y721241D01*
Y711084D01*
Y718702D01*
X2177510D01*
X2192745Y711084D02*
Y726319D01*
X2202902Y711084D01*
Y726319D01*
X2218137D02*
X2207980D01*
Y711084D01*
X2218137D01*
X2207980Y718702D02*
X2213059D01*
X2223215Y726319D02*
Y711084D01*
X2233372D01*
X2263842Y723780D02*
X2261303Y726319D01*
X2256225D01*
X2253686Y723780D01*
Y721241D01*
X2256225Y718702D01*
X2261303D01*
X2263842Y716162D01*
Y713623D01*
X2261303Y711084D01*
X2256225D01*
X2253686Y713623D01*
X2268921Y726319D02*
X2279077D01*
X2273999D01*
Y711084D01*
X2284156D02*
Y726319D01*
X2291773D01*
X2294313Y723780D01*
Y718702D01*
X2291773Y716162D01*
X2284156D01*
X2289234D02*
X2294313Y711084D01*
X2299391Y726319D02*
X2304469D01*
X2301930D01*
Y711084D01*
X2299391D01*
X2304469D01*
X2312087D02*
Y726319D01*
X2319704D01*
X2322243Y723780D01*
Y718702D01*
X2319704Y716162D01*
X2312087D01*
X2337479Y723780D02*
X2334939Y726319D01*
X2329861D01*
X2327322Y723780D01*
Y721241D01*
X2329861Y718702D01*
X2334939D01*
X2337479Y716162D01*
Y713623D01*
X2334939Y711084D01*
X2329861D01*
X2327322Y713623D01*
X2357792Y711084D02*
Y721241D01*
X2362870Y726319D01*
X2367949Y721241D01*
Y711084D01*
Y718702D01*
X2357792D01*
X2383184Y723780D02*
X2380645Y726319D01*
X2375566D01*
X2373027Y723780D01*
Y721241D01*
X2375566Y718702D01*
X2380645D01*
X2383184Y716162D01*
Y713623D01*
X2380645Y711084D01*
X2375566D01*
X2373027Y713623D01*
X2413654Y726319D02*
X2403497D01*
Y718702D01*
X2408576D01*
X2403497D01*
Y711084D01*
X2426350Y726319D02*
X2421272D01*
X2418732Y723780D01*
Y713623D01*
X2421272Y711084D01*
X2426350D01*
X2428889Y713623D01*
Y723780D01*
X2426350Y726319D01*
X2433967D02*
Y711084D01*
X2444124D01*
X2449202Y726319D02*
Y711084D01*
X2459359D01*
X2472055Y726319D02*
X2466977D01*
X2464438Y723780D01*
Y713623D01*
X2466977Y711084D01*
X2472055D01*
X2474594Y713623D01*
Y723780D01*
X2472055Y726319D01*
X2479673D02*
Y711084D01*
X2484751Y716162D01*
X2489829Y711084D01*
Y726319D01*
X2505064Y723780D02*
X2502525Y726319D01*
X2497447D01*
X2494908Y723780D01*
Y721241D01*
X2497447Y718702D01*
X2502525D01*
X2505064Y716162D01*
Y713623D01*
X2502525Y711084D01*
X2497447D01*
X2494908Y713623D01*
X2510143Y721241D02*
X2512682D01*
Y718702D01*
X2510143D01*
Y721241D01*
Y713623D02*
X2512682D01*
Y711084D01*
X2510143D01*
Y713623D01*
X1270240Y693702D02*
X1280397D01*
X1310867Y701319D02*
X1300710D01*
Y693702D01*
X1305789D01*
X1300710D01*
Y686084D01*
X1315945Y701319D02*
X1321024D01*
X1318484D01*
Y686084D01*
X1315945D01*
X1321024D01*
X1328641Y701319D02*
Y686084D01*
X1336259D01*
X1338798Y688623D01*
Y698780D01*
X1336259Y701319D01*
X1328641D01*
X1343876D02*
Y688623D01*
X1346415Y686084D01*
X1351494D01*
X1354033Y688623D01*
Y701319D01*
X1369268Y698780D02*
X1366729Y701319D01*
X1361650D01*
X1359111Y698780D01*
Y688623D01*
X1361650Y686084D01*
X1366729D01*
X1369268Y688623D01*
X1374346Y701319D02*
X1379425D01*
X1376886D01*
Y686084D01*
X1374346D01*
X1379425D01*
X1387042D02*
Y696241D01*
X1392121Y701319D01*
X1397199Y696241D01*
Y686084D01*
Y693702D01*
X1387042D01*
X1402277Y701319D02*
Y686084D01*
X1412434D01*
X1432747Y701319D02*
Y686084D01*
X1440365D01*
X1442904Y688623D01*
Y698780D01*
X1440365Y701319D01*
X1432747D01*
X1447982D02*
X1453061D01*
X1450522D01*
Y686084D01*
X1447982D01*
X1453061D01*
X1460678D02*
Y696241D01*
X1465757Y701319D01*
X1470835Y696241D01*
Y686084D01*
Y693702D01*
X1460678D01*
X1475913Y686084D02*
Y701319D01*
X1480992Y696241D01*
X1486070Y701319D01*
Y686084D01*
X1491149Y701319D02*
X1501305D01*
X1496227D01*
Y686084D01*
X1516540Y701319D02*
X1506384D01*
Y686084D01*
X1516540D01*
X1506384Y693702D02*
X1511462D01*
X1521619Y686084D02*
Y701319D01*
X1529236D01*
X1531775Y698780D01*
Y693702D01*
X1529236Y691162D01*
X1521619D01*
X1526697D02*
X1531775Y686084D01*
X1552089D02*
X1557167D01*
X1554628D01*
Y701319D01*
X1552089Y698780D01*
X1564785Y693702D02*
X1574941D01*
X1580020Y686084D02*
X1585098D01*
X1582559D01*
Y701319D01*
X1580020Y698780D01*
X1592716Y686084D02*
Y688623D01*
X1595255D01*
Y686084D01*
X1592716D01*
X1615568Y701319D02*
X1605412D01*
Y693702D01*
X1610490Y696241D01*
X1613029D01*
X1615568Y693702D01*
Y688623D01*
X1613029Y686084D01*
X1607951D01*
X1605412Y688623D01*
X1620647Y686084D02*
Y701319D01*
X1625725Y696241D01*
X1630803Y701319D01*
Y686084D01*
X1635882D02*
Y701319D01*
X1640960Y696241D01*
X1646038Y701319D01*
Y686084D01*
X1653656Y683545D02*
X1656195Y686084D01*
Y688623D01*
X1653656D01*
Y686084D01*
X1656195D01*
X1653656Y683545D01*
X1651117Y681006D01*
X1691744Y698780D02*
X1689204Y701319D01*
X1684126D01*
X1681587Y698780D01*
Y696241D01*
X1684126Y693702D01*
X1689204D01*
X1691744Y691162D01*
Y688623D01*
X1689204Y686084D01*
X1684126D01*
X1681587Y688623D01*
X1704440Y701319D02*
X1699361D01*
X1696822Y698780D01*
Y688623D01*
X1699361Y686084D01*
X1704440D01*
X1706979Y688623D01*
Y698780D01*
X1704440Y701319D01*
X1712057D02*
Y686084D01*
X1722214D01*
X1727292Y701319D02*
Y686084D01*
X1734910D01*
X1737449Y688623D01*
Y698780D01*
X1734910Y701319D01*
X1727292D01*
X1752684D02*
X1742527D01*
Y686084D01*
X1752684D01*
X1742527Y693702D02*
X1747605D01*
X1757762Y686084D02*
Y701319D01*
X1765380D01*
X1767919Y698780D01*
Y693702D01*
X1765380Y691162D01*
X1757762D01*
X1762841D02*
X1767919Y686084D01*
X1788232D02*
Y701319D01*
X1793311Y696241D01*
X1798389Y701319D01*
Y686084D01*
X1803468D02*
Y696241D01*
X1808546Y701319D01*
X1813624Y696241D01*
Y686084D01*
Y693702D01*
X1803468D01*
X1828859Y698780D02*
X1826320Y701319D01*
X1821242D01*
X1818703Y698780D01*
Y696241D01*
X1821242Y693702D01*
X1826320D01*
X1828859Y691162D01*
Y688623D01*
X1826320Y686084D01*
X1821242D01*
X1818703Y688623D01*
X1833938Y701319D02*
Y686084D01*
Y691162D01*
X1844094Y701319D01*
X1836477Y693702D01*
X1844094Y686084D01*
X1872025Y701319D02*
X1866947D01*
X1864408Y698780D01*
Y688623D01*
X1866947Y686084D01*
X1872025D01*
X1874565Y688623D01*
Y698780D01*
X1872025Y701319D01*
X1879643Y686084D02*
Y701319D01*
X1887260D01*
X1889799Y698780D01*
Y693702D01*
X1887260Y691162D01*
X1879643D01*
X1905035Y701319D02*
X1894878D01*
Y686084D01*
X1905035D01*
X1894878Y693702D02*
X1899956D01*
X1910113Y686084D02*
Y701319D01*
X1920270Y686084D01*
Y701319D01*
X1925348D02*
X1930426D01*
X1927887D01*
Y686084D01*
X1925348D01*
X1930426D01*
X1938044D02*
Y701319D01*
X1948201Y686084D01*
Y701319D01*
X1963436Y698780D02*
X1960896Y701319D01*
X1955818D01*
X1953279Y698780D01*
Y688623D01*
X1955818Y686084D01*
X1960896D01*
X1963436Y688623D01*
Y693702D01*
X1958357D01*
X1983749Y686084D02*
Y696241D01*
X1988828Y701319D01*
X1993906Y696241D01*
Y686084D01*
Y693702D01*
X1983749D01*
X1998984Y701319D02*
X2009141D01*
X2004063D01*
Y686084D01*
X2029454Y701319D02*
Y686084D01*
X2039611D01*
X2054846Y701319D02*
X2044689D01*
Y686084D01*
X2054846D01*
X2044689Y693702D02*
X2049768D01*
X2059924Y686084D02*
Y696241D01*
X2065003Y701319D01*
X2070081Y696241D01*
Y686084D01*
Y693702D01*
X2059924D01*
X2085316Y698780D02*
X2082777Y701319D01*
X2077699D01*
X2075160Y698780D01*
Y696241D01*
X2077699Y693702D01*
X2082777D01*
X2085316Y691162D01*
Y688623D01*
X2082777Y686084D01*
X2077699D01*
X2075160Y688623D01*
X2090395Y701319D02*
X2100551D01*
X2095473D01*
Y686084D01*
X2120865D02*
X2125943D01*
X2123404D01*
Y701319D01*
X2120865Y698780D01*
X2133561Y686084D02*
Y701319D01*
X2138639Y696241D01*
X2143717Y701319D01*
Y686084D01*
X2148796D02*
Y701319D01*
X2153874Y696241D01*
X2158952Y701319D01*
Y686084D01*
X2189423Y698780D02*
X2186883Y701319D01*
X2181805D01*
X2179266Y698780D01*
Y688623D01*
X2181805Y686084D01*
X2186883D01*
X2189423Y688623D01*
Y693702D01*
X2184344D01*
X2194501Y686084D02*
Y701319D01*
X2202119D01*
X2204658Y698780D01*
Y693702D01*
X2202119Y691162D01*
X2194501D01*
X2199579D02*
X2204658Y686084D01*
X2219893Y701319D02*
X2209736D01*
Y686084D01*
X2219893D01*
X2209736Y693702D02*
X2214814D01*
X2224971Y686084D02*
Y696241D01*
X2230049Y701319D01*
X2235128Y696241D01*
Y686084D01*
Y693702D01*
X2224971D01*
X2240206Y701319D02*
X2250363D01*
X2245284D01*
Y686084D01*
X2265598Y701319D02*
X2255441D01*
Y686084D01*
X2265598D01*
X2255441Y693702D02*
X2260520D01*
X2270676Y686084D02*
Y701319D01*
X2278294D01*
X2280833Y698780D01*
Y693702D01*
X2278294Y691162D01*
X2270676D01*
X2275755D02*
X2280833Y686084D01*
X2301147Y701319D02*
X2311303D01*
X2306225D01*
Y686084D01*
X2316382Y701319D02*
Y686084D01*
Y693702D01*
X2326538D01*
Y701319D01*
Y686084D01*
X2331617D02*
Y696241D01*
X2336695Y701319D01*
X2341773Y696241D01*
Y686084D01*
Y693702D01*
X2331617D01*
X2346852Y686084D02*
Y701319D01*
X2357008Y686084D01*
Y701319D01*
X2387479D02*
X2377322D01*
Y693702D01*
X2382400D01*
X2377322D01*
Y686084D01*
X2392557Y701319D02*
X2397635D01*
X2395096D01*
Y686084D01*
X2392557D01*
X2397635D01*
X2405253Y701319D02*
Y686084D01*
X2412870D01*
X2415410Y688623D01*
Y698780D01*
X2412870Y701319D01*
X2405253D01*
X2420488D02*
Y688623D01*
X2423027Y686084D01*
X2428105D01*
X2430645Y688623D01*
Y701319D01*
X2445880Y698780D02*
X2443340Y701319D01*
X2438262D01*
X2435723Y698780D01*
Y688623D01*
X2438262Y686084D01*
X2443340D01*
X2445880Y688623D01*
X2450958Y701319D02*
X2456036D01*
X2453497D01*
Y686084D01*
X2450958D01*
X2456036D01*
X2463654D02*
Y696241D01*
X2468732Y701319D01*
X2473811Y696241D01*
Y686084D01*
Y693702D01*
X2463654D01*
X2478889Y701319D02*
Y686084D01*
X2489046D01*
X1220240Y911084D02*
X1225318D01*
X1222779D01*
Y926319D01*
X1220240Y923780D01*
X1232936Y911084D02*
Y913623D01*
X1235475D01*
Y911084D01*
X1232936D01*
X1271024Y926319D02*
X1260867D01*
Y918701D01*
X1265945D01*
X1260867D01*
Y911084D01*
X1276102Y926319D02*
X1281180D01*
X1278641D01*
Y911084D01*
X1276102D01*
X1281180D01*
X1288798D02*
Y926319D01*
X1298954Y911084D01*
Y926319D01*
X1304033D02*
X1309111D01*
X1306572D01*
Y911084D01*
X1304033D01*
X1309111D01*
X1326886Y923780D02*
X1324346Y926319D01*
X1319268D01*
X1316729Y923780D01*
Y921241D01*
X1319268Y918701D01*
X1324346D01*
X1326886Y916162D01*
Y913623D01*
X1324346Y911084D01*
X1319268D01*
X1316729Y913623D01*
X1331964Y926319D02*
Y911084D01*
Y918701D01*
X1342121D01*
Y926319D01*
Y911084D01*
X1357356Y926319D02*
X1347199D01*
Y911084D01*
X1357356D01*
X1347199Y918701D02*
X1352277D01*
X1362434Y926319D02*
Y911084D01*
X1370052D01*
X1372591Y913623D01*
Y923780D01*
X1370052Y926319D01*
X1362434D01*
X1392904Y911084D02*
Y926319D01*
X1400522D01*
X1403061Y923780D01*
Y918701D01*
X1400522Y916162D01*
X1392904D01*
X1408139Y911084D02*
Y921241D01*
X1413217Y926319D01*
X1418296Y921241D01*
Y911084D01*
Y918701D01*
X1408139D01*
X1423374Y911084D02*
Y926319D01*
X1433531Y911084D01*
Y926319D01*
X1448766D02*
X1438609D01*
Y911084D01*
X1448766D01*
X1438609Y918701D02*
X1443688D01*
X1453844Y926319D02*
Y911084D01*
X1464001D01*
X1484315Y926319D02*
X1494471D01*
X1489393D01*
Y911084D01*
X1499550Y926319D02*
Y911084D01*
Y918701D01*
X1509706D01*
Y926319D01*
Y911084D01*
X1514785Y926319D02*
X1519863D01*
X1517324D01*
Y911084D01*
X1514785D01*
X1519863D01*
X1537637Y923780D02*
X1535098Y926319D01*
X1530020D01*
X1527481Y923780D01*
Y913623D01*
X1530020Y911084D01*
X1535098D01*
X1537637Y913623D01*
X1542716Y926319D02*
Y911084D01*
Y916162D01*
X1552872Y926319D01*
X1545255Y918701D01*
X1552872Y911084D01*
X1557951D02*
Y926319D01*
X1568107Y911084D01*
Y926319D01*
X1583342D02*
X1573186D01*
Y911084D01*
X1583342D01*
X1573186Y918701D02*
X1578264D01*
X1598578Y923780D02*
X1596038Y926319D01*
X1590960D01*
X1588421Y923780D01*
Y921241D01*
X1590960Y918701D01*
X1596038D01*
X1598578Y916162D01*
Y913623D01*
X1596038Y911084D01*
X1590960D01*
X1588421Y913623D01*
X1613813Y923780D02*
X1611273Y926319D01*
X1606195D01*
X1603656Y923780D01*
Y921241D01*
X1606195Y918701D01*
X1611273D01*
X1613813Y916162D01*
Y913623D01*
X1611273Y911084D01*
X1606195D01*
X1603656Y913623D01*
X1634126Y926319D02*
X1639204D01*
X1636665D01*
Y911084D01*
X1634126D01*
X1639204D01*
X1656979Y923780D02*
X1654440Y926319D01*
X1649361D01*
X1646822Y923780D01*
Y921241D01*
X1649361Y918701D01*
X1654440D01*
X1656979Y916162D01*
Y913623D01*
X1654440Y911084D01*
X1649361D01*
X1646822Y913623D01*
X1677292Y911084D02*
Y926319D01*
X1687449Y911084D01*
Y926319D01*
X1700145D02*
X1695066D01*
X1692527Y923780D01*
Y913623D01*
X1695066Y911084D01*
X1700145D01*
X1702684Y913623D01*
Y923780D01*
X1700145Y926319D01*
X1707762D02*
X1717919D01*
X1712841D01*
Y911084D01*
X1748389Y923780D02*
X1745850Y926319D01*
X1740772D01*
X1738232Y923780D01*
Y913623D01*
X1740772Y911084D01*
X1745850D01*
X1748389Y913623D01*
X1753468Y911084D02*
Y926319D01*
X1761085D01*
X1763624Y923780D01*
Y918701D01*
X1761085Y916162D01*
X1753468D01*
X1758546D02*
X1763624Y911084D01*
X1768703Y926319D02*
X1773781D01*
X1771242D01*
Y911084D01*
X1768703D01*
X1773781D01*
X1781398Y926319D02*
X1791555D01*
X1786477D01*
Y911084D01*
X1796633Y926319D02*
X1801712D01*
X1799173D01*
Y911084D01*
X1796633D01*
X1801712D01*
X1819486Y923780D02*
X1816947Y926319D01*
X1811869D01*
X1809329Y923780D01*
Y913623D01*
X1811869Y911084D01*
X1816947D01*
X1819486Y913623D01*
X1824565Y911084D02*
Y921241D01*
X1829643Y926319D01*
X1834721Y921241D01*
Y911084D01*
Y918701D01*
X1824565D01*
X1839799Y926319D02*
Y911084D01*
X1849956D01*
X1855035Y921241D02*
X1857574D01*
Y918701D01*
X1855035D01*
Y921241D01*
Y913623D02*
X1857574D01*
Y911084D01*
X1855035D01*
Y913623D01*
X1882966Y926319D02*
X1893122D01*
X1888044D01*
Y911084D01*
X1905818Y926319D02*
X1900740D01*
X1898201Y923780D01*
Y913623D01*
X1900740Y911084D01*
X1905818D01*
X1908357Y913623D01*
Y923780D01*
X1905818Y926319D01*
X1928671D02*
Y911084D01*
X1936288D01*
X1938828Y913623D01*
Y916162D01*
X1936288Y918701D01*
X1928671D01*
X1936288D01*
X1938828Y921241D01*
Y923780D01*
X1936288Y926319D01*
X1928671D01*
X1954063D02*
X1943906D01*
Y911084D01*
X1954063D01*
X1943906Y918701D02*
X1948984D01*
X1974376Y911084D02*
Y921241D01*
X1979454Y926319D01*
X1984533Y921241D01*
Y911084D01*
Y918701D01*
X1974376D01*
X1989611Y911084D02*
Y926319D01*
X1997229D01*
X1999768Y923780D01*
Y918701D01*
X1997229Y916162D01*
X1989611D01*
X2004846Y911084D02*
Y926319D01*
X2012464D01*
X2015003Y923780D01*
Y918701D01*
X2012464Y916162D01*
X2004846D01*
X2020081Y911084D02*
Y926319D01*
X2027699D01*
X2030238Y923780D01*
Y918701D01*
X2027699Y916162D01*
X2020081D01*
X2025160D02*
X2030238Y911084D01*
X2042934Y926319D02*
X2037856D01*
X2035316Y923780D01*
Y913623D01*
X2037856Y911084D01*
X2042934D01*
X2045473Y913623D01*
Y923780D01*
X2042934Y926319D01*
X2050551D02*
X2060708Y911084D01*
Y926319D02*
X2050551Y911084D01*
X2065786Y926319D02*
X2070865D01*
X2068326D01*
Y911084D01*
X2065786D01*
X2070865D01*
X2078482D02*
Y926319D01*
X2083561Y921241D01*
X2088639Y926319D01*
Y911084D01*
X2093717D02*
Y921241D01*
X2098796Y926319D01*
X2103874Y921241D01*
Y911084D01*
Y918701D01*
X2093717D01*
X2108952Y926319D02*
X2119109D01*
X2114031D01*
Y911084D01*
X2134344Y926319D02*
X2124187D01*
Y911084D01*
X2134344D01*
X2124187Y918701D02*
X2129266D01*
X2139423Y926319D02*
Y911084D01*
X2149579D01*
X2154658Y926319D02*
Y923780D01*
X2159736Y918701D01*
X2164814Y923780D01*
Y926319D01*
X2159736Y918701D02*
Y911084D01*
X2185128D02*
X2190206D01*
X2187667D01*
Y926319D01*
X2185128Y923780D01*
X2197824Y911084D02*
Y913623D01*
X2200363D01*
Y911084D01*
X2197824D01*
X2220676Y926319D02*
X2215598Y923780D01*
X2210520Y918701D01*
Y913623D01*
X2213059Y911084D01*
X2218137D01*
X2220676Y913623D01*
Y916162D01*
X2218137Y918701D01*
X2210520D01*
X2225755Y911084D02*
Y921241D01*
X2228294D01*
X2230833Y918701D01*
Y911084D01*
Y918701D01*
X2233372Y921241D01*
X2235911Y918701D01*
Y911084D01*
X2240990D02*
Y921241D01*
X2243529D01*
X2246068Y918701D01*
Y911084D01*
Y918701D01*
X2248607Y921241D01*
X2251147Y918701D01*
Y911084D01*
X1270240Y668702D02*
X1280397D01*
X1300710Y661084D02*
Y676319D01*
X1305789Y671241D01*
X1310867Y676319D01*
Y661084D01*
X1315945Y676319D02*
X1321024D01*
X1318484D01*
Y661084D01*
X1315945D01*
X1321024D01*
X1328641D02*
Y676319D01*
X1338798Y661084D01*
Y676319D01*
X1343876D02*
X1348954D01*
X1346415D01*
Y661084D01*
X1343876D01*
X1348954D01*
X1356572D02*
Y676319D01*
X1361650Y671241D01*
X1366729Y676319D01*
Y661084D01*
X1371807Y676319D02*
Y663623D01*
X1374346Y661084D01*
X1379425D01*
X1381964Y663623D01*
Y676319D01*
X1387042Y661084D02*
Y676319D01*
X1392121Y671241D01*
X1397199Y676319D01*
Y661084D01*
X1425130D02*
Y676319D01*
X1417512Y668702D01*
X1427669D01*
X1432747Y661084D02*
Y676319D01*
X1437826Y671241D01*
X1442904Y676319D01*
Y661084D01*
X1447982D02*
Y676319D01*
X1453061Y671241D01*
X1458139Y676319D01*
Y661084D01*
X1478453Y676319D02*
Y661084D01*
X1486070D01*
X1488609Y663623D01*
Y673780D01*
X1486070Y676319D01*
X1478453D01*
X1493688D02*
X1498766D01*
X1496227D01*
Y661084D01*
X1493688D01*
X1498766D01*
X1516540Y673780D02*
X1514001Y676319D01*
X1508923D01*
X1506384Y673780D01*
Y671241D01*
X1508923Y668702D01*
X1514001D01*
X1516540Y666162D01*
Y663623D01*
X1514001Y661084D01*
X1508923D01*
X1506384Y663623D01*
X1521619Y676319D02*
X1531775D01*
X1526697D01*
Y661084D01*
X1536854D02*
Y671241D01*
X1541932Y676319D01*
X1547010Y671241D01*
Y661084D01*
Y668702D01*
X1536854D01*
X1552089Y661084D02*
Y676319D01*
X1562245Y661084D01*
Y676319D01*
X1577481Y673780D02*
X1574941Y676319D01*
X1569863D01*
X1567324Y673780D01*
Y663623D01*
X1569863Y661084D01*
X1574941D01*
X1577481Y663623D01*
X1592716Y676319D02*
X1582559D01*
Y661084D01*
X1592716D01*
X1582559Y668702D02*
X1587637D01*
X1623186Y676319D02*
X1613029D01*
Y668702D01*
X1618107D01*
X1613029D01*
Y661084D01*
X1628264D02*
Y676319D01*
X1635882D01*
X1638421Y673780D01*
Y668702D01*
X1635882Y666162D01*
X1628264D01*
X1633342D02*
X1638421Y661084D01*
X1651117Y676319D02*
X1646038D01*
X1643499Y673780D01*
Y663623D01*
X1646038Y661084D01*
X1651117D01*
X1653656Y663623D01*
Y673780D01*
X1651117Y676319D01*
X1658734Y661084D02*
Y676319D01*
X1663813Y671241D01*
X1668891Y676319D01*
Y661084D01*
X1689204Y676319D02*
X1699361D01*
X1694283D01*
Y661084D01*
X1704440Y676319D02*
Y661084D01*
Y668702D01*
X1714596D01*
Y676319D01*
Y661084D01*
X1729831Y676319D02*
X1719675D01*
Y661084D01*
X1729831D01*
X1719675Y668702D02*
X1724753D01*
X1750145Y661084D02*
Y676319D01*
X1757762D01*
X1760302Y673780D01*
Y668702D01*
X1757762Y666162D01*
X1750145D01*
X1765380Y661084D02*
Y671241D01*
X1770458Y676319D01*
X1775536Y671241D01*
Y661084D01*
Y668702D01*
X1765380D01*
X1780615Y661084D02*
Y676319D01*
X1790772Y661084D01*
Y676319D01*
X1806007D02*
X1795850D01*
Y661084D01*
X1806007D01*
X1795850Y668702D02*
X1800928D01*
X1811085Y676319D02*
Y661084D01*
X1821242D01*
X1851712Y676319D02*
X1841555D01*
Y661084D01*
X1851712D01*
X1841555Y668702D02*
X1846633D01*
X1856790Y676319D02*
Y661084D01*
X1864408D01*
X1866947Y663623D01*
Y673780D01*
X1864408Y676319D01*
X1856790D01*
X1882182Y673780D02*
X1879643Y676319D01*
X1874565D01*
X1872025Y673780D01*
Y663623D01*
X1874565Y661084D01*
X1879643D01*
X1882182Y663623D01*
Y668702D01*
X1877104D01*
X1897417Y676319D02*
X1887260D01*
Y661084D01*
X1897417D01*
X1887260Y668702D02*
X1892339D01*
X145240Y998780D02*
X155397Y988623D01*
X145240D02*
X155397Y998780D01*
X145240Y993701D02*
X155397D01*
X150318Y988623D02*
Y998780D01*
X160475Y986084D02*
Y988623D01*
X163014D01*
Y986084D01*
X160475D01*
X183328Y998780D02*
X180788Y1001319D01*
X175710D01*
X173171Y998780D01*
Y988623D01*
X175710Y986084D01*
X180788D01*
X183328Y988623D01*
Y993701D01*
X178249D01*
X188406Y1001319D02*
X198563D01*
X193484D01*
Y986084D01*
X203641D02*
Y1001319D01*
X211259D01*
X213798Y998780D01*
Y993701D01*
X211259Y991162D01*
X203641D01*
X234111Y993701D02*
X244268D01*
X264581Y1001319D02*
X274738D01*
X269660D01*
Y986084D01*
X282356D02*
X287434D01*
X289973Y988623D01*
Y993701D01*
X287434Y996241D01*
X282356D01*
X279816Y993701D01*
Y988623D01*
X282356Y986084D01*
X295051Y981006D02*
Y996241D01*
X302669D01*
X305208Y993701D01*
Y988623D01*
X302669Y986084D01*
X295051D01*
X325522D02*
Y1001319D01*
X333139D01*
X335678Y998780D01*
Y993701D01*
X333139Y991162D01*
X325522D01*
X343296Y996241D02*
X348374D01*
X350914Y993701D01*
Y986084D01*
X343296D01*
X340757Y988623D01*
X343296Y991162D01*
X350914D01*
X355992Y986084D02*
X363609D01*
X366148Y988623D01*
X363609Y991162D01*
X358531D01*
X355992Y993701D01*
X358531Y996241D01*
X366148D01*
X373766Y998780D02*
Y996241D01*
X371227D01*
X376305D01*
X373766D01*
Y988623D01*
X376305Y986084D01*
X391540D02*
X386462D01*
X383923Y988623D01*
Y993701D01*
X386462Y996241D01*
X391540D01*
X394080Y993701D01*
Y991162D01*
X383923D01*
X145240Y923780D02*
X155397Y913623D01*
X145240D02*
X155397Y923780D01*
X145240Y918701D02*
X155397D01*
X150318Y913623D02*
Y923780D01*
X160475Y911084D02*
Y913623D01*
X163014D01*
Y911084D01*
X160475D01*
X183328Y923780D02*
X180788Y926319D01*
X175710D01*
X173171Y923780D01*
Y913623D01*
X175710Y911084D01*
X180788D01*
X183328Y913623D01*
Y918701D01*
X178249D01*
X188406Y926319D02*
Y911084D01*
X196024D01*
X198563Y913623D01*
Y916162D01*
X196024Y918701D01*
X188406D01*
X196024D01*
X198563Y921241D01*
Y923780D01*
X196024Y926319D01*
X188406D01*
X203641D02*
Y911084D01*
X213798D01*
X234111Y918701D02*
X244268D01*
X264581Y926319D02*
Y911084D01*
X274738D01*
X289973D02*
X279816D01*
X289973Y921241D01*
Y923780D01*
X287434Y926319D01*
X282356D01*
X279816Y923780D01*
X315365Y911084D02*
X310287Y916162D01*
Y921241D01*
X315365Y926319D01*
X322982Y911084D02*
Y926319D01*
X330600D01*
X333139Y923780D01*
Y918701D01*
X330600Y916162D01*
X322982D01*
X340757Y911084D02*
X345835D01*
X348374Y913623D01*
Y918701D01*
X345835Y921241D01*
X340757D01*
X338218Y918701D01*
Y913623D01*
X340757Y911084D01*
X353453D02*
X361070D01*
X363609Y913623D01*
X361070Y916162D01*
X355992D01*
X353453Y918701D01*
X355992Y921241D01*
X363609D01*
X368688Y911084D02*
X373766D01*
X371227D01*
Y921241D01*
X368688D01*
X383923Y923780D02*
Y921241D01*
X381384D01*
X386462D01*
X383923D01*
Y913623D01*
X386462Y911084D01*
X394080D02*
X399158D01*
X396619D01*
Y921241D01*
X394080D01*
X406775D02*
X411854Y911084D01*
X416932Y921241D01*
X429628Y911084D02*
X424550D01*
X422010Y913623D01*
Y918701D01*
X424550Y921241D01*
X429628D01*
X432167Y918701D01*
Y916162D01*
X422010D01*
X437245Y911084D02*
X442324Y916162D01*
Y921241D01*
X437245Y926319D01*
X145240Y848780D02*
X155397Y838623D01*
X145240D02*
X155397Y848780D01*
X145240Y843701D02*
X155397D01*
X150318Y838623D02*
Y848780D01*
X160475Y836084D02*
Y838623D01*
X163014D01*
Y836084D01*
X160475D01*
X183328Y848780D02*
X180788Y851319D01*
X175710D01*
X173171Y848780D01*
Y838623D01*
X175710Y836084D01*
X180788D01*
X183328Y838623D01*
Y843701D01*
X178249D01*
X188406Y836084D02*
Y851319D01*
X193484Y846241D01*
X198563Y851319D01*
Y836084D01*
X213798D02*
X203641D01*
X213798Y846241D01*
Y848780D01*
X211259Y851319D01*
X206180D01*
X203641Y848780D01*
X234111Y843701D02*
X244268D01*
X264581Y836084D02*
Y851319D01*
X269660Y846241D01*
X274738Y851319D01*
Y836084D01*
X287434D02*
X282356D01*
X279816Y838623D01*
Y843701D01*
X282356Y846241D01*
X287434D01*
X289973Y843701D01*
Y841162D01*
X279816D01*
X305208Y846241D02*
X297591D01*
X295051Y843701D01*
Y838623D01*
X297591Y836084D01*
X305208D01*
X310287Y851319D02*
Y836084D01*
Y843701D01*
X312826Y846241D01*
X317904D01*
X320443Y843701D01*
Y836084D01*
X328061Y846241D02*
X333139D01*
X335678Y843701D01*
Y836084D01*
X328061D01*
X325522Y838623D01*
X328061Y841162D01*
X335678D01*
X340757Y836084D02*
Y846241D01*
X348374D01*
X350914Y843701D01*
Y836084D01*
X355992D02*
X361070D01*
X358531D01*
Y846241D01*
X355992D01*
X378844D02*
X371227D01*
X368688Y843701D01*
Y838623D01*
X371227Y836084D01*
X378844D01*
X386462Y846241D02*
X391540D01*
X394080Y843701D01*
Y836084D01*
X386462D01*
X383923Y838623D01*
X386462Y841162D01*
X394080D01*
X399158Y836084D02*
X404236D01*
X401697D01*
Y851319D01*
X399158D01*
X427089D02*
Y836084D01*
X434706D01*
X437245Y838623D01*
Y848780D01*
X434706Y851319D01*
X427089D01*
X442324Y846241D02*
Y836084D01*
Y841162D01*
X444863Y843701D01*
X447402Y846241D01*
X449941D01*
X460098D02*
X465177D01*
X467716Y843701D01*
Y836084D01*
X460098D01*
X457559Y838623D01*
X460098Y841162D01*
X467716D01*
X472794Y846241D02*
Y838623D01*
X475333Y836084D01*
X477872Y838623D01*
X480412Y836084D01*
X482951Y838623D01*
Y846241D01*
X488029Y836084D02*
X493107D01*
X490568D01*
Y846241D01*
X488029D01*
X500725Y836084D02*
Y846241D01*
X508343D01*
X510882Y843701D01*
Y836084D01*
X521038Y831006D02*
X523578D01*
X526117Y833545D01*
Y846241D01*
X518499D01*
X515960Y843701D01*
Y838623D01*
X518499Y836084D01*
X526117D01*
X51556Y-483220D02*
Y-467985D01*
X56634Y-473063D01*
X61713Y-467985D01*
Y-483220D01*
X74409D02*
X69330D01*
X66791Y-480681D01*
Y-475602D01*
X69330Y-473063D01*
X74409D01*
X76948Y-475602D01*
Y-478142D01*
X66791D01*
X82026Y-467985D02*
Y-483220D01*
Y-475602D01*
X84565Y-473063D01*
X89644D01*
X92183Y-475602D01*
Y-483220D01*
X107418Y-467985D02*
Y-483220D01*
X99800D01*
X97261Y-480681D01*
Y-475602D01*
X99800Y-473063D01*
X107418D01*
X112496Y-483220D02*
X117575D01*
X115035D01*
Y-473063D01*
X112496D01*
X125192Y-485759D02*
X135349D01*
X140427Y-467985D02*
Y-483220D01*
Y-478142D01*
X150584Y-467985D01*
X142966Y-475602D01*
X150584Y-483220D01*
X155662Y-467985D02*
Y-483220D01*
Y-475602D01*
X165819D01*
Y-467985D01*
Y-483220D01*
X1220240Y961084D02*
Y976319D01*
X1225318Y971241D01*
X1230397Y976319D01*
Y961084D01*
X1235475D02*
X1240553D01*
X1238014D01*
Y971241D01*
X1235475D01*
X1248171Y961084D02*
Y971241D01*
X1255788D01*
X1258328Y968701D01*
Y961084D01*
X1263406D02*
X1268484D01*
X1265945D01*
Y971241D01*
X1263406D01*
X1276102Y961084D02*
Y971241D01*
X1278641D01*
X1281180Y968701D01*
Y961084D01*
Y968701D01*
X1283719Y971241D01*
X1286259Y968701D01*
Y961084D01*
X1291337Y971241D02*
Y963623D01*
X1293876Y961084D01*
X1301494D01*
Y971241D01*
X1306572Y961084D02*
Y971241D01*
X1309111D01*
X1311650Y968701D01*
Y961084D01*
Y968701D01*
X1314190Y971241D01*
X1316729Y968701D01*
Y961084D01*
X1337042Y976319D02*
X1347199D01*
X1342121D01*
Y961084D01*
X1352277Y976319D02*
Y961084D01*
Y968701D01*
X1354816Y971241D01*
X1359895D01*
X1362434Y968701D01*
Y961084D01*
X1367512Y971241D02*
Y961084D01*
Y966162D01*
X1370052Y968701D01*
X1372591Y971241D01*
X1375130D01*
X1385287Y961084D02*
X1390365D01*
X1392904Y963623D01*
Y968701D01*
X1390365Y971241D01*
X1385287D01*
X1382747Y968701D01*
Y963623D01*
X1385287Y961084D01*
X1397982Y971241D02*
Y963623D01*
X1400522Y961084D01*
X1408139D01*
Y971241D01*
X1418296Y956006D02*
X1420835D01*
X1423374Y958545D01*
Y971241D01*
X1415757D01*
X1413218Y968701D01*
Y963623D01*
X1415757Y961084D01*
X1423374D01*
X1428453Y976319D02*
Y961084D01*
Y968701D01*
X1430992Y971241D01*
X1436070D01*
X1438609Y968701D01*
Y961084D01*
X1458923Y976319D02*
Y961084D01*
Y968701D01*
X1469079D01*
Y976319D01*
Y961084D01*
X1476697D02*
X1481775D01*
X1484315Y963623D01*
Y968701D01*
X1481775Y971241D01*
X1476697D01*
X1474158Y968701D01*
Y963623D01*
X1476697Y961084D01*
X1489393D02*
X1494471D01*
X1491932D01*
Y976319D01*
X1489393D01*
X1509706Y961084D02*
X1504628D01*
X1502089Y963623D01*
Y968701D01*
X1504628Y971241D01*
X1509706D01*
X1512245Y968701D01*
Y966162D01*
X1502089D01*
X1532559Y976319D02*
Y966162D01*
X1537637Y961084D01*
X1542716Y966162D01*
Y976319D01*
X1547794D02*
X1552872D01*
X1550333D01*
Y961084D01*
X1547794D01*
X1552872D01*
X1560490D02*
Y971241D01*
X1565568Y976319D01*
X1570647Y971241D01*
Y961084D01*
Y968701D01*
X1560490D01*
X1575725Y971241D02*
X1578264D01*
Y968701D01*
X1575725D01*
Y971241D01*
Y963623D02*
X1578264D01*
Y961084D01*
X1575725D01*
Y963623D01*
X1603656Y973780D02*
X1606195Y976319D01*
X1611273D01*
X1613813Y973780D01*
Y963623D01*
X1611273Y961084D01*
X1606195D01*
X1603656Y963623D01*
Y973780D01*
X1618891Y961084D02*
Y963623D01*
X1621430D01*
Y961084D01*
X1618891D01*
X1641744Y976319D02*
X1636665Y973780D01*
X1631587Y968701D01*
Y963623D01*
X1634126Y961084D01*
X1639204D01*
X1641744Y963623D01*
Y966162D01*
X1639204Y968701D01*
X1631587D01*
X1646822Y961084D02*
Y971241D01*
X1649361D01*
X1651900Y968701D01*
Y961084D01*
Y968701D01*
X1654440Y971241D01*
X1656979Y968701D01*
Y961084D01*
X1662057D02*
Y971241D01*
X1664596D01*
X1667135Y968701D01*
Y961084D01*
Y968701D01*
X1669675Y971241D01*
X1672214Y968701D01*
Y961084D01*
X1697605D02*
X1692527Y966162D01*
Y971241D01*
X1697605Y976319D01*
X1705223Y956006D02*
Y971241D01*
X1712841D01*
X1715380Y968701D01*
Y963623D01*
X1712841Y961084D01*
X1705223D01*
X1722997Y971241D02*
X1728076D01*
X1730615Y968701D01*
Y961084D01*
X1722997D01*
X1720458Y963623D01*
X1722997Y966162D01*
X1730615D01*
X1745850Y976319D02*
Y961084D01*
X1738232D01*
X1735693Y963623D01*
Y968701D01*
X1738232Y971241D01*
X1745850D01*
X1750928Y961084D02*
X1756007Y966162D01*
Y971241D01*
X1750928Y976319D01*
X1778859Y961084D02*
X1789016Y971241D01*
X1809329Y973780D02*
X1811869Y976319D01*
X1816947D01*
X1819486Y973780D01*
Y963623D01*
X1816947Y961084D01*
X1811869D01*
X1809329Y963623D01*
Y973780D01*
X1824565Y961084D02*
Y963623D01*
X1827104D01*
Y961084D01*
X1824565D01*
X1837260Y973780D02*
X1839799Y976319D01*
X1844878D01*
X1847417Y973780D01*
Y971241D01*
X1844878Y968701D01*
X1842339D01*
X1844878D01*
X1847417Y966162D01*
Y963623D01*
X1844878Y961084D01*
X1839799D01*
X1837260Y963623D01*
X1852495Y961084D02*
Y971241D01*
X1855035D01*
X1857574Y968701D01*
Y961084D01*
Y968701D01*
X1860113Y971241D01*
X1862652Y968701D01*
Y961084D01*
X1867731D02*
Y971241D01*
X1870270D01*
X1872809Y968701D01*
Y961084D01*
Y968701D01*
X1875348Y971241D01*
X1877887Y968701D01*
Y961084D01*
X1903279D02*
X1898201Y966162D01*
Y971241D01*
X1903279Y976319D01*
X1921053D02*
Y961084D01*
X1913436D01*
X1910896Y963623D01*
Y968701D01*
X1913436Y971241D01*
X1921053D01*
X1926132D02*
Y961084D01*
Y966162D01*
X1928671Y968701D01*
X1931210Y971241D01*
X1933749D01*
X1941367Y961084D02*
X1946445D01*
X1943906D01*
Y971241D01*
X1941367D01*
X1954063Y961084D02*
X1959141D01*
X1956602D01*
Y976319D01*
X1954063D01*
X1966758Y961084D02*
X1971837D01*
X1969298D01*
Y976319D01*
X1966758D01*
X1979454Y961084D02*
X1984533Y966162D01*
Y971241D01*
X1979454Y976319D01*
X1992150Y961084D02*
Y963623D01*
X1994689D01*
Y961084D01*
X1992150D01*
X2020081Y976319D02*
Y961084D01*
X2027699D01*
X2030238Y963623D01*
Y973780D01*
X2027699Y976319D01*
X2020081D01*
X2035316Y971241D02*
Y961084D01*
Y966162D01*
X2037855Y968701D01*
X2040395Y971241D01*
X2042934D01*
X2050551Y961084D02*
X2055630D01*
X2053091D01*
Y971241D01*
X2050551D01*
X2063247Y961084D02*
X2068326D01*
X2065786D01*
Y976319D01*
X2063247D01*
X2075943Y961084D02*
X2081021D01*
X2078482D01*
Y976319D01*
X2075943D01*
X2088639Y961084D02*
X2093717D01*
X2091178D01*
Y971241D01*
X2088639D01*
X2101335Y961084D02*
Y971241D01*
X2108952D01*
X2111492Y968701D01*
Y961084D01*
X2121648Y956006D02*
X2124187D01*
X2126727Y958545D01*
Y971241D01*
X2119109D01*
X2116570Y968701D01*
Y963623D01*
X2119109Y961084D01*
X2126727D01*
X2131805Y971241D02*
X2134344D01*
Y968701D01*
X2131805D01*
Y971241D01*
Y963623D02*
X2134344D01*
Y961084D01*
X2131805D01*
Y963623D01*
X2159736Y976319D02*
Y961084D01*
X2169893D01*
X2174971D02*
X2180049D01*
X2177510D01*
Y976319D01*
X2174971Y973780D01*
X2187667Y968701D02*
X2197824D01*
X2202902Y976319D02*
Y961084D01*
X2213059D01*
X2228294D02*
X2218137D01*
X2228294Y971241D01*
Y973780D01*
X2225755Y976319D01*
X2220676D01*
X2218137Y973780D01*
X1227858Y761084D02*
Y776319D01*
X1220240Y768702D01*
X1230397D01*
X1235475Y761084D02*
Y763623D01*
X1238014D01*
Y761084D01*
X1235475D01*
X1273563Y773780D02*
X1271024Y776319D01*
X1265945D01*
X1263406Y773780D01*
Y763623D01*
X1265945Y761084D01*
X1271024D01*
X1273563Y763623D01*
X1286259Y776319D02*
X1281180D01*
X1278641Y773780D01*
Y763623D01*
X1281180Y761084D01*
X1286259D01*
X1288798Y763623D01*
Y773780D01*
X1286259Y776319D01*
X1293876Y761084D02*
Y776319D01*
X1298954Y771241D01*
X1304033Y776319D01*
Y761084D01*
X1309111D02*
Y776319D01*
X1316729D01*
X1319268Y773780D01*
Y768702D01*
X1316729Y766162D01*
X1309111D01*
X1331964Y776319D02*
X1326886D01*
X1324346Y773780D01*
Y763623D01*
X1326886Y761084D01*
X1331964D01*
X1334503Y763623D01*
Y773780D01*
X1331964Y776319D01*
X1339581Y761084D02*
Y776319D01*
X1349738Y761084D01*
Y776319D01*
X1364973D02*
X1354816D01*
Y761084D01*
X1364973D01*
X1354816Y768702D02*
X1359895D01*
X1370052Y761084D02*
Y776319D01*
X1380208Y761084D01*
Y776319D01*
X1385287D02*
X1395443D01*
X1390365D01*
Y761084D01*
X1415757Y776319D02*
X1420835D01*
X1418296D01*
Y761084D01*
X1415757D01*
X1420835D01*
X1428453Y776319D02*
Y761084D01*
X1436070D01*
X1438609Y763623D01*
Y773780D01*
X1436070Y776319D01*
X1428453D01*
X1453844D02*
X1443688D01*
Y761084D01*
X1453844D01*
X1443688Y768702D02*
X1448766D01*
X1458923Y761084D02*
Y776319D01*
X1469079Y761084D01*
Y776319D01*
X1474158D02*
X1484315D01*
X1479236D01*
Y761084D01*
X1489393Y771241D02*
X1491932D01*
Y768702D01*
X1489393D01*
Y771241D01*
Y763623D02*
X1491932D01*
Y761084D01*
X1489393D01*
Y763623D01*
X1527481Y773780D02*
X1524941Y776319D01*
X1519863D01*
X1517324Y773780D01*
Y763623D01*
X1519863Y761084D01*
X1524941D01*
X1527481Y763623D01*
X1540177Y776319D02*
X1535098D01*
X1532559Y773780D01*
Y763623D01*
X1535098Y761084D01*
X1540177D01*
X1542716Y763623D01*
Y773780D01*
X1540177Y776319D01*
X1547794D02*
Y761084D01*
X1557951D01*
X1570647Y776319D02*
X1565568D01*
X1563029Y773780D01*
Y763623D01*
X1565568Y761084D01*
X1570647D01*
X1573186Y763623D01*
Y773780D01*
X1570647Y776319D01*
X1578264D02*
Y763623D01*
X1580803Y761084D01*
X1585882D01*
X1588421Y763623D01*
Y776319D01*
X1593499Y761084D02*
Y776319D01*
X1601117D01*
X1603656Y773780D01*
Y768702D01*
X1601117Y766162D01*
X1593499D01*
X1598578D02*
X1603656Y761084D01*
X1623969Y776319D02*
X1634126D01*
X1629048D01*
Y761084D01*
X1646822Y776319D02*
X1641744D01*
X1639205Y773780D01*
Y763623D01*
X1641744Y761084D01*
X1646822D01*
X1649361Y763623D01*
Y773780D01*
X1646822Y776319D01*
X1669675D02*
Y761084D01*
X1677292D01*
X1679831Y763623D01*
Y766162D01*
X1677292Y768702D01*
X1669675D01*
X1677292D01*
X1679831Y771241D01*
Y773780D01*
X1677292Y776319D01*
X1669675D01*
X1695066D02*
X1684910D01*
Y761084D01*
X1695066D01*
X1684910Y768702D02*
X1689988D01*
X1715380Y776319D02*
Y761084D01*
X1720458Y766162D01*
X1725537Y761084D01*
Y776319D01*
X1730615D02*
Y761084D01*
Y768702D01*
X1740772D01*
Y776319D01*
Y761084D01*
X1745850Y776319D02*
X1750928D01*
X1748389D01*
Y761084D01*
X1745850D01*
X1750928D01*
X1758546Y776319D02*
X1768703D01*
X1763624D01*
Y761084D01*
X1783938Y776319D02*
X1773781D01*
Y761084D01*
X1783938D01*
X1773781Y768702D02*
X1778859D01*
X1220240Y823780D02*
X1222779Y826319D01*
X1227858D01*
X1230397Y823780D01*
Y821241D01*
X1227858Y818701D01*
X1225318D01*
X1227858D01*
X1230397Y816162D01*
Y813623D01*
X1227858Y811084D01*
X1222779D01*
X1220240Y813623D01*
X1235475Y811084D02*
Y813623D01*
X1238014D01*
Y811084D01*
X1235475D01*
X1273563Y823780D02*
X1271024Y826319D01*
X1265945D01*
X1263406Y823780D01*
Y821241D01*
X1265945Y818701D01*
X1271024D01*
X1273563Y816162D01*
Y813623D01*
X1271024Y811084D01*
X1265945D01*
X1263406Y813623D01*
X1286259Y826319D02*
X1281180D01*
X1278641Y823780D01*
Y813623D01*
X1281180Y811084D01*
X1286259D01*
X1288798Y813623D01*
Y823780D01*
X1286259Y826319D01*
X1293876D02*
Y811084D01*
X1304033D01*
X1309111Y826319D02*
Y811084D01*
X1316729D01*
X1319268Y813623D01*
Y823780D01*
X1316729Y826319D01*
X1309111D01*
X1334503D02*
X1324346D01*
Y811084D01*
X1334503D01*
X1324346Y818701D02*
X1329425D01*
X1339581Y811084D02*
Y826319D01*
X1347199D01*
X1349738Y823780D01*
Y818701D01*
X1347199Y816162D01*
X1339581D01*
X1344660D02*
X1349738Y811084D01*
X1370052D02*
Y826319D01*
X1377669D01*
X1380208Y823780D01*
Y818701D01*
X1377669Y816162D01*
X1370052D01*
X1375130D02*
X1380208Y811084D01*
X1395443Y826319D02*
X1385287D01*
Y811084D01*
X1395443D01*
X1385287Y818701D02*
X1390365D01*
X1410678Y823780D02*
X1408139Y826319D01*
X1403061D01*
X1400522Y823780D01*
Y821241D01*
X1403061Y818701D01*
X1408139D01*
X1410678Y816162D01*
Y813623D01*
X1408139Y811084D01*
X1403061D01*
X1400522Y813623D01*
X1415757Y826319D02*
X1420835D01*
X1418296D01*
Y811084D01*
X1415757D01*
X1420835D01*
X1438609Y823780D02*
X1436070Y826319D01*
X1430992D01*
X1428453Y823780D01*
Y821241D01*
X1430992Y818701D01*
X1436070D01*
X1438609Y816162D01*
Y813623D01*
X1436070Y811084D01*
X1430992D01*
X1428453Y813623D01*
X1443688Y826319D02*
X1453844D01*
X1448766D01*
Y811084D01*
X1458923Y821241D02*
X1461462D01*
Y818701D01*
X1458923D01*
Y821241D01*
Y813623D02*
X1461462D01*
Y811084D01*
X1458923D01*
Y813623D01*
X1486854Y811084D02*
Y821241D01*
X1491932Y826319D01*
X1497010Y821241D01*
Y811084D01*
Y818701D01*
X1486854D01*
X1502089Y811084D02*
Y826319D01*
X1509706D01*
X1512245Y823780D01*
Y818701D01*
X1509706Y816162D01*
X1502089D01*
X1517324Y811084D02*
Y826319D01*
X1524941D01*
X1527481Y823780D01*
Y818701D01*
X1524941Y816162D01*
X1517324D01*
X1532559Y826319D02*
Y811084D01*
X1542716D01*
X1547794Y826319D02*
Y823780D01*
X1552872Y818701D01*
X1557951Y823780D01*
Y826319D01*
X1552872Y818701D02*
Y811084D01*
X1578264Y826319D02*
X1588421D01*
X1583342D01*
Y811084D01*
X1601117Y826319D02*
X1596038D01*
X1593499Y823780D01*
Y813623D01*
X1596038Y811084D01*
X1601117D01*
X1603656Y813623D01*
Y823780D01*
X1601117Y826319D01*
X1623969D02*
Y811084D01*
X1631587D01*
X1634126Y813623D01*
Y816162D01*
X1631587Y818701D01*
X1623969D01*
X1631587D01*
X1634126Y821241D01*
Y823780D01*
X1631587Y826319D01*
X1623969D01*
X1646822D02*
X1641744D01*
X1639205Y823780D01*
Y813623D01*
X1641744Y811084D01*
X1646822D01*
X1649361Y813623D01*
Y823780D01*
X1646822Y826319D01*
X1654440D02*
X1664596D01*
X1659518D01*
Y811084D01*
X1669675Y826319D02*
Y811084D01*
Y818701D01*
X1679831D01*
Y826319D01*
Y811084D01*
X1710302Y823780D02*
X1707762Y826319D01*
X1702684D01*
X1700145Y823780D01*
Y821241D01*
X1702684Y818701D01*
X1707762D01*
X1710302Y816162D01*
Y813623D01*
X1707762Y811084D01*
X1702684D01*
X1700145Y813623D01*
X1715380Y826319D02*
X1720458D01*
X1717919D01*
Y811084D01*
X1715380D01*
X1720458D01*
X1728076Y826319D02*
Y811084D01*
X1735693D01*
X1738232Y813623D01*
Y823780D01*
X1735693Y826319D01*
X1728076D01*
X1753468D02*
X1743311D01*
Y811084D01*
X1753468D01*
X1743311Y818701D02*
X1748389D01*
X1768703Y823780D02*
X1766163Y826319D01*
X1761085D01*
X1758546Y823780D01*
Y821241D01*
X1761085Y818701D01*
X1766163D01*
X1768703Y816162D01*
Y813623D01*
X1766163Y811084D01*
X1761085D01*
X1758546Y813623D01*
X1799173Y823780D02*
X1796633Y826319D01*
X1791555D01*
X1789016Y823780D01*
Y813623D01*
X1791555Y811084D01*
X1796633D01*
X1799173Y813623D01*
X1811869Y826319D02*
X1806790D01*
X1804251Y823780D01*
Y813623D01*
X1806790Y811084D01*
X1811869D01*
X1814408Y813623D01*
Y823780D01*
X1811869Y826319D01*
X1819486D02*
Y811084D01*
X1829643D01*
X1842339Y826319D02*
X1837260D01*
X1834721Y823780D01*
Y813623D01*
X1837260Y811084D01*
X1842339D01*
X1844878Y813623D01*
Y823780D01*
X1842339Y826319D01*
X1849956D02*
Y813623D01*
X1852496Y811084D01*
X1857574D01*
X1860113Y813623D01*
Y826319D01*
X1865191Y811084D02*
Y826319D01*
X1872809D01*
X1875348Y823780D01*
Y818701D01*
X1872809Y816162D01*
X1865191D01*
X1870270D02*
X1875348Y811084D01*
X1895661Y818701D02*
X1905818D01*
X1926132Y826319D02*
Y811084D01*
X1933749D01*
X1936288Y813623D01*
Y816162D01*
X1933749Y818701D01*
X1926132D01*
X1933749D01*
X1936288Y821241D01*
Y823780D01*
X1933749Y826319D01*
X1926132D01*
X1941367D02*
Y811084D01*
X1951523D01*
X1956602Y826319D02*
Y813623D01*
X1959141Y811084D01*
X1964219D01*
X1966759Y813623D01*
Y826319D01*
X1981994D02*
X1971837D01*
Y811084D01*
X1981994D01*
X1971837Y818701D02*
X1976915D01*
X1270240Y643702D02*
X1280397D01*
X1300710Y648780D02*
X1303249Y651319D01*
X1308328D01*
X1310867Y648780D01*
Y646241D01*
X1308328Y643702D01*
X1305789D01*
X1308328D01*
X1310867Y641162D01*
Y638623D01*
X1308328Y636084D01*
X1303249D01*
X1300710Y638623D01*
X1341337Y651319D02*
X1331180D01*
Y643702D01*
X1336259D01*
X1331180D01*
Y636084D01*
X1346415Y651319D02*
X1351494D01*
X1348954D01*
Y636084D01*
X1346415D01*
X1351494D01*
X1359111Y651319D02*
Y636084D01*
X1366729D01*
X1369268Y638623D01*
Y648780D01*
X1366729Y651319D01*
X1359111D01*
X1374346D02*
Y638623D01*
X1376886Y636084D01*
X1381964D01*
X1384503Y638623D01*
Y651319D01*
X1399738Y648780D02*
X1397199Y651319D01*
X1392121D01*
X1389581Y648780D01*
Y638623D01*
X1392121Y636084D01*
X1397199D01*
X1399738Y638623D01*
X1404816Y651319D02*
X1409895D01*
X1407356D01*
Y636084D01*
X1404816D01*
X1409895D01*
X1417512D02*
Y646241D01*
X1422591Y651319D01*
X1427669Y646241D01*
Y636084D01*
Y643702D01*
X1417512D01*
X1432747Y651319D02*
Y636084D01*
X1442904D01*
X1458139Y648780D02*
X1455600Y651319D01*
X1450522D01*
X1447982Y648780D01*
Y646241D01*
X1450522Y643702D01*
X1455600D01*
X1458139Y641162D01*
Y638623D01*
X1455600Y636084D01*
X1450522D01*
X1447982Y638623D01*
X1488609Y648780D02*
X1486070Y651319D01*
X1480992D01*
X1478453Y648780D01*
Y646241D01*
X1480992Y643702D01*
X1486070D01*
X1488609Y641162D01*
Y638623D01*
X1486070Y636084D01*
X1480992D01*
X1478453Y638623D01*
X1493688Y651319D02*
Y636084D01*
Y643702D01*
X1503844D01*
Y651319D01*
Y636084D01*
X1516540Y651319D02*
X1511462D01*
X1508923Y648780D01*
Y638623D01*
X1511462Y636084D01*
X1516540D01*
X1519079Y638623D01*
Y648780D01*
X1516540Y651319D01*
X1524158D02*
Y638623D01*
X1526697Y636084D01*
X1531775D01*
X1534315Y638623D01*
Y651319D01*
X1539393D02*
Y636084D01*
X1549550D01*
X1554628Y651319D02*
Y636084D01*
X1562245D01*
X1564785Y638623D01*
Y648780D01*
X1562245Y651319D01*
X1554628D01*
X1585098D02*
Y636084D01*
X1595255D01*
X1600333Y651319D02*
X1605412D01*
X1602872D01*
Y636084D01*
X1600333D01*
X1605412D01*
X1623186Y651319D02*
X1613029D01*
Y636084D01*
X1623186D01*
X1613029Y643702D02*
X1618107D01*
X1651117Y651319D02*
X1646038D01*
X1643499Y648780D01*
Y638623D01*
X1646038Y636084D01*
X1651117D01*
X1653656Y638623D01*
Y648780D01*
X1651117Y651319D01*
X1658734Y636084D02*
Y651319D01*
X1668891Y636084D01*
Y651319D01*
X1689204D02*
X1699361D01*
X1694283D01*
Y636084D01*
X1704440Y651319D02*
Y636084D01*
X1709518Y641162D01*
X1714596Y636084D01*
Y651319D01*
X1727292D02*
X1722214D01*
X1719675Y648780D01*
Y638623D01*
X1722214Y636084D01*
X1727292D01*
X1729831Y638623D01*
Y648780D01*
X1727292Y651319D01*
X1750145D02*
Y636084D01*
X1760302D01*
X1765380Y651319D02*
X1770458D01*
X1767919D01*
Y636084D01*
X1765380D01*
X1770458D01*
X1778076D02*
Y651319D01*
X1788232Y636084D01*
Y651319D01*
X1803468D02*
X1793311D01*
Y636084D01*
X1803468D01*
X1793311Y643702D02*
X1798389D01*
X1818703Y648780D02*
X1816163Y651319D01*
X1811085D01*
X1808546Y648780D01*
Y646241D01*
X1811085Y643702D01*
X1816163D01*
X1818703Y641162D01*
Y638623D01*
X1816163Y636084D01*
X1811085D01*
X1808546Y638623D01*
X1839016Y651319D02*
X1849173D01*
X1844094D01*
Y636084D01*
X1854251Y651319D02*
Y636084D01*
Y643702D01*
X1864408D01*
Y651319D01*
Y636084D01*
X1869486D02*
Y646241D01*
X1874565Y651319D01*
X1879643Y646241D01*
Y636084D01*
Y643702D01*
X1869486D01*
X1884721Y651319D02*
X1894878D01*
X1889799D01*
Y636084D01*
X1915191Y651319D02*
X1920270D01*
X1917731D01*
Y636084D01*
X1915191D01*
X1920270D01*
X1927887D02*
Y651319D01*
X1938044Y636084D01*
Y651319D01*
X1943122D02*
X1953279D01*
X1948201D01*
Y636084D01*
X1968514Y651319D02*
X1958357D01*
Y636084D01*
X1968514D01*
X1958357Y643702D02*
X1963436D01*
X1973592Y636084D02*
Y651319D01*
X1981210D01*
X1983749Y648780D01*
Y643702D01*
X1981210Y641162D01*
X1973592D01*
X1978671D02*
X1983749Y636084D01*
X1998984Y648780D02*
X1996445Y651319D01*
X1991367D01*
X1988828Y648780D01*
Y646241D01*
X1991367Y643702D01*
X1996445D01*
X1998984Y641162D01*
Y638623D01*
X1996445Y636084D01*
X1991367D01*
X1988828Y638623D01*
X2014219Y651319D02*
X2004063D01*
Y636084D01*
X2014219D01*
X2004063Y643702D02*
X2009141D01*
X2029454Y648780D02*
X2026915Y651319D01*
X2021837D01*
X2019298Y648780D01*
Y638623D01*
X2021837Y636084D01*
X2026915D01*
X2029454Y638623D01*
X2034533Y651319D02*
X2044689D01*
X2039611D01*
Y636084D01*
X2065003D02*
Y646241D01*
X2070081Y651319D01*
X2075160Y646241D01*
Y636084D01*
Y643702D01*
X2065003D01*
X2080238Y651319D02*
X2090395D01*
X2085316D01*
Y636084D01*
X2110708D02*
Y646241D01*
X2115786Y651319D01*
X2120865Y646241D01*
Y636084D01*
Y643702D01*
X2110708D01*
X2141178Y636084D02*
Y651319D01*
X2148796D01*
X2151335Y648780D01*
Y643702D01*
X2148796Y641162D01*
X2141178D01*
X2146257D02*
X2151335Y636084D01*
X2156413Y651319D02*
X2161492D01*
X2158952D01*
Y636084D01*
X2156413D01*
X2161492D01*
X2179266Y648780D02*
X2176727Y651319D01*
X2171648D01*
X2169109Y648780D01*
Y638623D01*
X2171648Y636084D01*
X2176727D01*
X2179266Y638623D01*
Y643702D01*
X2174187D01*
X2184344Y651319D02*
Y636084D01*
Y643702D01*
X2194501D01*
Y651319D01*
Y636084D01*
X2199579Y651319D02*
X2209736D01*
X2204658D01*
Y636084D01*
X2230049D02*
Y646241D01*
X2235128Y651319D01*
X2240206Y646241D01*
Y636084D01*
Y643702D01*
X2230049D01*
X2245285Y636084D02*
Y651319D01*
X2255441Y636084D01*
Y651319D01*
X2270676Y648780D02*
X2268137Y651319D01*
X2263059D01*
X2260520Y648780D01*
Y638623D01*
X2263059Y636084D01*
X2268137D01*
X2270676Y638623D01*
Y643702D01*
X2265598D01*
X2275755Y651319D02*
Y636084D01*
X2285911D01*
X2301147Y651319D02*
X2290990D01*
Y636084D01*
X2301147D01*
X2290990Y643702D02*
X2296068D01*
X1270240Y618702D02*
X1280397D01*
X1300710Y611084D02*
Y626319D01*
X1308328D01*
X1310867Y623780D01*
Y618702D01*
X1308328Y616162D01*
X1300710D01*
X1315945Y626319D02*
Y611084D01*
X1326102D01*
X1331180D02*
Y621241D01*
X1336259Y626319D01*
X1341337Y621241D01*
Y611084D01*
Y618702D01*
X1331180D01*
X1356572Y623780D02*
X1354033Y626319D01*
X1348954D01*
X1346415Y623780D01*
Y613623D01*
X1348954Y611084D01*
X1354033D01*
X1356572Y613623D01*
X1371807Y626319D02*
X1361650D01*
Y611084D01*
X1371807D01*
X1361650Y618702D02*
X1366729D01*
X1399738Y626319D02*
X1394660D01*
X1392121Y623780D01*
Y613623D01*
X1394660Y611084D01*
X1399738D01*
X1402277Y613623D01*
Y623780D01*
X1399738Y626319D01*
X1407356Y611084D02*
Y626319D01*
X1417512Y611084D01*
Y626319D01*
X1432747D02*
X1422591D01*
Y611084D01*
X1432747D01*
X1422591Y618702D02*
X1427669D01*
X1463218Y626319D02*
X1453061D01*
Y618702D01*
X1458139D01*
X1453061D01*
Y611084D01*
X1468296Y626319D02*
X1473374D01*
X1470835D01*
Y611084D01*
X1468296D01*
X1473374D01*
X1480992Y626319D02*
Y611084D01*
X1488609D01*
X1491149Y613623D01*
Y623780D01*
X1488609Y626319D01*
X1480992D01*
X1496227D02*
Y613623D01*
X1498766Y611084D01*
X1503844D01*
X1506384Y613623D01*
Y626319D01*
X1521619Y623780D02*
X1519079Y626319D01*
X1514001D01*
X1511462Y623780D01*
Y613623D01*
X1514001Y611084D01*
X1519079D01*
X1521619Y613623D01*
X1526697Y626319D02*
X1531775D01*
X1529236D01*
Y611084D01*
X1526697D01*
X1531775D01*
X1539393D02*
Y621241D01*
X1544471Y626319D01*
X1549550Y621241D01*
Y611084D01*
Y618702D01*
X1539393D01*
X1554628Y626319D02*
Y611084D01*
X1564785D01*
X1585098Y626319D02*
X1590177D01*
X1587637D01*
Y611084D01*
X1585098D01*
X1590177D01*
X1597794D02*
Y626319D01*
X1607951Y611084D01*
Y626319D01*
X1613029D02*
X1623186D01*
X1618107D01*
Y611084D01*
X1635882Y626319D02*
X1630803D01*
X1628264Y623780D01*
Y613623D01*
X1630803Y611084D01*
X1635882D01*
X1638421Y613623D01*
Y623780D01*
X1635882Y626319D01*
X1668891D02*
X1658734D01*
Y611084D01*
X1668891D01*
X1658734Y618702D02*
X1663813D01*
X1673969Y611084D02*
Y621241D01*
X1679048Y626319D01*
X1684126Y621241D01*
Y611084D01*
Y618702D01*
X1673969D01*
X1699361Y623780D02*
X1696822Y626319D01*
X1691744D01*
X1689204Y623780D01*
Y613623D01*
X1691744Y611084D01*
X1696822D01*
X1699361Y613623D01*
X1704440Y626319D02*
Y611084D01*
Y618702D01*
X1714596D01*
Y626319D01*
Y611084D01*
X1734910D02*
Y626319D01*
X1742527D01*
X1745066Y623780D01*
Y618702D01*
X1742527Y616162D01*
X1734910D01*
X1750145Y611084D02*
Y621241D01*
X1755223Y626319D01*
X1760302Y621241D01*
Y611084D01*
Y618702D01*
X1750145D01*
X1765380Y611084D02*
Y626319D01*
X1775536Y611084D01*
Y626319D01*
X1790772D02*
X1780615D01*
Y611084D01*
X1790772D01*
X1780615Y618702D02*
X1785693D01*
X1795850Y626319D02*
Y611084D01*
X1806007D01*
X1836477Y623780D02*
X1833938Y626319D01*
X1828859D01*
X1826320Y623780D01*
Y613623D01*
X1828859Y611084D01*
X1833938D01*
X1836477Y613623D01*
X1849173Y626319D02*
X1844094D01*
X1841555Y623780D01*
Y613623D01*
X1844094Y611084D01*
X1849173D01*
X1851712Y613623D01*
Y623780D01*
X1849173Y626319D01*
X1856790Y611084D02*
Y626319D01*
X1864408D01*
X1866947Y623780D01*
Y618702D01*
X1864408Y616162D01*
X1856790D01*
X1861869D02*
X1866947Y611084D01*
X1872025D02*
Y626319D01*
X1882182Y611084D01*
Y626319D01*
X1897417D02*
X1887260D01*
Y611084D01*
X1897417D01*
X1887260Y618702D02*
X1892339D01*
X1902496Y611084D02*
Y626319D01*
X1910113D01*
X1912652Y623780D01*
Y618702D01*
X1910113Y616162D01*
X1902496D01*
X1907574D02*
X1912652Y611084D01*
X1938044D02*
X1932966Y616162D01*
Y621241D01*
X1938044Y626319D01*
X1955818D02*
X1945661D01*
Y618702D01*
X1950740D01*
X1945661D01*
Y611084D01*
X1968514Y626319D02*
X1963436D01*
X1960897Y623780D01*
Y613623D01*
X1963436Y611084D01*
X1968514D01*
X1971053Y613623D01*
Y623780D01*
X1968514Y626319D01*
X1976132D02*
Y613623D01*
X1978671Y611084D01*
X1983749D01*
X1986288Y613623D01*
Y626319D01*
X1991367Y611084D02*
Y626319D01*
X1998984D01*
X2001523Y623780D01*
Y618702D01*
X1998984Y616162D01*
X1991367D01*
X1996445D02*
X2001523Y611084D01*
X2029454Y626319D02*
X2024376D01*
X2021837Y623780D01*
Y613623D01*
X2024376Y611084D01*
X2029454D01*
X2031994Y613623D01*
Y623780D01*
X2029454Y626319D01*
X2037072Y611084D02*
Y626319D01*
X2047229Y611084D01*
Y626319D01*
X2067542D02*
X2077699D01*
X2072620D01*
Y611084D01*
X2082777Y626319D02*
Y611084D01*
Y618702D01*
X2092934D01*
Y626319D01*
Y611084D01*
X2108169Y626319D02*
X2098012D01*
Y611084D01*
X2108169D01*
X2098012Y618702D02*
X2103091D01*
X2128482Y626319D02*
X2138639D01*
X2133561D01*
Y611084D01*
X2151335Y626319D02*
X2146257D01*
X2143717Y623780D01*
Y613623D01*
X2146257Y611084D01*
X2151335D01*
X2153874Y613623D01*
Y623780D01*
X2151335Y626319D01*
X2158952Y611084D02*
Y626319D01*
X2166570D01*
X2169109Y623780D01*
Y618702D01*
X2166570Y616162D01*
X2158952D01*
X2189423Y626319D02*
Y611084D01*
X2199579D01*
X2204658D02*
Y621241D01*
X2209736Y626319D01*
X2214814Y621241D01*
Y611084D01*
Y618702D01*
X2204658D01*
X2219893Y626319D02*
Y623780D01*
X2224971Y618702D01*
X2230049Y623780D01*
Y626319D01*
X2224971Y618702D02*
Y611084D01*
X2245285Y626319D02*
X2235128D01*
Y611084D01*
X2245285D01*
X2235128Y618702D02*
X2240206D01*
X2250363Y611084D02*
Y626319D01*
X2257980D01*
X2260520Y623780D01*
Y618702D01*
X2257980Y616162D01*
X2250363D01*
X2255441D02*
X2260520Y611084D01*
X2265598D02*
X2270676Y616162D01*
Y621241D01*
X2265598Y626319D01*
X145240Y1023780D02*
X155397Y1013623D01*
X145240D02*
X155397Y1023780D01*
X145240Y1018701D02*
X155397D01*
X150318Y1013623D02*
Y1023780D01*
X160475Y1011084D02*
Y1013623D01*
X163014D01*
Y1011084D01*
X160475D01*
X183328Y1023780D02*
X180788Y1026319D01*
X175710D01*
X173171Y1023780D01*
Y1013623D01*
X175710Y1011084D01*
X180788D01*
X183328Y1013623D01*
Y1018701D01*
X178249D01*
X188406Y1026319D02*
X198563D01*
X193484D01*
Y1011084D01*
X211259Y1026319D02*
X206180D01*
X203641Y1023780D01*
Y1013623D01*
X206180Y1011084D01*
X211259D01*
X213798Y1013623D01*
Y1023780D01*
X211259Y1026319D01*
X234111Y1018701D02*
X244268D01*
X264581Y1026319D02*
X274738D01*
X269660D01*
Y1011084D01*
X282356D02*
X287434D01*
X289973Y1013623D01*
Y1018701D01*
X287434Y1021241D01*
X282356D01*
X279816Y1018701D01*
Y1013623D01*
X282356Y1011084D01*
X295051Y1006006D02*
Y1021241D01*
X302669D01*
X305208Y1018701D01*
Y1013623D01*
X302669Y1011084D01*
X295051D01*
X333139Y1026319D02*
X328061D01*
X325522Y1023780D01*
Y1013623D01*
X328061Y1011084D01*
X333139D01*
X335678Y1013623D01*
Y1023780D01*
X333139Y1026319D01*
X340757Y1021241D02*
X345835Y1011084D01*
X350914Y1021241D01*
X363609Y1011084D02*
X358531D01*
X355992Y1013623D01*
Y1018701D01*
X358531Y1021241D01*
X363609D01*
X366148Y1018701D01*
Y1016162D01*
X355992D01*
X371227Y1021241D02*
Y1011084D01*
Y1016162D01*
X373766Y1018701D01*
X376305Y1021241D01*
X378844D01*
X386462Y1011084D02*
X391540D01*
X389001D01*
Y1026319D01*
X386462D01*
X401697Y1021241D02*
X406775D01*
X409315Y1018701D01*
Y1011084D01*
X401697D01*
X399158Y1013623D01*
X401697Y1016162D01*
X409315D01*
X414393Y1021241D02*
Y1013623D01*
X416932Y1011084D01*
X424550D01*
Y1008545D01*
X422010Y1006006D01*
X419471D01*
X424550Y1011084D02*
Y1021241D01*
X145240Y973780D02*
X155397Y963623D01*
X145240D02*
X155397Y973780D01*
X145240Y968701D02*
X155397D01*
X150318Y963623D02*
Y973780D01*
X160475Y961084D02*
Y963623D01*
X163014D01*
Y961084D01*
X160475D01*
X183328Y973780D02*
X180788Y976319D01*
X175710D01*
X173171Y973780D01*
Y963623D01*
X175710Y961084D01*
X180788D01*
X183328Y963623D01*
Y968701D01*
X178249D01*
X188406Y976319D02*
X198563D01*
X193484D01*
Y961084D01*
X213798Y973780D02*
X211259Y976319D01*
X206180D01*
X203641Y973780D01*
Y971241D01*
X206180Y968701D01*
X211259D01*
X213798Y966162D01*
Y963623D01*
X211259Y961084D01*
X206180D01*
X203641Y963623D01*
X234111Y968701D02*
X244268D01*
X264581Y976319D02*
X274738D01*
X269660D01*
Y961084D01*
X282356D02*
X287434D01*
X289973Y963623D01*
Y968701D01*
X287434Y971241D01*
X282356D01*
X279816Y968701D01*
Y963623D01*
X282356Y961084D01*
X295051Y956006D02*
Y971241D01*
X302669D01*
X305208Y968701D01*
Y963623D01*
X302669Y961084D01*
X295051D01*
X335678Y973780D02*
X333139Y976319D01*
X328061D01*
X325522Y973780D01*
Y971241D01*
X328061Y968701D01*
X333139D01*
X335678Y966162D01*
Y963623D01*
X333139Y961084D01*
X328061D01*
X325522Y963623D01*
X343296Y961084D02*
X348374D01*
X350914Y963623D01*
Y968701D01*
X348374Y971241D01*
X343296D01*
X340757Y968701D01*
Y963623D01*
X343296Y961084D01*
X355992D02*
X361070D01*
X358531D01*
Y976319D01*
X355992D01*
X378844D02*
Y961084D01*
X371227D01*
X368688Y963623D01*
Y968701D01*
X371227Y971241D01*
X378844D01*
X391540Y961084D02*
X386462D01*
X383923Y963623D01*
Y968701D01*
X386462Y971241D01*
X391540D01*
X394080Y968701D01*
Y966162D01*
X383923D01*
X399158Y971241D02*
Y961084D01*
Y966162D01*
X401697Y968701D01*
X404236Y971241D01*
X406775D01*
X145240Y948780D02*
X155397Y938623D01*
X145240D02*
X155397Y948780D01*
X145240Y943701D02*
X155397D01*
X150318Y938623D02*
Y948780D01*
X160475Y936084D02*
Y938623D01*
X163014D01*
Y936084D01*
X160475D01*
X183328Y948780D02*
X180788Y951319D01*
X175710D01*
X173171Y948780D01*
Y938623D01*
X175710Y936084D01*
X180788D01*
X183328Y938623D01*
Y943701D01*
X178249D01*
X188406Y951319D02*
X198563D01*
X193484D01*
Y936084D01*
X203641Y951319D02*
Y936084D01*
X213798D01*
X234111Y943701D02*
X244268D01*
X264581Y951319D02*
Y936084D01*
X274738D01*
X279816D02*
X284895D01*
X282356D01*
Y951319D01*
X279816Y948780D01*
X312826Y936084D02*
X307747Y941162D01*
Y946241D01*
X312826Y951319D01*
X320443Y936084D02*
Y951319D01*
X328061D01*
X330600Y948780D01*
Y943701D01*
X328061Y941162D01*
X320443D01*
X338218Y936084D02*
X343296D01*
X345835Y938623D01*
Y943701D01*
X343296Y946241D01*
X338218D01*
X335678Y943701D01*
Y938623D01*
X338218Y936084D01*
X350913D02*
X358531D01*
X361070Y938623D01*
X358531Y941162D01*
X353453D01*
X350913Y943701D01*
X353453Y946241D01*
X361070D01*
X366148Y936084D02*
X371227D01*
X368688D01*
Y946241D01*
X366148D01*
X381384Y948780D02*
Y946241D01*
X378844D01*
X383923D01*
X381384D01*
Y938623D01*
X383923Y936084D01*
X391540D02*
X396619D01*
X394080D01*
Y946241D01*
X391540D01*
X404236D02*
X409314Y936084D01*
X414393Y946241D01*
X427089Y936084D02*
X422010D01*
X419471Y938623D01*
Y943701D01*
X422010Y946241D01*
X427089D01*
X429628Y943701D01*
Y941162D01*
X419471D01*
X434706Y936084D02*
X439785Y941162D01*
Y946241D01*
X434706Y951319D01*
X145240Y898780D02*
X155397Y888623D01*
X145240D02*
X155397Y898780D01*
X145240Y893701D02*
X155397D01*
X150318Y888623D02*
Y898780D01*
X160475Y886084D02*
Y888623D01*
X163014D01*
Y886084D01*
X160475D01*
X183328Y898780D02*
X180788Y901319D01*
X175710D01*
X173171Y898780D01*
Y888623D01*
X175710Y886084D01*
X180788D01*
X183328Y888623D01*
Y893701D01*
X178249D01*
X188406Y901319D02*
Y886084D01*
X196024D01*
X198563Y888623D01*
Y891162D01*
X196024Y893701D01*
X188406D01*
X196024D01*
X198563Y896241D01*
Y898780D01*
X196024Y901319D01*
X188406D01*
X213798Y898780D02*
X211259Y901319D01*
X206180D01*
X203641Y898780D01*
Y896241D01*
X206180Y893701D01*
X211259D01*
X213798Y891162D01*
Y888623D01*
X211259Y886084D01*
X206180D01*
X203641Y888623D01*
X234111Y893701D02*
X244268D01*
X264581Y901319D02*
Y886084D01*
X272199D01*
X274738Y888623D01*
Y891162D01*
X272199Y893701D01*
X264581D01*
X272199D01*
X274738Y896241D01*
Y898780D01*
X272199Y901319D01*
X264581D01*
X282356Y886084D02*
X287434D01*
X289973Y888623D01*
Y893701D01*
X287434Y896241D01*
X282356D01*
X279816Y893701D01*
Y888623D01*
X282356Y886084D01*
X297591Y898780D02*
Y896241D01*
X295051D01*
X300130D01*
X297591D01*
Y888623D01*
X300130Y886084D01*
X310287Y898780D02*
Y896241D01*
X307747D01*
X312826D01*
X310287D01*
Y888623D01*
X312826Y886084D01*
X322982D02*
X328061D01*
X330600Y888623D01*
Y893701D01*
X328061Y896241D01*
X322982D01*
X320443Y893701D01*
Y888623D01*
X322982Y886084D01*
X335678D02*
Y896241D01*
X338218D01*
X340757Y893701D01*
Y886084D01*
Y893701D01*
X343296Y896241D01*
X345835Y893701D01*
Y886084D01*
X376305Y898780D02*
X373766Y901319D01*
X368688D01*
X366148Y898780D01*
Y896241D01*
X368688Y893701D01*
X373766D01*
X376305Y891162D01*
Y888623D01*
X373766Y886084D01*
X368688D01*
X366148Y888623D01*
X383923Y886084D02*
X389001D01*
X391540Y888623D01*
Y893701D01*
X389001Y896241D01*
X383923D01*
X381384Y893701D01*
Y888623D01*
X383923Y886084D01*
X396619D02*
X401697D01*
X399158D01*
Y901319D01*
X396619D01*
X419471D02*
Y886084D01*
X411854D01*
X409314Y888623D01*
Y893701D01*
X411854Y896241D01*
X419471D01*
X432167Y886084D02*
X427089D01*
X424550Y888623D01*
Y893701D01*
X427089Y896241D01*
X432167D01*
X434706Y893701D01*
Y891162D01*
X424550D01*
X439785Y896241D02*
Y886084D01*
Y891162D01*
X442324Y893701D01*
X444863Y896241D01*
X447402D01*
X145240Y873780D02*
X155397Y863623D01*
X145240D02*
X155397Y873780D01*
X145240Y868701D02*
X155397D01*
X150318Y863623D02*
Y873780D01*
X160475Y861084D02*
Y863623D01*
X163014D01*
Y861084D01*
X160475D01*
X183328Y873780D02*
X180788Y876319D01*
X175710D01*
X173171Y873780D01*
Y863623D01*
X175710Y861084D01*
X180788D01*
X183328Y863623D01*
Y868701D01*
X178249D01*
X188406Y876319D02*
Y861084D01*
X196024D01*
X198563Y863623D01*
Y866162D01*
X196024Y868701D01*
X188406D01*
X196024D01*
X198563Y871241D01*
Y873780D01*
X196024Y876319D01*
X188406D01*
X211259D02*
X206180D01*
X203641Y873780D01*
Y863623D01*
X206180Y861084D01*
X211259D01*
X213798Y863623D01*
Y873780D01*
X211259Y876319D01*
X234111Y868701D02*
X244268D01*
X264581Y876319D02*
Y861084D01*
X272199D01*
X274738Y863623D01*
Y866162D01*
X272199Y868701D01*
X264581D01*
X272199D01*
X274738Y871241D01*
Y873780D01*
X272199Y876319D01*
X264581D01*
X282356Y861084D02*
X287434D01*
X289973Y863623D01*
Y868701D01*
X287434Y871241D01*
X282356D01*
X279816Y868701D01*
Y863623D01*
X282356Y861084D01*
X297591Y873780D02*
Y871241D01*
X295051D01*
X300130D01*
X297591D01*
Y863623D01*
X300130Y861084D01*
X310287Y873780D02*
Y871241D01*
X307747D01*
X312826D01*
X310287D01*
Y863623D01*
X312826Y861084D01*
X322982D02*
X328061D01*
X330600Y863623D01*
Y868701D01*
X328061Y871241D01*
X322982D01*
X320443Y868701D01*
Y863623D01*
X322982Y861084D01*
X335678D02*
Y871241D01*
X338218D01*
X340757Y868701D01*
Y861084D01*
Y868701D01*
X343296Y871241D01*
X345835Y868701D01*
Y861084D01*
X373766Y876319D02*
X368688D01*
X366148Y873780D01*
Y863623D01*
X368688Y861084D01*
X373766D01*
X376305Y863623D01*
Y873780D01*
X373766Y876319D01*
X381384Y871241D02*
X386462Y861084D01*
X391540Y871241D01*
X404236Y861084D02*
X399158D01*
X396619Y863623D01*
Y868701D01*
X399158Y871241D01*
X404236D01*
X406775Y868701D01*
Y866162D01*
X396619D01*
X411854Y871241D02*
Y861084D01*
Y866162D01*
X414393Y868701D01*
X416932Y871241D01*
X419471D01*
X427089Y861084D02*
X432167D01*
X429628D01*
Y876319D01*
X427089D01*
X442324Y871241D02*
X447402D01*
X449941Y868701D01*
Y861084D01*
X442324D01*
X439785Y863623D01*
X442324Y866162D01*
X449941D01*
X455020Y871241D02*
Y863623D01*
X457559Y861084D01*
X465177D01*
Y858545D01*
X462637Y856006D01*
X460098D01*
X465177Y861084D02*
Y871241D01*
X145240Y773780D02*
X155397Y763623D01*
X145240D02*
X155397Y773780D01*
X145240Y768701D02*
X155397D01*
X150318Y763623D02*
Y773780D01*
X160475Y761084D02*
Y763623D01*
X163014D01*
Y761084D01*
X160475D01*
X183328Y773780D02*
X180788Y776319D01*
X175710D01*
X173171Y773780D01*
Y763623D01*
X175710Y761084D01*
X180788D01*
X183328Y763623D01*
Y768701D01*
X178249D01*
X188406Y761084D02*
Y776319D01*
X193484Y771241D01*
X198563Y776319D01*
Y761084D01*
X213798D02*
X203641D01*
X213798Y771241D01*
Y773780D01*
X211259Y776319D01*
X206180D01*
X203641Y773780D01*
X218876D02*
X221415Y776319D01*
X226494D01*
X229033Y773780D01*
Y771241D01*
X226494Y768701D01*
X229033Y766162D01*
Y763623D01*
X226494Y761084D01*
X221415D01*
X218876Y763623D01*
Y766162D01*
X221415Y768701D01*
X218876Y771241D01*
Y773780D01*
X221415Y768701D02*
X226494D01*
X249346D02*
X259503D01*
X279816Y776319D02*
Y761084D01*
X287434D01*
X289973Y763623D01*
Y766162D01*
X287434Y768701D01*
X279816D01*
X287434D01*
X289973Y771241D01*
Y773780D01*
X287434Y776319D01*
X279816D01*
X297591Y761084D02*
X302669D01*
X305208Y763623D01*
Y768701D01*
X302669Y771241D01*
X297591D01*
X295051Y768701D01*
Y763623D01*
X297591Y761084D01*
X312826Y771241D02*
X317904D01*
X320443Y768701D01*
Y761084D01*
X312826D01*
X310287Y763623D01*
X312826Y766162D01*
X320443D01*
X325522Y771241D02*
Y761084D01*
Y766162D01*
X328061Y768701D01*
X330600Y771241D01*
X333139D01*
X350914Y776319D02*
Y761084D01*
X343296D01*
X340757Y763623D01*
Y768701D01*
X343296Y771241D01*
X350914D01*
X378844Y776319D02*
X373766D01*
X371227Y773780D01*
Y763623D01*
X373766Y761084D01*
X378844D01*
X381384Y763623D01*
Y773780D01*
X378844Y776319D01*
X386462Y771241D02*
Y763623D01*
X389001Y761084D01*
X396619D01*
Y771241D01*
X404236Y773780D02*
Y771241D01*
X401697D01*
X406775D01*
X404236D01*
Y763623D01*
X406775Y761084D01*
X414393D02*
X419471D01*
X416932D01*
Y776319D01*
X414393D01*
X427089Y761084D02*
X432167D01*
X429628D01*
Y771241D01*
X427089D01*
X439785Y761084D02*
Y771241D01*
X447402D01*
X449941Y768701D01*
Y761084D01*
X462637D02*
X457559D01*
X455020Y763623D01*
Y768701D01*
X457559Y771241D01*
X462637D01*
X465177Y768701D01*
Y766162D01*
X455020D01*
X145240Y798780D02*
X155397Y788623D01*
X145240D02*
X155397Y798780D01*
X145240Y793701D02*
X155397D01*
X150318Y788623D02*
Y798780D01*
X160475Y786084D02*
Y788623D01*
X163014D01*
Y786084D01*
X160475D01*
X183328Y798780D02*
X180788Y801319D01*
X175710D01*
X173171Y798780D01*
Y788623D01*
X175710Y786084D01*
X180788D01*
X183328Y788623D01*
Y793701D01*
X178249D01*
X188406Y786084D02*
Y801319D01*
X193484Y796241D01*
X198563Y801319D01*
Y786084D01*
X211259D02*
Y801319D01*
X203641Y793701D01*
X213798D01*
X234111D02*
X244268D01*
X264581Y801319D02*
Y786084D01*
X274738D01*
X279816D02*
X284895D01*
X282356D01*
Y796241D01*
X279816D01*
X302669D02*
X295051D01*
X292512Y793701D01*
Y788623D01*
X295051Y786084D01*
X302669D01*
X315365D02*
X310287D01*
X307747Y788623D01*
Y793701D01*
X310287Y796241D01*
X315365D01*
X317904Y793701D01*
Y791162D01*
X307747D01*
X322982Y786084D02*
Y796241D01*
X330600D01*
X333139Y793701D01*
Y786084D01*
X348374Y796241D02*
X340757D01*
X338218Y793701D01*
Y788623D01*
X340757Y786084D01*
X348374D01*
X361070D02*
X355992D01*
X353453Y788623D01*
Y793701D01*
X355992Y796241D01*
X361070D01*
X363609Y793701D01*
Y791162D01*
X353453D01*
X145240Y823780D02*
X155397Y813623D01*
X145240D02*
X155397Y823780D01*
X145240Y818701D02*
X155397D01*
X150318Y813623D02*
Y823780D01*
X160475Y811084D02*
Y813623D01*
X163014D01*
Y811084D01*
X160475D01*
X183328Y823780D02*
X180788Y826319D01*
X175710D01*
X173171Y823780D01*
Y813623D01*
X175710Y811084D01*
X180788D01*
X183328Y813623D01*
Y818701D01*
X178249D01*
X188406Y811084D02*
Y826319D01*
X193484Y821241D01*
X198563Y826319D01*
Y811084D01*
X203641Y823780D02*
X206180Y826319D01*
X211259D01*
X213798Y823780D01*
Y821241D01*
X211259Y818701D01*
X208719D01*
X211259D01*
X213798Y816162D01*
Y813623D01*
X211259Y811084D01*
X206180D01*
X203641Y813623D01*
X234111Y818701D02*
X244268D01*
X264581Y811084D02*
Y826319D01*
X269660Y821241D01*
X274738Y826319D01*
Y811084D01*
X282356Y821241D02*
X287434D01*
X289973Y818701D01*
Y811084D01*
X282356D01*
X279816Y813623D01*
X282356Y816162D01*
X289973D01*
X295051Y811084D02*
Y821241D01*
X302669D01*
X305208Y818701D01*
Y811084D01*
X310287Y821241D02*
Y813623D01*
X312826Y811084D01*
X320443D01*
Y821241D01*
X328061Y811084D02*
Y823780D01*
Y818701D01*
X325522D01*
X330600D01*
X328061D01*
Y823780D01*
X330600Y826319D01*
X340757Y821241D02*
X345835D01*
X348374Y818701D01*
Y811084D01*
X340757D01*
X338218Y813623D01*
X340757Y816162D01*
X348374D01*
X363609Y821241D02*
X355992D01*
X353453Y818701D01*
Y813623D01*
X355992Y811084D01*
X363609D01*
X371227Y823780D02*
Y821241D01*
X368688D01*
X373766D01*
X371227D01*
Y813623D01*
X373766Y811084D01*
X381384Y821241D02*
Y813623D01*
X383923Y811084D01*
X391540D01*
Y821241D01*
X396619D02*
Y811084D01*
Y816162D01*
X399158Y818701D01*
X401697Y821241D01*
X404236D01*
X411854Y811084D02*
X416932D01*
X414393D01*
Y821241D01*
X411854D01*
X424550Y811084D02*
Y821241D01*
X432167D01*
X434706Y818701D01*
Y811084D01*
X444863Y806006D02*
X447402D01*
X449941Y808545D01*
Y821241D01*
X442324D01*
X439785Y818701D01*
Y813623D01*
X442324Y811084D01*
X449941D01*
X470255D02*
Y826319D01*
X480412Y811084D01*
Y826319D01*
X488029Y811084D02*
X493107D01*
X495647Y813623D01*
Y818701D01*
X493107Y821241D01*
X488029D01*
X485490Y818701D01*
Y813623D01*
X488029Y811084D01*
X503264Y823780D02*
Y821241D01*
X500725D01*
X505803D01*
X503264D01*
Y813623D01*
X505803Y811084D01*
X521038D02*
X515960D01*
X513421Y813623D01*
Y818701D01*
X515960Y821241D01*
X521038D01*
X523578Y818701D01*
Y816162D01*
X513421D01*
X528656Y811084D02*
X536273D01*
X538813Y813623D01*
X536273Y816162D01*
X531195D01*
X528656Y818701D01*
X531195Y821241D01*
X538813D01*
X61713Y-445524D02*
X59173Y-442985D01*
X54095D01*
X51556Y-445524D01*
Y-455681D01*
X54095Y-458220D01*
X59173D01*
X61713Y-455681D01*
X69330Y-458220D02*
X74409D01*
X76948Y-455681D01*
Y-450602D01*
X74409Y-448063D01*
X69330D01*
X66791Y-450602D01*
Y-455681D01*
X69330Y-458220D01*
X82026Y-463298D02*
Y-448063D01*
X89644D01*
X92183Y-450602D01*
Y-455681D01*
X89644Y-458220D01*
X82026D01*
X97261Y-448063D02*
Y-455681D01*
X99800Y-458220D01*
X107418D01*
Y-460759D01*
X104879Y-463298D01*
X102340D01*
X107418Y-458220D02*
Y-448063D01*
X112496D02*
Y-458220D01*
Y-453142D01*
X115035Y-450602D01*
X117575Y-448063D01*
X120114D01*
X127731Y-458220D02*
X132810D01*
X130271D01*
Y-448063D01*
X127731D01*
X145506Y-463298D02*
X148045D01*
X150584Y-460759D01*
Y-448063D01*
X142966D01*
X140427Y-450602D01*
Y-455681D01*
X142966Y-458220D01*
X150584D01*
X155662Y-442985D02*
Y-458220D01*
Y-450602D01*
X158202Y-448063D01*
X163280D01*
X165819Y-450602D01*
Y-458220D01*
X173437Y-445524D02*
Y-448063D01*
X170897D01*
X175976D01*
X173437D01*
Y-455681D01*
X175976Y-458220D01*
X208985D02*
X198828D01*
X208985Y-448063D01*
Y-445524D01*
X206446Y-442985D01*
X201367D01*
X198828Y-445524D01*
X214063D02*
X216603Y-442985D01*
X221681D01*
X224220Y-445524D01*
Y-455681D01*
X221681Y-458220D01*
X216603D01*
X214063Y-455681D01*
Y-445524D01*
X239455Y-458220D02*
X229298D01*
X239455Y-448063D01*
Y-445524D01*
X236916Y-442985D01*
X231838D01*
X229298Y-445524D01*
X244534D02*
X247073Y-442985D01*
X252151D01*
X254690Y-445524D01*
Y-455681D01*
X252151Y-458220D01*
X247073D01*
X244534Y-455681D01*
Y-445524D01*
X414528Y-441203D02*
Y-456438D01*
X422146D01*
X424685Y-453899D01*
Y-443742D01*
X422146Y-441203D01*
X414528D01*
X437381Y-456438D02*
X432302D01*
X429763Y-453899D01*
Y-448820D01*
X432302Y-446281D01*
X437381D01*
X439920Y-448820D01*
Y-451360D01*
X429763D01*
X444998Y-456438D02*
X452616D01*
X455155Y-453899D01*
X452616Y-451360D01*
X447537D01*
X444998Y-448820D01*
X447537Y-446281D01*
X455155D01*
X460233Y-456438D02*
X465312D01*
X462772D01*
Y-446281D01*
X460233D01*
X478008Y-461516D02*
X480547D01*
X483086Y-458977D01*
Y-446281D01*
X475468D01*
X472929Y-448820D01*
Y-453899D01*
X475468Y-456438D01*
X483086D01*
X488164D02*
Y-446281D01*
X495782D01*
X498321Y-448820D01*
Y-456438D01*
X511017D02*
X505938D01*
X503399Y-453899D01*
Y-448820D01*
X505938Y-446281D01*
X511017D01*
X513556Y-448820D01*
Y-451360D01*
X503399D01*
X528791Y-441203D02*
Y-456438D01*
X521174D01*
X518634Y-453899D01*
Y-448820D01*
X521174Y-446281D01*
X528791D01*
X549104Y-441203D02*
Y-456438D01*
X556722D01*
X559261Y-453899D01*
Y-451360D01*
Y-448820D01*
X556722Y-446281D01*
X549104D01*
X564339D02*
Y-453899D01*
X566879Y-456438D01*
X574496D01*
Y-458977D01*
X571957Y-461516D01*
X569418D01*
X574496Y-456438D02*
Y-446281D01*
X604966Y-441203D02*
X594810D01*
Y-456438D01*
X604966D01*
X594810Y-448820D02*
X599888D01*
X610045Y-456438D02*
Y-446281D01*
X617662D01*
X620201Y-448820D01*
Y-456438D01*
X630358Y-461516D02*
X632897D01*
X635437Y-458977D01*
Y-446281D01*
X627819D01*
X625280Y-448820D01*
Y-453899D01*
X627819Y-456438D01*
X635437D01*
X640515Y-446281D02*
Y-456438D01*
Y-451360D01*
X643054Y-448820D01*
X645593Y-446281D01*
X648132D01*
X655750Y-456438D02*
Y-453899D01*
X658289D01*
Y-456438D01*
X655750D01*
X683681D02*
Y-441203D01*
X688759Y-446281D01*
X693838Y-441203D01*
Y-456438D01*
X706534D02*
X701455D01*
X698916Y-453899D01*
Y-448820D01*
X701455Y-446281D01*
X706534D01*
X709073Y-448820D01*
Y-451360D01*
X698916D01*
X714151Y-441203D02*
Y-456438D01*
Y-448820D01*
X716690Y-446281D01*
X721769D01*
X724308Y-448820D01*
Y-456438D01*
X739543Y-441203D02*
Y-456438D01*
X731925D01*
X729386Y-453899D01*
Y-448820D01*
X731925Y-446281D01*
X739543D01*
X744621Y-456438D02*
X749700D01*
X747160D01*
Y-446281D01*
X744621D01*
X757317Y-458977D02*
X767474D01*
X772552Y-441203D02*
Y-456438D01*
Y-451360D01*
X782709Y-441203D01*
X775091Y-448820D01*
X782709Y-456438D01*
X787787Y-441203D02*
Y-456438D01*
Y-448820D01*
X790326Y-446281D01*
X795405D01*
X797944Y-448820D01*
Y-456438D01*
X805562Y-446281D02*
X810640D01*
X813179Y-448820D01*
Y-456438D01*
X805562D01*
X803022Y-453899D01*
X805562Y-451360D01*
X813179D01*
X818257Y-456438D02*
X823336D01*
X820797D01*
Y-441203D01*
X818257D01*
X833493Y-456438D02*
Y-443742D01*
Y-448820D01*
X830953D01*
X836032D01*
X833493D01*
Y-443742D01*
X836032Y-441203D01*
X846188Y-446281D02*
X851267D01*
X853806Y-448820D01*
Y-456438D01*
X846188D01*
X843649Y-453899D01*
X846188Y-451360D01*
X853806D01*
X858884Y-456438D02*
X863963D01*
X861423D01*
Y-441203D01*
X858884D01*
X871580Y-456438D02*
X876658D01*
X874119D01*
Y-441203D01*
X871580D01*
X886815Y-446281D02*
X891893D01*
X894433Y-448820D01*
Y-456438D01*
X886815D01*
X884276Y-453899D01*
X886815Y-451360D01*
X894433D01*
X899511Y-441203D02*
Y-456438D01*
Y-448820D01*
X902050Y-446281D01*
X907129D01*
X909668Y-448820D01*
Y-456438D01*
X61713Y-545524D02*
X59173Y-542985D01*
X54095D01*
X51556Y-545524D01*
Y-555681D01*
X54095Y-558220D01*
X59173D01*
X61713Y-555681D01*
X69330Y-558220D02*
X74409D01*
X76948Y-555681D01*
Y-550602D01*
X74409Y-548063D01*
X69330D01*
X66791Y-550602D01*
Y-555681D01*
X69330Y-558220D01*
X82026D02*
Y-548063D01*
X89644D01*
X92183Y-550602D01*
Y-558220D01*
X99800Y-545524D02*
Y-548063D01*
X97261D01*
X102340D01*
X99800D01*
Y-555681D01*
X102340Y-558220D01*
X112496Y-548063D02*
X117575D01*
X120114Y-550602D01*
Y-558220D01*
X112496D01*
X109957Y-555681D01*
X112496Y-553142D01*
X120114D01*
X135349Y-548063D02*
X127731D01*
X125192Y-550602D01*
Y-555681D01*
X127731Y-558220D01*
X135349D01*
X142966Y-545524D02*
Y-548063D01*
X140427D01*
X145506D01*
X142966D01*
Y-555681D01*
X145506Y-558220D01*
X153123Y-548063D02*
X155662D01*
Y-550602D01*
X153123D01*
Y-548063D01*
Y-555681D02*
X155662D01*
Y-558220D01*
X153123D01*
Y-555681D01*
X211713Y-548063D02*
X204095D01*
X201556Y-550602D01*
Y-555681D01*
X204095Y-558220D01*
X211713D01*
X219330D02*
X224409D01*
X226948Y-555681D01*
Y-550602D01*
X224409Y-548063D01*
X219330D01*
X216791Y-550602D01*
Y-555681D01*
X219330Y-558220D01*
X232026D02*
Y-548063D01*
X239644D01*
X242183Y-550602D01*
Y-558220D01*
X249800Y-545524D02*
Y-548063D01*
X247261D01*
X252340D01*
X249800D01*
Y-555681D01*
X252340Y-558220D01*
X262496Y-548063D02*
X267575D01*
X270114Y-550602D01*
Y-558220D01*
X262496D01*
X259957Y-555681D01*
X262496Y-553142D01*
X270114D01*
X285349Y-548063D02*
X277731D01*
X275192Y-550602D01*
Y-555681D01*
X277731Y-558220D01*
X285349D01*
X292966Y-545524D02*
Y-548063D01*
X290427D01*
X295506D01*
X292966D01*
Y-555681D01*
X295506Y-558220D01*
X303123D02*
Y-555681D01*
X305662D01*
Y-558220D01*
X303123D01*
X315819D02*
Y-548063D01*
X318358D01*
X320897Y-550602D01*
Y-558220D01*
Y-550602D01*
X323437Y-548063D01*
X325976Y-550602D01*
Y-558220D01*
X338672D02*
X333593D01*
X331054Y-555681D01*
Y-550602D01*
X333593Y-548063D01*
X338672D01*
X341211Y-550602D01*
Y-553142D01*
X331054D01*
X346289Y-542985D02*
Y-558220D01*
Y-550602D01*
X348828Y-548063D01*
X353907D01*
X356446Y-550602D01*
Y-558220D01*
X371681Y-542985D02*
Y-558220D01*
X364063D01*
X361524Y-555681D01*
Y-550602D01*
X364063Y-548063D01*
X371681D01*
X376759Y-558220D02*
X381838D01*
X379299D01*
Y-548063D01*
X376759D01*
X389455Y-558220D02*
Y-555681D01*
X391994D01*
Y-558220D01*
X389455D01*
X402151D02*
Y-542985D01*
Y-553142D02*
X409769Y-548063D01*
X402151Y-553142D02*
X409769Y-558220D01*
X417386Y-542985D02*
Y-558220D01*
Y-550602D01*
X419925Y-548063D01*
X425004D01*
X427543Y-550602D01*
Y-558220D01*
X435160Y-548063D02*
X440239D01*
X442778Y-550602D01*
Y-558220D01*
X435160D01*
X432621Y-555681D01*
X435160Y-553142D01*
X442778D01*
X447856Y-558220D02*
X452935D01*
X450396D01*
Y-542985D01*
X447856D01*
X463091Y-558220D02*
Y-545524D01*
Y-550602D01*
X460552D01*
X465630D01*
X463091D01*
Y-545524D01*
X465630Y-542985D01*
X475787Y-548063D02*
X480866D01*
X483405Y-550602D01*
Y-558220D01*
X475787D01*
X473248Y-555681D01*
X475787Y-553142D01*
X483405D01*
X488483Y-558220D02*
X493562D01*
X491022D01*
Y-542985D01*
X488483D01*
X501179Y-558220D02*
X506257D01*
X503718D01*
Y-542985D01*
X501179D01*
X516414Y-548063D02*
X521493D01*
X524032Y-550602D01*
Y-558220D01*
X516414D01*
X513875Y-555681D01*
X516414Y-553142D01*
X524032D01*
X529110Y-542985D02*
Y-558220D01*
Y-550602D01*
X531649Y-548063D01*
X536727D01*
X539267Y-550602D01*
Y-558220D01*
X551963Y-553142D02*
Y-550602D01*
X549423D01*
Y-553142D01*
X551963D01*
X554502Y-550602D01*
Y-545524D01*
X551963Y-542985D01*
X546884D01*
X544345Y-545524D01*
Y-555681D01*
X546884Y-558220D01*
X554502D01*
X564659Y-563298D02*
X567198D01*
X569737Y-560759D01*
Y-548063D01*
X562119D01*
X559580Y-550602D01*
Y-555681D01*
X562119Y-558220D01*
X569737D01*
X574815D02*
Y-548063D01*
X577354D01*
X579894Y-550602D01*
Y-558220D01*
Y-550602D01*
X582433Y-548063D01*
X584972Y-550602D01*
Y-558220D01*
X592589Y-548063D02*
X597668D01*
X600207Y-550602D01*
Y-558220D01*
X592589D01*
X590050Y-555681D01*
X592589Y-553142D01*
X600207D01*
X605285Y-558220D02*
X610364D01*
X607825D01*
Y-548063D01*
X605285D01*
X617981Y-558220D02*
X623060D01*
X620520D01*
Y-542985D01*
X617981D01*
X630677Y-558220D02*
Y-555681D01*
X633216D01*
Y-558220D01*
X630677D01*
X653530Y-548063D02*
X645912D01*
X643373Y-550602D01*
Y-555681D01*
X645912Y-558220D01*
X653530D01*
X661147D02*
X666226D01*
X668765Y-555681D01*
Y-550602D01*
X666226Y-548063D01*
X661147D01*
X658608Y-550602D01*
Y-555681D01*
X661147Y-558220D01*
X673843D02*
Y-548063D01*
X676382D01*
X678922Y-550602D01*
Y-558220D01*
Y-550602D01*
X681461Y-548063D01*
X684000Y-550602D01*
Y-558220D01*
X1220240Y986084D02*
Y1001319D01*
X1225318Y996241D01*
X1230397Y1001319D01*
Y986084D01*
X1235475D02*
X1240553D01*
X1238014D01*
Y996241D01*
X1235475D01*
X1248171Y986084D02*
Y996241D01*
X1255788D01*
X1258328Y993701D01*
Y986084D01*
X1263406D02*
X1268484D01*
X1265945D01*
Y996241D01*
X1263406D01*
X1276102Y986084D02*
Y996241D01*
X1278641D01*
X1281180Y993701D01*
Y986084D01*
Y993701D01*
X1283719Y996241D01*
X1286259Y993701D01*
Y986084D01*
X1291337Y996241D02*
Y988623D01*
X1293876Y986084D01*
X1301494D01*
Y996241D01*
X1306572Y986084D02*
Y996241D01*
X1309111D01*
X1311650Y993701D01*
Y986084D01*
Y993701D01*
X1314190Y996241D01*
X1316729Y993701D01*
Y986084D01*
X1347199Y998780D02*
X1344660Y1001319D01*
X1339581D01*
X1337042Y998780D01*
Y988623D01*
X1339581Y986084D01*
X1344660D01*
X1347199Y988623D01*
Y993701D01*
X1342121D01*
X1354816Y996241D02*
X1359895D01*
X1362434Y993701D01*
Y986084D01*
X1354816D01*
X1352277Y988623D01*
X1354816Y991162D01*
X1362434D01*
X1367512Y981006D02*
Y996241D01*
X1375130D01*
X1377669Y993701D01*
Y988623D01*
X1375130Y986084D01*
X1367512D01*
X1382747Y996241D02*
X1385287D01*
Y993701D01*
X1382747D01*
Y996241D01*
Y988623D02*
X1385287D01*
Y986084D01*
X1382747D01*
Y988623D01*
X1420835Y986084D02*
X1410678D01*
X1420835Y996241D01*
Y998780D01*
X1418296Y1001319D01*
X1413218D01*
X1410678Y998780D01*
X1425914D02*
X1428453Y1001319D01*
X1433531D01*
X1436070Y998780D01*
Y988623D01*
X1433531Y986084D01*
X1428453D01*
X1425914Y988623D01*
Y998780D01*
X1441149D02*
X1443688Y1001319D01*
X1448766D01*
X1451305Y998780D01*
Y988623D01*
X1448766Y986084D01*
X1443688D01*
X1441149Y988623D01*
Y998780D01*
X1456384Y996241D02*
Y988623D01*
X1458923Y986084D01*
X1466540D01*
Y996241D01*
X1471619Y986084D02*
Y996241D01*
X1474158D01*
X1476697Y993701D01*
Y986084D01*
Y993701D01*
X1479236Y996241D01*
X1481775Y993701D01*
Y986084D01*
X1220240Y1011084D02*
Y1026319D01*
X1225318Y1021241D01*
X1230397Y1026319D01*
Y1011084D01*
X1235475D02*
X1240553D01*
X1238014D01*
Y1021241D01*
X1235475D01*
X1248171Y1011084D02*
Y1021241D01*
X1255788D01*
X1258328Y1018701D01*
Y1011084D01*
X1263406D02*
X1268484D01*
X1265945D01*
Y1021241D01*
X1263406D01*
X1276102Y1011084D02*
Y1021241D01*
X1278641D01*
X1281180Y1018701D01*
Y1011084D01*
Y1018701D01*
X1283719Y1021241D01*
X1286259Y1018701D01*
Y1011084D01*
X1291337Y1021241D02*
Y1013623D01*
X1293876Y1011084D01*
X1301494D01*
Y1021241D01*
X1306572Y1011084D02*
Y1021241D01*
X1309111D01*
X1311650Y1018701D01*
Y1011084D01*
Y1018701D01*
X1314190Y1021241D01*
X1316729Y1018701D01*
Y1011084D01*
X1337042Y1026319D02*
X1347199D01*
X1342121D01*
Y1011084D01*
X1352277Y1021241D02*
Y1011084D01*
Y1016162D01*
X1354816Y1018701D01*
X1357356Y1021241D01*
X1359895D01*
X1370052D02*
X1375130D01*
X1377669Y1018701D01*
Y1011084D01*
X1370052D01*
X1367512Y1013623D01*
X1370052Y1016162D01*
X1377669D01*
X1392904Y1021241D02*
X1385287D01*
X1382747Y1018701D01*
Y1013623D01*
X1385287Y1011084D01*
X1392904D01*
X1397982D02*
Y1026319D01*
Y1016162D02*
X1405600Y1021241D01*
X1397982Y1016162D02*
X1405600Y1011084D01*
X1413218Y1021241D02*
X1415757D01*
Y1018701D01*
X1413218D01*
Y1021241D01*
Y1013623D02*
X1415757D01*
Y1011084D01*
X1413218D01*
Y1013623D01*
X1451305Y1011084D02*
X1441149D01*
X1451305Y1021241D01*
Y1023780D01*
X1448766Y1026319D01*
X1443688D01*
X1441149Y1023780D01*
X1456384D02*
X1458923Y1026319D01*
X1464001D01*
X1466540Y1023780D01*
Y1013623D01*
X1464001Y1011084D01*
X1458923D01*
X1456384Y1013623D01*
Y1023780D01*
X1471619D02*
X1474158Y1026319D01*
X1479236D01*
X1481775Y1023780D01*
Y1013623D01*
X1479236Y1011084D01*
X1474158D01*
X1471619Y1013623D01*
Y1023780D01*
X1486854Y1021241D02*
Y1013623D01*
X1489393Y1011084D01*
X1497010D01*
Y1021241D01*
X1502089Y1011084D02*
Y1021241D01*
X1504628D01*
X1507167Y1018701D01*
Y1011084D01*
Y1018701D01*
X1509706Y1021241D01*
X1512245Y1018701D01*
Y1011084D01*
X1220240Y1051319D02*
Y1036084D01*
X1227858D01*
X1230397Y1038623D01*
Y1041162D01*
X1227858Y1043701D01*
X1220240D01*
X1227858D01*
X1230397Y1046241D01*
Y1048780D01*
X1227858Y1051319D01*
X1220240D01*
X1238014Y1036084D02*
X1243093D01*
X1245632Y1038623D01*
Y1043701D01*
X1243093Y1046241D01*
X1238014D01*
X1235475Y1043701D01*
Y1038623D01*
X1238014Y1036084D01*
X1253249Y1046241D02*
X1258328D01*
X1260867Y1043701D01*
Y1036084D01*
X1253249D01*
X1250710Y1038623D01*
X1253249Y1041162D01*
X1260867D01*
X1265945Y1046241D02*
Y1036084D01*
Y1041162D01*
X1268484Y1043701D01*
X1271024Y1046241D01*
X1273563D01*
X1291337Y1051319D02*
Y1036084D01*
X1283719D01*
X1281180Y1038623D01*
Y1043701D01*
X1283719Y1046241D01*
X1291337D01*
X1311650Y1036084D02*
X1316729D01*
X1314190D01*
Y1046241D01*
X1311650D01*
X1324346Y1036084D02*
Y1046241D01*
X1331964D01*
X1334503Y1043701D01*
Y1036084D01*
X1342121D02*
Y1048780D01*
Y1043701D01*
X1339581D01*
X1344660D01*
X1342121D01*
Y1048780D01*
X1344660Y1051319D01*
X1354816Y1036084D02*
X1359895D01*
X1362434Y1038623D01*
Y1043701D01*
X1359895Y1046241D01*
X1354816D01*
X1352277Y1043701D01*
Y1038623D01*
X1354816Y1036084D01*
X155397Y1051319D02*
X145240D01*
Y1043701D01*
X150318D01*
X145240D01*
Y1036084D01*
X160475D02*
X165553D01*
X163014D01*
Y1046241D01*
X160475D01*
X173171Y1036084D02*
X178249D01*
X175710D01*
Y1051319D01*
X173171D01*
X193484Y1036084D02*
X188406D01*
X185867Y1038623D01*
Y1043701D01*
X188406Y1046241D01*
X193484D01*
X196024Y1043701D01*
Y1041162D01*
X185867D01*
X201102Y1036084D02*
X208719D01*
X211259Y1038623D01*
X208719Y1041162D01*
X203641D01*
X201102Y1043701D01*
X203641Y1046241D01*
X211259D01*
D79*
X76550Y-383220D02*
X56556D01*
X76550Y-363227D01*
Y-358228D01*
X71551Y-353230D01*
X61554D01*
X56556Y-358228D01*
X86546D02*
X91545Y-353230D01*
X101541D01*
X106540Y-358228D01*
Y-363227D01*
X101541Y-368225D01*
X106540Y-373223D01*
Y-378222D01*
X101541Y-383220D01*
X91545D01*
X86546Y-378222D01*
Y-373223D01*
X91545Y-368225D01*
X86546Y-363227D01*
Y-358228D01*
X91545Y-368225D02*
X101541D01*
X116537Y-383220D02*
Y-353230D01*
X131532D01*
X136530Y-358228D01*
Y-368225D01*
X131532Y-373223D01*
X116537D01*
X146527Y-383220D02*
X156524D01*
X151525D01*
Y-363227D01*
X146527D01*
X171519Y-383220D02*
Y-363227D01*
X186514D01*
X191512Y-368225D01*
Y-383220D01*
X201509D02*
X216504D01*
X221503Y-378222D01*
X216504Y-373223D01*
X206507D01*
X201509Y-368225D01*
X206507Y-363227D01*
X221503D01*
X231499Y-388218D02*
X251493D01*
X261490Y-393217D02*
Y-363227D01*
X276485D01*
X281483Y-368225D01*
Y-378222D01*
X276485Y-383220D01*
X261490D01*
X291480Y-363227D02*
Y-383220D01*
Y-373223D01*
X296478Y-368225D01*
X301477Y-363227D01*
X306475D01*
X326469Y-383220D02*
X336465D01*
X341464Y-378222D01*
Y-368225D01*
X336465Y-363227D01*
X326469D01*
X321470Y-368225D01*
Y-378222D01*
X326469Y-383220D01*
X351460Y-393217D02*
X356459D01*
X361457Y-388218D01*
Y-363227D01*
X396446Y-383220D02*
X386449D01*
X381451Y-378222D01*
Y-368225D01*
X386449Y-363227D01*
X396446D01*
X401444Y-368225D01*
Y-373223D01*
X381451D01*
X431435Y-363227D02*
X416440D01*
X411441Y-368225D01*
Y-378222D01*
X416440Y-383220D01*
X431435D01*
X446430Y-358228D02*
Y-363227D01*
X441431D01*
X451428D01*
X446430D01*
Y-378222D01*
X451428Y-383220D01*
X776556Y-353230D02*
Y-373223D01*
X786553Y-383220D01*
X796550Y-373223D01*
Y-353230D01*
X806546Y-383220D02*
X816543D01*
X811545D01*
Y-353230D01*
X806546Y-358228D01*
X831538Y-383220D02*
Y-378222D01*
X836537D01*
Y-383220D01*
X831538D01*
X856530D02*
X866527D01*
X861528D01*
Y-353230D01*
X856530Y-358228D01*
M02*
