M48
;Layer_Color=9474304
;FILE_FORMAT=4:4
METRIC,LZ
;TYPE=PLATED
T1F00S00C0.3000
T3F00S00C1.0000
T4F00S00C1.1000
T5F00S00C1.5000
T6F00S00C3.2000
;TYPE=NON_PLATED
T7F00S00C3.2000
%
T01
X00614Y00054
Y00062484
X00683366Y00124571
X006812Y001606
X006703Y001558
X004593Y001623
X00468908Y0011003
X00489Y00101
X004863Y000893
X004765Y000405
X00456581Y00044581
X00435966Y00062393
X004271Y000625
X00417644Y00062521
X004027Y000803
X003768Y000718
X00321Y00064
X00321387Y00053531
X00289043Y000534
X003058Y00082
X0031175Y001565
X00337Y001555
X00413183Y0011173
X0023375Y0013545
X002101Y001357
X001966Y001428
X001776Y001358
X00171Y00148173
X00123446Y0015473
X00114Y00155
X00106
Y00147
X000898Y001143
X000902Y001016
X00081594Y00178437
X00127Y00177
X00128Y0017
X00137
Y00178
X001394Y001871
X00125162Y001922
X00119875Y00215675
X001379Y0022506
X001582Y001972
X0015Y002752
X000985Y002712
X00107425Y00253275
X000781Y002515
X00060817Y00237149
X00083213Y00224732
X0008Y002936
X00087Y00323825
X000938Y003689
X00105905Y003692
X00107Y0042
X001176Y004202
X00112Y00426
X00056Y00447401
X00054808Y00517858
X00039304Y00280518
X000102Y002828
X001757Y002878
X001763Y002089
X001649Y00209
X001997Y002115
X002111Y002113
X00237812Y00200588
X00245Y00189
X002606Y00214
X00297Y00239
X00337375Y00277625
X003955Y00252
X00448921Y0021858
X00486387Y002542
X00441Y00379
X00432
X00423
X00432Y00389
X00430991Y00482971
X00431795Y00492398
X00422616Y00491412
X00441Y00491
X0028Y00489275
X002145Y0048425
X00224655Y00439
X00186981Y00434524
X001892Y0041
X001719Y004124
X00212Y00401
X002191Y003389
X002826Y003486
X00317Y00403
X0031675Y00418
X003131Y004311
X005572Y0041675
X002214Y002523
X0059Y001765
X006342Y001714
X00637206Y00180494
X006801Y002217
X006803Y003003
X00584Y00398
X00575
X00580056Y00407699
X0057975Y0041775
X00573742Y00427501
X0062525Y004545
T03
X001995Y000115
X002445
Y000765
X001995
X00601Y002635
Y003085
X00666
Y002635
T04
X005588Y000254
X005842
X006096
X00635
X006284Y0012563
X00603
X005776
X005522
X005268
X005014
X00476
X004506
X004252
X003998
X003744
X00349
X003236
X002982
X003048Y000254
X003302
X003556
X00381
X004064
X004318
X004572
X00508
X005334
X002794
X00167Y00088
X001416
X001162
X000497Y003203
Y003457
X000243
Y003203
X000236Y003806
X00049
X000744
Y00406
X00049
X000236
Y004676
X00049
X000744
Y00493
X00049
X000236
X00146Y00446
Y004206
Y003952
Y003698
X0018796Y00508
X0021336
X0023876
X0026416
X0028956
X0031496
X0034036
X0036576
X0039116
X0041656
X004572
X004826
X00508
X005334
X005268Y0020183
X005522
X005014
X00476
X004506
X004252
X003998
X003744
X00349
X003236
X002982
X005776
X00603
X006265Y0020193
X00662Y004182
Y004436
Y00469
X00635Y00508
X006096
X005842
X005588
T05
X00022Y00026
Y00133
T06
X006604Y000762
X001397Y000254
X006604Y003556
T07
X001405Y004969
M30
