G04*
G04 #@! TF.GenerationSoftware,Altium Limited,Altium Designer,20.0.10 (225)*
G04*
G04 Layer_Color=16711935*
%FSLAX44Y44*%
%MOMM*%
G71*
G01*
G75*
%ADD24R,1.9000X1.9000*%
%ADD46R,2.1000X2.1000*%
%ADD47R,2.1000X2.1000*%
%ADD64R,1.8000X2.2000*%
%ADD65O,1.8000X2.2000*%
%ADD66R,2.2000X1.8000*%
%ADD67O,2.2000X1.8000*%
%ADD68C,1.9000*%
%ADD69C,4.2000*%
G04:AMPARAMS|DCode=70|XSize=2.2mm|YSize=1.4mm|CornerRadius=0.46mm|HoleSize=0mm|Usage=FLASHONLY|Rotation=0.000|XOffset=0mm|YOffset=0mm|HoleType=Round|Shape=RoundedRectangle|*
%AMROUNDEDRECTD70*
21,1,2.2000,0.4800,0,0,0.0*
21,1,1.2800,1.4000,0,0,0.0*
1,1,0.9200,0.6400,-0.2400*
1,1,0.9200,-0.6400,-0.2400*
1,1,0.9200,-0.6400,0.2400*
1,1,0.9200,0.6400,0.2400*
%
%ADD70ROUNDEDRECTD70*%
%ADD71C,3.4000*%
%ADD72C,7.6000*%
%ADD73C,0.8000*%
D24*
X49700Y345700D02*
D03*
X23600Y380600D02*
D03*
Y467600D02*
D03*
D46*
X601000Y263500D02*
D03*
Y308500D02*
D03*
X666000D02*
D03*
Y263500D02*
D03*
D47*
X244500Y76500D02*
D03*
X199500D02*
D03*
Y11500D02*
D03*
X244500D02*
D03*
D64*
X416560Y508000D02*
D03*
X116200Y88000D02*
D03*
X508000Y25400D02*
D03*
X279400D02*
D03*
X635000Y508000D02*
D03*
X626500Y201930D02*
D03*
D65*
X391160Y508000D02*
D03*
X365760D02*
D03*
X340360D02*
D03*
X314960D02*
D03*
X289560D02*
D03*
X264160D02*
D03*
X238760D02*
D03*
X213360D02*
D03*
X187960D02*
D03*
X167000Y88000D02*
D03*
X141600D02*
D03*
X533400Y25400D02*
D03*
X558800D02*
D03*
X584200D02*
D03*
X609600D02*
D03*
X635000D02*
D03*
X457200D02*
D03*
X431800D02*
D03*
X406400D02*
D03*
X381000D02*
D03*
X355600D02*
D03*
X330200D02*
D03*
X304800D02*
D03*
X609600Y508000D02*
D03*
X584200D02*
D03*
X558800D02*
D03*
X533400D02*
D03*
X508000D02*
D03*
X482600D02*
D03*
X457200D02*
D03*
X603000Y201830D02*
D03*
X577600D02*
D03*
X552200D02*
D03*
X526800D02*
D03*
X501400D02*
D03*
X476000D02*
D03*
X450600D02*
D03*
X425200D02*
D03*
X399800D02*
D03*
X374400D02*
D03*
X349000D02*
D03*
X323600D02*
D03*
X298200D02*
D03*
X628400Y125630D02*
D03*
X603000D02*
D03*
X577600D02*
D03*
X552200D02*
D03*
X526800D02*
D03*
X501400D02*
D03*
X476000D02*
D03*
X450600D02*
D03*
X425200D02*
D03*
X399800D02*
D03*
X374400D02*
D03*
X349000D02*
D03*
X323600D02*
D03*
X298200D02*
D03*
D66*
X662000Y469000D02*
D03*
X146000Y446000D02*
D03*
D67*
X662000Y443600D02*
D03*
Y418200D02*
D03*
X146000Y369800D02*
D03*
Y395200D02*
D03*
Y420600D02*
D03*
D68*
X24300Y345700D02*
D03*
X49700Y320300D02*
D03*
X24300D02*
D03*
X49000Y380600D02*
D03*
X74400D02*
D03*
X23600Y406000D02*
D03*
X49000D02*
D03*
X74400D02*
D03*
X49000Y467600D02*
D03*
X74400D02*
D03*
X23600Y493000D02*
D03*
X49000D02*
D03*
X74400D02*
D03*
D69*
X22000Y26000D02*
D03*
Y133000D02*
D03*
D70*
Y232000D02*
D03*
Y166000D02*
D03*
D71*
X140500Y496900D02*
D03*
D72*
X139700Y25400D02*
D03*
X660400Y76200D02*
D03*
Y355600D02*
D03*
D73*
X337375Y277625D02*
D03*
X60817Y237149D02*
D03*
X186981Y434524D02*
D03*
X123446Y154730D02*
D03*
X106000Y147000D02*
D03*
X114000Y155000D02*
D03*
X106000D02*
D03*
X128000Y170000D02*
D03*
X137000D02*
D03*
X127000Y177000D02*
D03*
X584000Y398000D02*
D03*
X431795Y492398D02*
D03*
X441000Y491000D02*
D03*
X422616Y491412D02*
D03*
X423000Y379000D02*
D03*
X432000Y389000D02*
D03*
Y379000D02*
D03*
X557200Y416750D02*
D03*
X297000Y239000D02*
D03*
X245000Y189000D02*
D03*
X614000Y54000D02*
D03*
X87000Y323825D02*
D03*
X212000Y401000D02*
D03*
X280000Y489275D02*
D03*
X196600Y142800D02*
D03*
X171000Y148173D02*
D03*
X580056Y407699D02*
D03*
X573742Y427501D02*
D03*
X579750Y417750D02*
D03*
X89800Y114300D02*
D03*
X56000Y447401D02*
D03*
X90200Y101600D02*
D03*
X83213Y224732D02*
D03*
X158200Y197200D02*
D03*
X119875Y215675D02*
D03*
X680300Y300300D02*
D03*
X137000Y178000D02*
D03*
X81594Y178437D02*
D03*
X233750Y135450D02*
D03*
X199700Y211500D02*
D03*
X39304Y280518D02*
D03*
X224655Y439000D02*
D03*
X80000Y293600D02*
D03*
X441000Y379000D02*
D03*
X430991Y482971D02*
D03*
X289043Y53400D02*
D03*
X54808Y517858D02*
D03*
X448921Y218580D02*
D03*
X486387Y254200D02*
D03*
X395500Y252000D02*
D03*
X107425Y253275D02*
D03*
X137900Y225060D02*
D03*
X150000Y275200D02*
D03*
X176300Y208900D02*
D03*
X237812Y200588D02*
D03*
X260600Y214000D02*
D03*
X221400Y252300D02*
D03*
X175700Y287800D02*
D03*
X219100Y338900D02*
D03*
X282600Y348600D02*
D03*
X189200Y410000D02*
D03*
X575000Y398000D02*
D03*
X637206Y180494D02*
D03*
X634200Y171400D02*
D03*
X683366Y124571D02*
D03*
X486300Y89300D02*
D03*
X489000Y101000D02*
D03*
X468908Y110030D02*
D03*
X427100Y62500D02*
D03*
X402700Y80300D02*
D03*
X413183Y111730D02*
D03*
X376800Y71800D02*
D03*
X305800Y82000D02*
D03*
X210100Y135700D02*
D03*
X78100Y251500D02*
D03*
X313100Y431100D02*
D03*
X171900Y412400D02*
D03*
X117600Y420200D02*
D03*
X10200Y282800D02*
D03*
X177600Y135800D02*
D03*
X456581Y44581D02*
D03*
X476500Y40500D02*
D03*
X681200Y160600D02*
D03*
X680100Y221700D02*
D03*
X93800Y368900D02*
D03*
X105905Y369200D02*
D03*
X98500Y271200D02*
D03*
X459300Y162300D02*
D03*
X211100Y211300D02*
D03*
X139400Y187100D02*
D03*
X164900Y209000D02*
D03*
X125162Y192200D02*
D03*
X214500Y484250D02*
D03*
X590000Y176500D02*
D03*
X317000Y403000D02*
D03*
X316750Y418000D02*
D03*
X670300Y155800D02*
D03*
X625250Y454500D02*
D03*
X337000Y155500D02*
D03*
X311750Y156500D02*
D03*
M02*
