G04*
G04 #@! TF.GenerationSoftware,Altium Limited,Altium Designer,20.0.10 (225)*
G04*
G04 Layer_Color=16777215*
%FSLAX44Y44*%
%MOMM*%
G71*
G01*
G75*
%ADD11C,0.2540*%
D11*
X1220852Y538063D02*
Y522828D01*
X1231009D01*
X1236087Y538063D02*
X1241165D01*
X1238626D01*
Y522828D01*
X1236087D01*
X1241165D01*
X1258940Y535524D02*
X1256401Y538063D01*
X1251322D01*
X1248783Y535524D01*
Y525367D01*
X1251322Y522828D01*
X1256401D01*
X1258940Y525367D01*
X1274175Y538063D02*
X1264018D01*
Y522828D01*
X1274175D01*
X1264018Y530446D02*
X1269096D01*
X1279253Y522828D02*
Y538063D01*
X1289410Y522828D01*
Y538063D01*
X1304645Y535524D02*
X1302106Y538063D01*
X1297027D01*
X1294488Y535524D01*
Y525367D01*
X1297027Y522828D01*
X1302106D01*
X1304645Y525367D01*
X1319880Y538063D02*
X1309723D01*
Y522828D01*
X1319880D01*
X1309723Y530446D02*
X1314802D01*
X1222852Y477828D02*
Y487985D01*
X1227930Y493063D01*
X1233009Y487985D01*
Y477828D01*
Y485446D01*
X1222852D01*
X1238087Y493063D02*
Y480367D01*
X1240626Y477828D01*
X1245705D01*
X1248244Y480367D01*
Y493063D01*
X1253322D02*
X1263479D01*
X1258400D01*
Y477828D01*
X1268557Y493063D02*
Y477828D01*
Y485446D01*
X1278714D01*
Y493063D01*
Y477828D01*
X1291410Y493063D02*
X1286331D01*
X1283792Y490524D01*
Y480367D01*
X1286331Y477828D01*
X1291410D01*
X1293949Y480367D01*
Y490524D01*
X1291410Y493063D01*
X1299027Y477828D02*
Y493063D01*
X1306645D01*
X1309184Y490524D01*
Y485446D01*
X1306645Y482906D01*
X1299027D01*
X1304106D02*
X1309184Y477828D01*
X1314263Y487985D02*
X1316802D01*
Y485446D01*
X1314263D01*
Y487985D01*
Y480367D02*
X1316802D01*
Y477828D01*
X1314263D01*
Y480367D01*
X1352350Y493063D02*
X1342193D01*
Y485446D01*
X1347272D01*
X1342193D01*
Y477828D01*
X1367585Y493063D02*
X1357428D01*
Y477828D01*
X1367585D01*
X1357428Y485446D02*
X1362507D01*
X1372664Y493063D02*
Y477828D01*
X1380281D01*
X1382820Y480367D01*
Y490524D01*
X1380281Y493063D01*
X1372664D01*
X1398055D02*
X1387899D01*
Y477828D01*
X1398055D01*
X1387899Y485446D02*
X1392977D01*
X1403134Y493063D02*
Y482906D01*
X1408212Y477828D01*
X1413290Y482906D01*
Y493063D01*
X1428526D02*
X1418369D01*
Y477828D01*
X1428526D01*
X1418369Y485446D02*
X1423447D01*
X1433604Y493063D02*
Y477828D01*
X1443761D01*
X1474231D02*
X1464074D01*
X1474231Y487985D01*
Y490524D01*
X1471691Y493063D01*
X1466613D01*
X1464074Y490524D01*
X1479309D02*
X1481848Y493063D01*
X1486927D01*
X1489466Y490524D01*
Y480367D01*
X1486927Y477828D01*
X1481848D01*
X1479309Y480367D01*
Y490524D01*
X1494544Y477828D02*
X1499622D01*
X1497083D01*
Y493063D01*
X1494544Y490524D01*
X1517397Y493063D02*
X1507240D01*
Y485446D01*
X1512318Y487985D01*
X1514858D01*
X1517397Y485446D01*
Y480367D01*
X1514858Y477828D01*
X1509779D01*
X1507240Y480367D01*
X1222852Y468063D02*
Y452828D01*
X1227930Y457906D01*
X1233009Y452828D01*
Y468063D01*
X1248244D02*
X1238087D01*
Y452828D01*
X1248244D01*
X1238087Y460446D02*
X1243166D01*
X1253322Y468063D02*
Y452828D01*
X1260940D01*
X1263479Y455367D01*
Y457906D01*
X1260940Y460446D01*
X1253322D01*
X1260940D01*
X1263479Y462985D01*
Y465524D01*
X1260940Y468063D01*
X1253322D01*
X1278714Y465524D02*
X1276175Y468063D01*
X1271096D01*
X1268557Y465524D01*
Y462985D01*
X1271096Y460446D01*
X1276175D01*
X1278714Y457906D01*
Y455367D01*
X1276175Y452828D01*
X1271096D01*
X1268557Y455367D01*
X1283792Y468063D02*
X1288871D01*
X1286331D01*
Y452828D01*
X1283792D01*
X1288871D01*
X1296488Y468063D02*
X1306645D01*
X1301567D01*
Y452828D01*
X1321880Y468063D02*
X1311723D01*
Y452828D01*
X1321880D01*
X1311723Y460446D02*
X1316802D01*
X1326958Y462985D02*
X1329498D01*
Y460446D01*
X1326958D01*
Y462985D01*
Y455367D02*
X1329498D01*
Y452828D01*
X1326958D01*
Y455367D01*
X1354889Y468063D02*
Y452828D01*
Y460446D01*
X1357428Y462985D01*
X1362507D01*
X1365046Y460446D01*
Y452828D01*
X1372664Y465524D02*
Y462985D01*
X1370124D01*
X1375203D01*
X1372664D01*
Y455367D01*
X1375203Y452828D01*
X1385359Y465524D02*
Y462985D01*
X1382820D01*
X1387899D01*
X1385359D01*
Y455367D01*
X1387899Y452828D01*
X1395516Y447750D02*
Y462985D01*
X1403134D01*
X1405673Y460446D01*
Y455367D01*
X1403134Y452828D01*
X1395516D01*
X1410751Y462985D02*
X1413290D01*
Y460446D01*
X1410751D01*
Y462985D01*
Y455367D02*
X1413290D01*
Y452828D01*
X1410751D01*
Y455367D01*
X1423447Y452828D02*
X1433604Y462985D01*
X1438682Y452828D02*
X1448839Y462985D01*
X1453917D02*
Y455367D01*
X1456456Y452828D01*
X1458996Y455367D01*
X1461535Y452828D01*
X1464074Y455367D01*
Y462985D01*
X1469152D02*
Y455367D01*
X1471691Y452828D01*
X1474231Y455367D01*
X1476770Y452828D01*
X1479309Y455367D01*
Y462985D01*
X1484387D02*
Y455367D01*
X1486927Y452828D01*
X1489466Y455367D01*
X1492005Y452828D01*
X1494544Y455367D01*
Y462985D01*
X1499622Y452828D02*
Y455367D01*
X1502162D01*
Y452828D01*
X1499622D01*
X1522475D02*
X1512318D01*
X1522475Y462985D01*
Y465524D01*
X1519936Y468063D01*
X1514857D01*
X1512318Y465524D01*
X1527553D02*
X1530093Y468063D01*
X1535171D01*
X1537710Y465524D01*
Y462985D01*
X1535171Y460446D01*
X1537710Y457906D01*
Y455367D01*
X1535171Y452828D01*
X1530093D01*
X1527553Y455367D01*
Y457906D01*
X1530093Y460446D01*
X1527553Y462985D01*
Y465524D01*
X1530093Y460446D02*
X1535171D01*
X1542789Y447750D02*
Y462985D01*
X1550406D01*
X1552945Y460446D01*
Y455367D01*
X1550406Y452828D01*
X1542789D01*
X1558024D02*
X1563102D01*
X1560563D01*
Y462985D01*
X1558024D01*
X1570719Y452828D02*
Y462985D01*
X1578337D01*
X1580876Y460446D01*
Y452828D01*
X1585954D02*
X1593572D01*
X1596111Y455367D01*
X1593572Y457906D01*
X1588494D01*
X1585954Y460446D01*
X1588494Y462985D01*
X1596111D01*
X1601190Y452828D02*
Y455367D01*
X1603729D01*
Y452828D01*
X1601190D01*
X1624042Y462985D02*
X1616425D01*
X1613885Y460446D01*
Y455367D01*
X1616425Y452828D01*
X1624042D01*
X1631660D02*
X1636738D01*
X1639277Y455367D01*
Y460446D01*
X1636738Y462985D01*
X1631660D01*
X1629121Y460446D01*
Y455367D01*
X1631660Y452828D01*
X1644356D02*
Y462985D01*
X1646895D01*
X1649434Y460446D01*
Y452828D01*
Y460446D01*
X1651973Y462985D01*
X1654512Y460446D01*
Y452828D01*
X1222852Y418063D02*
X1233009D01*
X1227930D01*
Y402828D01*
X1238087Y418063D02*
Y402828D01*
Y410446D01*
X1240626Y412985D01*
X1245705D01*
X1248244Y410446D01*
Y402828D01*
X1253322D02*
X1258400D01*
X1255861D01*
Y412985D01*
X1253322D01*
X1266018Y402828D02*
X1273636D01*
X1276175Y405367D01*
X1273636Y407906D01*
X1268557D01*
X1266018Y410446D01*
X1268557Y412985D01*
X1276175D01*
X1296488Y402828D02*
X1301567D01*
X1299027D01*
Y412985D01*
X1296488D01*
X1309184Y402828D02*
X1316802D01*
X1319341Y405367D01*
X1316802Y407906D01*
X1311723D01*
X1309184Y410446D01*
X1311723Y412985D01*
X1319341D01*
X1342193D02*
X1347272D01*
X1349811Y410446D01*
Y402828D01*
X1342193D01*
X1339654Y405367D01*
X1342193Y407906D01*
X1349811D01*
X1370124Y418063D02*
Y402828D01*
Y410446D01*
X1372664Y412985D01*
X1377742D01*
X1380281Y410446D01*
Y402828D01*
X1385359Y412985D02*
Y405367D01*
X1387899Y402828D01*
X1395516D01*
Y412985D01*
X1400594Y402828D02*
Y412985D01*
X1403134D01*
X1405673Y410446D01*
Y402828D01*
Y410446D01*
X1408212Y412985D01*
X1410751Y410446D01*
Y402828D01*
X1418369Y412985D02*
X1423447D01*
X1425986Y410446D01*
Y402828D01*
X1418369D01*
X1415830Y405367D01*
X1418369Y407906D01*
X1425986D01*
X1431065Y402828D02*
Y412985D01*
X1438682D01*
X1441221Y410446D01*
Y402828D01*
X1446300Y410446D02*
X1456456D01*
X1461535Y412985D02*
Y402828D01*
Y407906D01*
X1464074Y410446D01*
X1466613Y412985D01*
X1469152D01*
X1484387Y402828D02*
X1479309D01*
X1476770Y405367D01*
Y410446D01*
X1479309Y412985D01*
X1484387D01*
X1486927Y410446D01*
Y407906D01*
X1476770D01*
X1494544Y412985D02*
X1499622D01*
X1502162Y410446D01*
Y402828D01*
X1494544D01*
X1492005Y405367D01*
X1494544Y407906D01*
X1502162D01*
X1517397Y418063D02*
Y402828D01*
X1509779D01*
X1507240Y405367D01*
Y410446D01*
X1509779Y412985D01*
X1517397D01*
X1525014D02*
X1530093D01*
X1532632Y410446D01*
Y402828D01*
X1525014D01*
X1522475Y405367D01*
X1525014Y407906D01*
X1532632D01*
X1537710Y418063D02*
Y402828D01*
X1545328D01*
X1547867Y405367D01*
Y407906D01*
Y410446D01*
X1545328Y412985D01*
X1537710D01*
X1552945Y402828D02*
X1558024D01*
X1555484D01*
Y418063D01*
X1552945D01*
X1573259Y402828D02*
X1568180D01*
X1565641Y405367D01*
Y410446D01*
X1568180Y412985D01*
X1573259D01*
X1575798Y410446D01*
Y407906D01*
X1565641D01*
X1596111Y402828D02*
X1603729D01*
X1606268Y405367D01*
X1603729Y407906D01*
X1598651D01*
X1596111Y410446D01*
X1598651Y412985D01*
X1606268D01*
X1611346D02*
Y405367D01*
X1613885Y402828D01*
X1621503D01*
Y412985D01*
X1626581Y402828D02*
Y412985D01*
X1629121D01*
X1631660Y410446D01*
Y402828D01*
Y410446D01*
X1634199Y412985D01*
X1636738Y410446D01*
Y402828D01*
X1641817D02*
Y412985D01*
X1644356D01*
X1646895Y410446D01*
Y402828D01*
Y410446D01*
X1649434Y412985D01*
X1651973Y410446D01*
Y402828D01*
X1659591Y412985D02*
X1664669D01*
X1667208Y410446D01*
Y402828D01*
X1659591D01*
X1657052Y405367D01*
X1659591Y407906D01*
X1667208D01*
X1672287Y412985D02*
Y402828D01*
Y407906D01*
X1674826Y410446D01*
X1677365Y412985D01*
X1679904D01*
X1687522D02*
Y405367D01*
X1690061Y402828D01*
X1697678D01*
Y400289D01*
X1695139Y397750D01*
X1692600D01*
X1697678Y402828D02*
Y412985D01*
X1720531Y402828D02*
X1725609D01*
X1728149Y405367D01*
Y410446D01*
X1725609Y412985D01*
X1720531D01*
X1717992Y410446D01*
Y405367D01*
X1720531Y402828D01*
X1735766D02*
Y415524D01*
Y410446D01*
X1733227D01*
X1738305D01*
X1735766D01*
Y415524D01*
X1738305Y418063D01*
X1763697Y415524D02*
Y412985D01*
X1761158D01*
X1766236D01*
X1763697D01*
Y405367D01*
X1766236Y402828D01*
X1773854Y418063D02*
Y402828D01*
Y410446D01*
X1776393Y412985D01*
X1781471D01*
X1784010Y410446D01*
Y402828D01*
X1796706D02*
X1791628D01*
X1789089Y405367D01*
Y410446D01*
X1791628Y412985D01*
X1796706D01*
X1799246Y410446D01*
Y407906D01*
X1789089D01*
X1819559Y402828D02*
X1824637D01*
X1822098D01*
Y418063D01*
X1819559D01*
X1832255Y402828D02*
X1837333D01*
X1834794D01*
Y412985D01*
X1832255D01*
X1855108D02*
X1847490D01*
X1844951Y410446D01*
Y405367D01*
X1847490Y402828D01*
X1855108D01*
X1867803D02*
X1862725D01*
X1860186Y405367D01*
Y410446D01*
X1862725Y412985D01*
X1867803D01*
X1870343Y410446D01*
Y407906D01*
X1860186D01*
X1875421Y402828D02*
Y412985D01*
X1883038D01*
X1885578Y410446D01*
Y402828D01*
X1900813Y412985D02*
X1893195D01*
X1890656Y410446D01*
Y405367D01*
X1893195Y402828D01*
X1900813D01*
X1913509D02*
X1908430D01*
X1905891Y405367D01*
Y410446D01*
X1908430Y412985D01*
X1913509D01*
X1916048Y410446D01*
Y407906D01*
X1905891D01*
X1921126Y402828D02*
Y405367D01*
X1923665D01*
Y402828D01*
X1921126D01*
X1949057D02*
Y418063D01*
X1956675D01*
X1959214Y415524D01*
Y410446D01*
X1956675Y407906D01*
X1949057D01*
X1954135D02*
X1959214Y402828D01*
X1971910D02*
X1966831D01*
X1964292Y405367D01*
Y410446D01*
X1966831Y412985D01*
X1971910D01*
X1974449Y410446D01*
Y407906D01*
X1964292D01*
X1982066Y412985D02*
X1987145D01*
X1989684Y410446D01*
Y402828D01*
X1982066D01*
X1979527Y405367D01*
X1982066Y407906D01*
X1989684D01*
X2004919Y418063D02*
Y402828D01*
X1997301D01*
X1994762Y405367D01*
Y410446D01*
X1997301Y412985D01*
X2004919D01*
X2027772Y402828D02*
Y415524D01*
Y410446D01*
X2025232D01*
X2030311D01*
X2027772D01*
Y415524D01*
X2030311Y418063D01*
X2037928Y412985D02*
Y405367D01*
X2040468Y402828D01*
X2048085D01*
Y412985D01*
X2053163Y402828D02*
X2058242D01*
X2055703D01*
Y418063D01*
X2053163D01*
X2065859Y402828D02*
X2070938D01*
X2068398D01*
Y418063D01*
X2065859D01*
X2093790Y402828D02*
X2098869D01*
X2096329D01*
Y418063D01*
X2093790D01*
X2106486Y402828D02*
X2111564D01*
X2109025D01*
Y412985D01*
X2106486D01*
X2129339D02*
X2121721D01*
X2119182Y410446D01*
Y405367D01*
X2121721Y402828D01*
X2129339D01*
X2142035D02*
X2136956D01*
X2134417Y405367D01*
Y410446D01*
X2136956Y412985D01*
X2142035D01*
X2144574Y410446D01*
Y407906D01*
X2134417D01*
X2149652Y402828D02*
Y412985D01*
X2157270D01*
X2159809Y410446D01*
Y402828D01*
X2175044Y412985D02*
X2167426D01*
X2164887Y410446D01*
Y405367D01*
X2167426Y402828D01*
X2175044D01*
X2187740D02*
X2182661D01*
X2180122Y405367D01*
Y410446D01*
X2182661Y412985D01*
X2187740D01*
X2190279Y410446D01*
Y407906D01*
X2180122D01*
X2213132Y412985D02*
X2218210D01*
X2220749Y410446D01*
Y402828D01*
X2213132D01*
X2210592Y405367D01*
X2213132Y407906D01*
X2220749D01*
X2228367Y415524D02*
Y412985D01*
X2225827D01*
X2230906D01*
X2228367D01*
Y405367D01*
X2230906Y402828D01*
X2238523Y412985D02*
X2241063D01*
Y410446D01*
X2238523D01*
Y412985D01*
Y405367D02*
X2241063D01*
Y402828D01*
X2238523D01*
Y405367D01*
X1222852Y393063D02*
Y377828D01*
Y385446D01*
X1225391Y387985D01*
X1230470D01*
X1233009Y385446D01*
Y377828D01*
X1240626Y390524D02*
Y387985D01*
X1238087D01*
X1243166D01*
X1240626D01*
Y380367D01*
X1243166Y377828D01*
X1253322Y390524D02*
Y387985D01*
X1250783D01*
X1255861D01*
X1253322D01*
Y380367D01*
X1255861Y377828D01*
X1263479Y372750D02*
Y387985D01*
X1271096D01*
X1273636Y385446D01*
Y380367D01*
X1271096Y377828D01*
X1263479D01*
X1278714D02*
X1286331D01*
X1288871Y380367D01*
X1286331Y382906D01*
X1281253D01*
X1278714Y385446D01*
X1281253Y387985D01*
X1288871D01*
X1293949D02*
X1296488D01*
Y385446D01*
X1293949D01*
Y387985D01*
Y380367D02*
X1296488D01*
Y377828D01*
X1293949D01*
Y380367D01*
X1306645Y377828D02*
X1316802Y387985D01*
X1321880Y377828D02*
X1332037Y387985D01*
X1347272D02*
X1339654D01*
X1337115Y385446D01*
Y380367D01*
X1339654Y377828D01*
X1347272D01*
X1352350Y387985D02*
Y377828D01*
Y382906D01*
X1354889Y385446D01*
X1357428Y387985D01*
X1359968D01*
X1375203Y377828D02*
X1370124D01*
X1367585Y380367D01*
Y385446D01*
X1370124Y387985D01*
X1375203D01*
X1377742Y385446D01*
Y382906D01*
X1367585D01*
X1385359Y387985D02*
X1390438D01*
X1392977Y385446D01*
Y377828D01*
X1385359D01*
X1382820Y380367D01*
X1385359Y382906D01*
X1392977D01*
X1400594Y390524D02*
Y387985D01*
X1398055D01*
X1403134D01*
X1400594D01*
Y380367D01*
X1403134Y377828D01*
X1410751D02*
X1415830D01*
X1413290D01*
Y387985D01*
X1410751D01*
X1423447D02*
X1428526Y377828D01*
X1433604Y387985D01*
X1446300Y377828D02*
X1441221D01*
X1438682Y380367D01*
Y385446D01*
X1441221Y387985D01*
X1446300D01*
X1448839Y385446D01*
Y382906D01*
X1438682D01*
X1464074Y387985D02*
X1456456D01*
X1453917Y385446D01*
Y380367D01*
X1456456Y377828D01*
X1464074D01*
X1471691D02*
X1476770D01*
X1479309Y380367D01*
Y385446D01*
X1476770Y387985D01*
X1471691D01*
X1469152Y385446D01*
Y380367D01*
X1471691Y377828D01*
X1484387D02*
Y387985D01*
X1486927D01*
X1489466Y385446D01*
Y377828D01*
Y385446D01*
X1492005Y387985D01*
X1494544Y385446D01*
Y377828D01*
X1499622D02*
Y387985D01*
X1502162D01*
X1504701Y385446D01*
Y377828D01*
Y385446D01*
X1507240Y387985D01*
X1509779Y385446D01*
Y377828D01*
X1517397D02*
X1522475D01*
X1525014Y380367D01*
Y385446D01*
X1522475Y387985D01*
X1517397D01*
X1514857Y385446D01*
Y380367D01*
X1517397Y377828D01*
X1530093D02*
Y387985D01*
X1537710D01*
X1540249Y385446D01*
Y377828D01*
X1545328D02*
X1552945D01*
X1555484Y380367D01*
X1552945Y382906D01*
X1547867D01*
X1545328Y385446D01*
X1547867Y387985D01*
X1555484D01*
X1560563Y377828D02*
Y380367D01*
X1563102D01*
Y377828D01*
X1560563D01*
X1575798D02*
X1580876D01*
X1583415Y380367D01*
Y385446D01*
X1580876Y387985D01*
X1575798D01*
X1573259Y385446D01*
Y380367D01*
X1575798Y377828D01*
X1588494Y387985D02*
Y377828D01*
Y382906D01*
X1591033Y385446D01*
X1593572Y387985D01*
X1596111D01*
X1608807Y372750D02*
X1611346D01*
X1613885Y375289D01*
Y387985D01*
X1606268D01*
X1603729Y385446D01*
Y380367D01*
X1606268Y377828D01*
X1613885D01*
X1618964D02*
X1629121Y387985D01*
X1634199Y377828D02*
X1639277D01*
X1636738D01*
Y393063D01*
X1634199D01*
X1646895Y377828D02*
X1651973D01*
X1649434D01*
Y387985D01*
X1646895D01*
X1669747D02*
X1662130D01*
X1659591Y385446D01*
Y380367D01*
X1662130Y377828D01*
X1669747D01*
X1682443D02*
X1677365D01*
X1674826Y380367D01*
Y385446D01*
X1677365Y387985D01*
X1682443D01*
X1684982Y385446D01*
Y382906D01*
X1674826D01*
X1690061Y377828D02*
Y387985D01*
X1697678D01*
X1700218Y385446D01*
Y377828D01*
X1705296D02*
X1712914D01*
X1715453Y380367D01*
X1712914Y382906D01*
X1707835D01*
X1705296Y385446D01*
X1707835Y387985D01*
X1715453D01*
X1728148Y377828D02*
X1723070D01*
X1720531Y380367D01*
Y385446D01*
X1723070Y387985D01*
X1728148D01*
X1730688Y385446D01*
Y382906D01*
X1720531D01*
X1735766Y377828D02*
X1743384D01*
X1745923Y380367D01*
X1743384Y382906D01*
X1738305D01*
X1735766Y385446D01*
X1738305Y387985D01*
X1745923D01*
X1751001Y377828D02*
X1761158Y387985D01*
X1766236Y393063D02*
Y377828D01*
X1773854D01*
X1776393Y380367D01*
Y382906D01*
Y385446D01*
X1773854Y387985D01*
X1766236D01*
X1781471D02*
Y380367D01*
X1784010Y377828D01*
X1791628D01*
Y375289D01*
X1789089Y372750D01*
X1786550D01*
X1791628Y377828D02*
Y387985D01*
X1796706Y385446D02*
X1806863D01*
X1811941Y377828D02*
X1819559D01*
X1822098Y380367D01*
X1819559Y382906D01*
X1814481D01*
X1811941Y385446D01*
X1814481Y387985D01*
X1822098D01*
X1829716D02*
X1834794D01*
X1837333Y385446D01*
Y377828D01*
X1829716D01*
X1827177Y380367D01*
X1829716Y382906D01*
X1837333D01*
X1842412Y377828D02*
X1852568Y387985D01*
X1857647Y390524D02*
X1860186Y393063D01*
X1865264D01*
X1867803Y390524D01*
Y387985D01*
X1865264Y385446D01*
X1862725D01*
X1865264D01*
X1867803Y382906D01*
Y380367D01*
X1865264Y377828D01*
X1860186D01*
X1857647Y380367D01*
X1872882Y377828D02*
Y380367D01*
X1875421D01*
Y377828D01*
X1872882D01*
X1885578Y390524D02*
X1888117Y393063D01*
X1893195D01*
X1895734Y390524D01*
Y380367D01*
X1893195Y377828D01*
X1888117D01*
X1885578Y380367D01*
Y390524D01*
X1900813Y377828D02*
X1910969Y387985D01*
X1916048Y377828D02*
X1921126D01*
X1918587D01*
Y393063D01*
X1916048D01*
X1936361Y377828D02*
X1931283D01*
X1928744Y380367D01*
Y385446D01*
X1931283Y387985D01*
X1936361D01*
X1938900Y385446D01*
Y382906D01*
X1928744D01*
X1949057Y372750D02*
X1951596D01*
X1954135Y375289D01*
Y387985D01*
X1946518D01*
X1943979Y385446D01*
Y380367D01*
X1946518Y377828D01*
X1954135D01*
X1961753Y387985D02*
X1966831D01*
X1969371Y385446D01*
Y377828D01*
X1961753D01*
X1959214Y380367D01*
X1961753Y382906D01*
X1969371D01*
X1974449Y377828D02*
X1979527D01*
X1976988D01*
Y393063D01*
X1974449D01*
X1997301Y387985D02*
X1989684D01*
X1987145Y385446D01*
Y380367D01*
X1989684Y377828D01*
X1997301D01*
X2004919D02*
X2009997D01*
X2012536Y380367D01*
Y385446D01*
X2009997Y387985D01*
X2004919D01*
X2002380Y385446D01*
Y380367D01*
X2004919Y377828D01*
X2027772Y393063D02*
Y377828D01*
X2020154D01*
X2017615Y380367D01*
Y385446D01*
X2020154Y387985D01*
X2027772D01*
X2040468Y377828D02*
X2035389D01*
X2032850Y380367D01*
Y385446D01*
X2035389Y387985D01*
X2040468D01*
X2043007Y385446D01*
Y382906D01*
X2032850D01*
X1233009Y315524D02*
X1230470Y318063D01*
X1225391D01*
X1222852Y315524D01*
Y312985D01*
X1225391Y310445D01*
X1230470D01*
X1233009Y307906D01*
Y305367D01*
X1230470Y302828D01*
X1225391D01*
X1222852Y305367D01*
X1238087Y318063D02*
Y302828D01*
Y310445D01*
X1240626Y312985D01*
X1245705D01*
X1248244Y310445D01*
Y302828D01*
X1255861Y312985D02*
X1260940D01*
X1263479Y310445D01*
Y302828D01*
X1255861D01*
X1253322Y305367D01*
X1255861Y307906D01*
X1263479D01*
X1268557Y312985D02*
Y302828D01*
Y307906D01*
X1271096Y310445D01*
X1273636Y312985D01*
X1276175D01*
X1291410Y302828D02*
X1286331D01*
X1283792Y305367D01*
Y310445D01*
X1286331Y312985D01*
X1291410D01*
X1293949Y310445D01*
Y307906D01*
X1283792D01*
X1314263Y310445D02*
X1324419D01*
X1354889Y312985D02*
X1347272D01*
X1344733Y310445D01*
Y305367D01*
X1347272Y302828D01*
X1354889D01*
X1362507D02*
X1367585D01*
X1370124Y305367D01*
Y310445D01*
X1367585Y312985D01*
X1362507D01*
X1359968Y310445D01*
Y305367D01*
X1362507Y302828D01*
X1375203Y297750D02*
Y312985D01*
X1382820D01*
X1385359Y310445D01*
Y305367D01*
X1382820Y302828D01*
X1375203D01*
X1390438Y312985D02*
Y305367D01*
X1392977Y302828D01*
X1400595D01*
Y300289D01*
X1398055Y297750D01*
X1395516D01*
X1400595Y302828D02*
Y312985D01*
X1423447D02*
X1428526D01*
X1431065Y310445D01*
Y302828D01*
X1423447D01*
X1420908Y305367D01*
X1423447Y307906D01*
X1431065D01*
X1436143Y302828D02*
Y312985D01*
X1443761D01*
X1446300Y310445D01*
Y302828D01*
X1461535Y318063D02*
Y302828D01*
X1453917D01*
X1451378Y305367D01*
Y310445D01*
X1453917Y312985D01*
X1461535D01*
X1481848D02*
Y302828D01*
Y307906D01*
X1484388Y310445D01*
X1486927Y312985D01*
X1489466D01*
X1504701Y302828D02*
X1499622D01*
X1497083Y305367D01*
Y310445D01*
X1499622Y312985D01*
X1504701D01*
X1507240Y310445D01*
Y307906D01*
X1497083D01*
X1522475Y318063D02*
Y302828D01*
X1514858D01*
X1512318Y305367D01*
Y310445D01*
X1514858Y312985D01*
X1522475D01*
X1527554Y302828D02*
X1532632D01*
X1530093D01*
Y312985D01*
X1527554D01*
X1540249Y302828D02*
X1547867D01*
X1550406Y305367D01*
X1547867Y307906D01*
X1542789D01*
X1540249Y310445D01*
X1542789Y312985D01*
X1550406D01*
X1558024Y315524D02*
Y312985D01*
X1555484D01*
X1560563D01*
X1558024D01*
Y305367D01*
X1560563Y302828D01*
X1568180Y312985D02*
Y302828D01*
Y307906D01*
X1570719Y310445D01*
X1573259Y312985D01*
X1575798D01*
X1583415Y302828D02*
X1588494D01*
X1585955D01*
Y312985D01*
X1583415D01*
X1596111Y318063D02*
Y302828D01*
X1603729D01*
X1606268Y305367D01*
Y307906D01*
Y310445D01*
X1603729Y312985D01*
X1596111D01*
X1611346D02*
Y305367D01*
X1613885Y302828D01*
X1621503D01*
Y312985D01*
X1629121Y315524D02*
Y312985D01*
X1626581D01*
X1631660D01*
X1629121D01*
Y305367D01*
X1631660Y302828D01*
X1646895D02*
X1641817D01*
X1639277Y305367D01*
Y310445D01*
X1641817Y312985D01*
X1646895D01*
X1649434Y310445D01*
Y307906D01*
X1639277D01*
X1672287Y315524D02*
Y312985D01*
X1669747D01*
X1674826D01*
X1672287D01*
Y305367D01*
X1674826Y302828D01*
X1682443Y318063D02*
Y302828D01*
Y310445D01*
X1684982Y312985D01*
X1690061D01*
X1692600Y310445D01*
Y302828D01*
X1705296D02*
X1700218D01*
X1697678Y305367D01*
Y310445D01*
X1700218Y312985D01*
X1705296D01*
X1707835Y310445D01*
Y307906D01*
X1697678D01*
X1728149Y302828D02*
Y312985D01*
X1730688D01*
X1733227Y310445D01*
Y302828D01*
Y310445D01*
X1735766Y312985D01*
X1738305Y310445D01*
Y302828D01*
X1745923Y312985D02*
X1751001D01*
X1753540Y310445D01*
Y302828D01*
X1745923D01*
X1743384Y305367D01*
X1745923Y307906D01*
X1753540D01*
X1761158Y315524D02*
Y312985D01*
X1758619D01*
X1763697D01*
X1761158D01*
Y305367D01*
X1763697Y302828D01*
X1778932D02*
X1773854D01*
X1771315Y305367D01*
Y310445D01*
X1773854Y312985D01*
X1778932D01*
X1781471Y310445D01*
Y307906D01*
X1771315D01*
X1786550Y312985D02*
Y302828D01*
Y307906D01*
X1789089Y310445D01*
X1791628Y312985D01*
X1794167D01*
X1801785Y302828D02*
X1806863D01*
X1804324D01*
Y312985D01*
X1801785D01*
X1817020D02*
X1822098D01*
X1824637Y310445D01*
Y302828D01*
X1817020D01*
X1814481Y305367D01*
X1817020Y307906D01*
X1824637D01*
X1829716Y302828D02*
X1834794D01*
X1832255D01*
Y318063D01*
X1829716D01*
X1857647Y302828D02*
X1862725D01*
X1860186D01*
Y312985D01*
X1857647D01*
X1870343Y302828D02*
Y312985D01*
X1877960D01*
X1880499Y310445D01*
Y302828D01*
X1903352Y312985D02*
X1908430D01*
X1910969Y310445D01*
Y302828D01*
X1903352D01*
X1900813Y305367D01*
X1903352Y307906D01*
X1910969D01*
X1916048Y302828D02*
Y312985D01*
X1923665D01*
X1926205Y310445D01*
Y302828D01*
X1931283Y312985D02*
Y305367D01*
X1933822Y302828D01*
X1941440D01*
Y300289D01*
X1938900Y297750D01*
X1936361D01*
X1941440Y302828D02*
Y312985D01*
X1961753Y302828D02*
Y312985D01*
X1964292D01*
X1966831Y310445D01*
Y302828D01*
Y310445D01*
X1969371Y312985D01*
X1971910Y310445D01*
Y302828D01*
X1984606D02*
X1979527D01*
X1976988Y305367D01*
Y310445D01*
X1979527Y312985D01*
X1984606D01*
X1987145Y310445D01*
Y307906D01*
X1976988D01*
X2002380Y318063D02*
Y302828D01*
X1994762D01*
X1992223Y305367D01*
Y310445D01*
X1994762Y312985D01*
X2002380D01*
X2007458Y302828D02*
X2012536D01*
X2009997D01*
Y312985D01*
X2007458D01*
X2020154D02*
Y305367D01*
X2022693Y302828D01*
X2030311D01*
Y312985D01*
X2035389Y302828D02*
Y312985D01*
X2037928D01*
X2040468Y310445D01*
Y302828D01*
Y310445D01*
X2043007Y312985D01*
X2045546Y310445D01*
Y302828D01*
X2068398D02*
X2073477D01*
X2076016Y305367D01*
Y310445D01*
X2073477Y312985D01*
X2068398D01*
X2065859Y310445D01*
Y305367D01*
X2068398Y302828D01*
X2081094Y312985D02*
Y302828D01*
Y307906D01*
X2083634Y310445D01*
X2086173Y312985D01*
X2088712D01*
X2114104Y302828D02*
Y315524D01*
Y310445D01*
X2111564D01*
X2116643D01*
X2114104D01*
Y315524D01*
X2116643Y318063D01*
X2126800Y302828D02*
X2131878D01*
X2134417Y305367D01*
Y310445D01*
X2131878Y312985D01*
X2126800D01*
X2124260Y310445D01*
Y305367D01*
X2126800Y302828D01*
X2139496Y312985D02*
Y302828D01*
Y307906D01*
X2142035Y310445D01*
X2144574Y312985D01*
X2147113D01*
X2154731Y302828D02*
Y312985D01*
X2157270D01*
X2159809Y310445D01*
Y302828D01*
Y310445D01*
X2162348Y312985D01*
X2164887Y310445D01*
Y302828D01*
X2172505Y312985D02*
X2177583D01*
X2180122Y310445D01*
Y302828D01*
X2172505D01*
X2169966Y305367D01*
X2172505Y307906D01*
X2180122D01*
X2187740Y315524D02*
Y312985D01*
X2185201D01*
X2190279D01*
X2187740D01*
Y305367D01*
X2190279Y302828D01*
X1222852Y277828D02*
Y287985D01*
X1227930Y293063D01*
X1233009Y287985D01*
Y277828D01*
Y285445D01*
X1222852D01*
X1248244Y293063D02*
Y277828D01*
X1240626D01*
X1238087Y280367D01*
Y285445D01*
X1240626Y287985D01*
X1248244D01*
X1255861D02*
X1260940D01*
X1263479Y285445D01*
Y277828D01*
X1255861D01*
X1253322Y280367D01*
X1255861Y282906D01*
X1263479D01*
X1268557Y272750D02*
Y287985D01*
X1276175D01*
X1278714Y285445D01*
Y280367D01*
X1276175Y277828D01*
X1268557D01*
X1286331Y290524D02*
Y287985D01*
X1283792D01*
X1288871D01*
X1286331D01*
Y280367D01*
X1288871Y277828D01*
X1311723Y285445D02*
X1321880D01*
X1342193Y287985D02*
Y277828D01*
Y282906D01*
X1344733Y285445D01*
X1347272Y287985D01*
X1349811D01*
X1365046Y277828D02*
X1359968D01*
X1357428Y280367D01*
Y285445D01*
X1359968Y287985D01*
X1365046D01*
X1367585Y285445D01*
Y282906D01*
X1357428D01*
X1372664Y277828D02*
Y287985D01*
X1375203D01*
X1377742Y285445D01*
Y277828D01*
Y285445D01*
X1380281Y287985D01*
X1382820Y285445D01*
Y277828D01*
X1387899D02*
X1392977D01*
X1390438D01*
Y287985D01*
X1387899D01*
X1400594D02*
X1410751Y277828D01*
X1405673Y282906D01*
X1410751Y287985D01*
X1400594Y277828D01*
X1418369Y275289D02*
X1420908Y277828D01*
Y280367D01*
X1418369D01*
Y277828D01*
X1420908D01*
X1418369Y275289D01*
X1415830Y272750D01*
X1448839Y290524D02*
Y287985D01*
X1446300D01*
X1451378D01*
X1448839D01*
Y280367D01*
X1451378Y277828D01*
X1458996Y287985D02*
Y277828D01*
Y282906D01*
X1461535Y285445D01*
X1464074Y287985D01*
X1466613D01*
X1476770D02*
X1481848D01*
X1484387Y285445D01*
Y277828D01*
X1476770D01*
X1474231Y280367D01*
X1476770Y282906D01*
X1484387D01*
X1489466Y277828D02*
Y287985D01*
X1497083D01*
X1499622Y285445D01*
Y277828D01*
X1504701D02*
X1512318D01*
X1514858Y280367D01*
X1512318Y282906D01*
X1507240D01*
X1504701Y285445D01*
X1507240Y287985D01*
X1514858D01*
X1522475Y277828D02*
Y290524D01*
Y285445D01*
X1519936D01*
X1525014D01*
X1522475D01*
Y290524D01*
X1525014Y293063D01*
X1535171Y277828D02*
X1540249D01*
X1542789Y280367D01*
Y285445D01*
X1540249Y287985D01*
X1535171D01*
X1532632Y285445D01*
Y280367D01*
X1535171Y277828D01*
X1547867Y287985D02*
Y277828D01*
Y282906D01*
X1550406Y285445D01*
X1552945Y287985D01*
X1555484D01*
X1563102Y277828D02*
Y287985D01*
X1565641D01*
X1568180Y285445D01*
Y277828D01*
Y285445D01*
X1570719Y287985D01*
X1573259Y285445D01*
Y277828D01*
X1580876Y275289D02*
X1583415Y277828D01*
Y280367D01*
X1580876D01*
Y277828D01*
X1583415D01*
X1580876Y275289D01*
X1578337Y272750D01*
X1611346Y287985D02*
X1616425D01*
X1618964Y285445D01*
Y277828D01*
X1611346D01*
X1608807Y280367D01*
X1611346Y282906D01*
X1618964D01*
X1624042Y277828D02*
Y287985D01*
X1631660D01*
X1634199Y285445D01*
Y277828D01*
X1649434Y293063D02*
Y277828D01*
X1641817D01*
X1639277Y280367D01*
Y285445D01*
X1641817Y287985D01*
X1649434D01*
X1669747Y293063D02*
Y277828D01*
X1677365D01*
X1679904Y280367D01*
Y282906D01*
Y285445D01*
X1677365Y287985D01*
X1669747D01*
X1684982D02*
Y280367D01*
X1687522Y277828D01*
X1695139D01*
Y287985D01*
X1700218Y277828D02*
X1705296D01*
X1702757D01*
Y287985D01*
X1700218D01*
X1712914Y277828D02*
X1717992D01*
X1715453D01*
Y293063D01*
X1712914D01*
X1735766D02*
Y277828D01*
X1728149D01*
X1725609Y280367D01*
Y285445D01*
X1728149Y287985D01*
X1735766D01*
X1756080D02*
Y280367D01*
X1758619Y277828D01*
X1766236D01*
Y287985D01*
X1771315Y272750D02*
Y287985D01*
X1778932D01*
X1781471Y285445D01*
Y280367D01*
X1778932Y277828D01*
X1771315D01*
X1789089D02*
X1794167D01*
X1796706Y280367D01*
Y285445D01*
X1794167Y287985D01*
X1789089D01*
X1786550Y285445D01*
Y280367D01*
X1789089Y277828D01*
X1801785D02*
Y287985D01*
X1809402D01*
X1811942Y285445D01*
Y277828D01*
X1834794Y290524D02*
Y287985D01*
X1832255D01*
X1837333D01*
X1834794D01*
Y280367D01*
X1837333Y277828D01*
X1844951Y293063D02*
Y277828D01*
Y285445D01*
X1847490Y287985D01*
X1852568D01*
X1855108Y285445D01*
Y277828D01*
X1867803D02*
X1862725D01*
X1860186Y280367D01*
Y285445D01*
X1862725Y287985D01*
X1867803D01*
X1870343Y285445D01*
Y282906D01*
X1860186D01*
X1890656Y277828D02*
Y287985D01*
X1893195D01*
X1895734Y285445D01*
Y277828D01*
Y285445D01*
X1898273Y287985D01*
X1900813Y285445D01*
Y277828D01*
X1908430Y287985D02*
X1913509D01*
X1916048Y285445D01*
Y277828D01*
X1908430D01*
X1905891Y280367D01*
X1908430Y282906D01*
X1916048D01*
X1923665Y290524D02*
Y287985D01*
X1921126D01*
X1926205D01*
X1923665D01*
Y280367D01*
X1926205Y277828D01*
X1941440D02*
X1936361D01*
X1933822Y280367D01*
Y285445D01*
X1936361Y287985D01*
X1941440D01*
X1943979Y285445D01*
Y282906D01*
X1933822D01*
X1949057Y287985D02*
Y277828D01*
Y282906D01*
X1951596Y285445D01*
X1954135Y287985D01*
X1956675D01*
X1964292Y277828D02*
X1969371D01*
X1966831D01*
Y287985D01*
X1964292D01*
X1979527D02*
X1984606D01*
X1987145Y285445D01*
Y277828D01*
X1979527D01*
X1976988Y280367D01*
X1979527Y282906D01*
X1987145D01*
X1992223Y277828D02*
X1997301D01*
X1994762D01*
Y293063D01*
X1992223D01*
X1225391Y252828D02*
Y265524D01*
Y260445D01*
X1222852D01*
X1227930D01*
X1225391D01*
Y265524D01*
X1227930Y268063D01*
X1238087Y252828D02*
X1243166D01*
X1245705Y255367D01*
Y260445D01*
X1243166Y262985D01*
X1238087D01*
X1235548Y260445D01*
Y255367D01*
X1238087Y252828D01*
X1250783Y262985D02*
Y252828D01*
Y257906D01*
X1253322Y260445D01*
X1255861Y262985D01*
X1258400D01*
X1283792D02*
X1288871D01*
X1291410Y260445D01*
Y252828D01*
X1283792D01*
X1281253Y255367D01*
X1283792Y257906D01*
X1291410D01*
X1296488Y252828D02*
Y262985D01*
X1304106D01*
X1306645Y260445D01*
Y252828D01*
X1311723Y262985D02*
Y255367D01*
X1314263Y252828D01*
X1321880D01*
Y250289D01*
X1319341Y247750D01*
X1316802D01*
X1321880Y252828D02*
Y262985D01*
X1342193Y247750D02*
Y262985D01*
X1349811D01*
X1352350Y260445D01*
Y255367D01*
X1349811Y252828D01*
X1342193D01*
X1357428Y262985D02*
Y255367D01*
X1359968Y252828D01*
X1367585D01*
Y262985D01*
X1372664D02*
Y252828D01*
Y257906D01*
X1375203Y260445D01*
X1377742Y262985D01*
X1380281D01*
X1387899Y247750D02*
Y262985D01*
X1395516D01*
X1398055Y260445D01*
Y255367D01*
X1395516Y252828D01*
X1387899D01*
X1405673D02*
X1410751D01*
X1413290Y255367D01*
Y260445D01*
X1410751Y262985D01*
X1405673D01*
X1403134Y260445D01*
Y255367D01*
X1405673Y252828D01*
X1418369D02*
X1425986D01*
X1428526Y255367D01*
X1425986Y257906D01*
X1420908D01*
X1418369Y260445D01*
X1420908Y262985D01*
X1428526D01*
X1441221Y252828D02*
X1436143D01*
X1433604Y255367D01*
Y260445D01*
X1436143Y262985D01*
X1441221D01*
X1443761Y260445D01*
Y257906D01*
X1433604D01*
X1451378Y250289D02*
X1453917Y252828D01*
Y255367D01*
X1451378D01*
Y252828D01*
X1453917D01*
X1451378Y250289D01*
X1448839Y247750D01*
X1486927Y252828D02*
X1481848D01*
X1479309Y255367D01*
Y260445D01*
X1481848Y262985D01*
X1486927D01*
X1489466Y260445D01*
Y257906D01*
X1479309D01*
X1494544Y262985D02*
X1499622Y252828D01*
X1504701Y262985D01*
X1517397Y252828D02*
X1512318D01*
X1509779Y255367D01*
Y260445D01*
X1512318Y262985D01*
X1517397D01*
X1519936Y260445D01*
Y257906D01*
X1509779D01*
X1525014Y252828D02*
Y262985D01*
X1532632D01*
X1535171Y260445D01*
Y252828D01*
X1565641Y262985D02*
X1558024D01*
X1555484Y260445D01*
Y255367D01*
X1558024Y252828D01*
X1565641D01*
X1573259D02*
X1578337D01*
X1580876Y255367D01*
Y260445D01*
X1578337Y262985D01*
X1573259D01*
X1570719Y260445D01*
Y255367D01*
X1573259Y252828D01*
X1585955D02*
Y262985D01*
X1588494D01*
X1591033Y260445D01*
Y252828D01*
Y260445D01*
X1593572Y262985D01*
X1596111Y260445D01*
Y252828D01*
X1601190D02*
Y262985D01*
X1603729D01*
X1606268Y260445D01*
Y252828D01*
Y260445D01*
X1608807Y262985D01*
X1611346Y260445D01*
Y252828D01*
X1624042D02*
X1618964D01*
X1616425Y255367D01*
Y260445D01*
X1618964Y262985D01*
X1624042D01*
X1626582Y260445D01*
Y257906D01*
X1616425D01*
X1631660Y262985D02*
Y252828D01*
Y257906D01*
X1634199Y260445D01*
X1636738Y262985D01*
X1639277D01*
X1657052D02*
X1649434D01*
X1646895Y260445D01*
Y255367D01*
X1649434Y252828D01*
X1657052D01*
X1662130D02*
X1667208D01*
X1664669D01*
Y262985D01*
X1662130D01*
X1677365D02*
X1682443D01*
X1684983Y260445D01*
Y252828D01*
X1677365D01*
X1674826Y255367D01*
X1677365Y257906D01*
X1684983D01*
X1690061Y252828D02*
X1695139D01*
X1692600D01*
Y268063D01*
X1690061D01*
X1702757Y252828D02*
X1707835D01*
X1705296D01*
Y268063D01*
X1702757D01*
X1715453Y262985D02*
Y255367D01*
X1717992Y252828D01*
X1725609D01*
Y250289D01*
X1723070Y247750D01*
X1720531D01*
X1725609Y252828D02*
Y262985D01*
X1730688Y252828D02*
Y255367D01*
X1733227D01*
Y252828D01*
X1730688D01*
X1222852Y218063D02*
X1233009D01*
X1227930D01*
Y202828D01*
X1238087Y218063D02*
Y202828D01*
Y210445D01*
X1240626Y212985D01*
X1245705D01*
X1248244Y210445D01*
Y202828D01*
X1260940D02*
X1255861D01*
X1253322Y205367D01*
Y210445D01*
X1255861Y212985D01*
X1260940D01*
X1263479Y210445D01*
Y207906D01*
X1253322D01*
X1283792Y202828D02*
X1288871D01*
X1286331D01*
Y218063D01*
X1283792D01*
X1296488Y202828D02*
X1301567D01*
X1299027D01*
Y212985D01*
X1296488D01*
X1319341D02*
X1311723D01*
X1309184Y210445D01*
Y205367D01*
X1311723Y202828D01*
X1319341D01*
X1332037D02*
X1326958D01*
X1324419Y205367D01*
Y210445D01*
X1326958Y212985D01*
X1332037D01*
X1334576Y210445D01*
Y207906D01*
X1324419D01*
X1339654Y202828D02*
Y212985D01*
X1347272D01*
X1349811Y210445D01*
Y202828D01*
X1354889D02*
X1362507D01*
X1365046Y205367D01*
X1362507Y207906D01*
X1357428D01*
X1354889Y210445D01*
X1357428Y212985D01*
X1365046D01*
X1372664Y202828D02*
X1377742D01*
X1380281Y205367D01*
Y210445D01*
X1377742Y212985D01*
X1372664D01*
X1370124Y210445D01*
Y205367D01*
X1372664Y202828D01*
X1385359Y212985D02*
Y202828D01*
Y207906D01*
X1387899Y210445D01*
X1390438Y212985D01*
X1392977D01*
X1425986D02*
X1418369D01*
X1415830Y210445D01*
Y205367D01*
X1418369Y202828D01*
X1425986D01*
X1433604Y212985D02*
X1438682D01*
X1441221Y210445D01*
Y202828D01*
X1433604D01*
X1431065Y205367D01*
X1433604Y207906D01*
X1441221D01*
X1446300Y202828D02*
Y212985D01*
X1453917D01*
X1456456Y210445D01*
Y202828D01*
X1461535D02*
Y212985D01*
X1469152D01*
X1471691Y210445D01*
Y202828D01*
X1479309D02*
X1484387D01*
X1486927Y205367D01*
Y210445D01*
X1484387Y212985D01*
X1479309D01*
X1476770Y210445D01*
Y205367D01*
X1479309Y202828D01*
X1494544Y215524D02*
Y212985D01*
X1492005D01*
X1497083D01*
X1494544D01*
Y205367D01*
X1497083Y202828D01*
X1519936Y212985D02*
Y202828D01*
Y207906D01*
X1522475Y210445D01*
X1525014Y212985D01*
X1527554D01*
X1542789Y202828D02*
X1537710D01*
X1535171Y205367D01*
Y210445D01*
X1537710Y212985D01*
X1542789D01*
X1545328Y210445D01*
Y207906D01*
X1535171D01*
X1550406Y212985D02*
X1555484Y202828D01*
X1560563Y212985D01*
X1568180Y202828D02*
X1573259D01*
X1575798Y205367D01*
Y210445D01*
X1573259Y212985D01*
X1568180D01*
X1565641Y210445D01*
Y205367D01*
X1568180Y202828D01*
X1580876D02*
Y218063D01*
Y207906D02*
X1588494Y212985D01*
X1580876Y207906D02*
X1588494Y202828D01*
X1603729D02*
X1598651D01*
X1596111Y205367D01*
Y210445D01*
X1598651Y212985D01*
X1603729D01*
X1606268Y210445D01*
Y207906D01*
X1596111D01*
X1629121Y215524D02*
Y212985D01*
X1626581D01*
X1631660D01*
X1629121D01*
Y205367D01*
X1631660Y202828D01*
X1639277Y218063D02*
Y202828D01*
Y210445D01*
X1641817Y212985D01*
X1646895D01*
X1649434Y210445D01*
Y202828D01*
X1662130D02*
X1657052D01*
X1654512Y205367D01*
Y210445D01*
X1657052Y212985D01*
X1662130D01*
X1664669Y210445D01*
Y207906D01*
X1654512D01*
X1669747Y202828D02*
X1677365D01*
X1679904Y205367D01*
X1677365Y207906D01*
X1672287D01*
X1669747Y210445D01*
X1672287Y212985D01*
X1679904D01*
X1692600Y202828D02*
X1687522D01*
X1684982Y205367D01*
Y210445D01*
X1687522Y212985D01*
X1692600D01*
X1695139Y210445D01*
Y207906D01*
X1684982D01*
X1717992Y202828D02*
Y215524D01*
Y210445D01*
X1715453D01*
X1720531D01*
X1717992D01*
Y215524D01*
X1720531Y218063D01*
X1728149Y212985D02*
Y202828D01*
Y207906D01*
X1730688Y210445D01*
X1733227Y212985D01*
X1735766D01*
X1751001Y202828D02*
X1745923D01*
X1743384Y205367D01*
Y210445D01*
X1745923Y212985D01*
X1751001D01*
X1753540Y210445D01*
Y207906D01*
X1743384D01*
X1766236Y202828D02*
X1761158D01*
X1758619Y205367D01*
Y210445D01*
X1761158Y212985D01*
X1766236D01*
X1768775Y210445D01*
Y207906D01*
X1758619D01*
X1784010Y218063D02*
Y202828D01*
X1776393D01*
X1773854Y205367D01*
Y210445D01*
X1776393Y212985D01*
X1784010D01*
X1791628Y202828D02*
X1796706D01*
X1799246Y205367D01*
Y210445D01*
X1796706Y212985D01*
X1791628D01*
X1789089Y210445D01*
Y205367D01*
X1791628Y202828D01*
X1804324D02*
Y212985D01*
X1806863D01*
X1809402Y210445D01*
Y202828D01*
Y210445D01*
X1811942Y212985D01*
X1814481Y210445D01*
Y202828D01*
X1819559D02*
X1827177D01*
X1829716Y205367D01*
X1827177Y207906D01*
X1822098D01*
X1819559Y210445D01*
X1822098Y212985D01*
X1829716D01*
X1852568D02*
X1857647D01*
X1860186Y210445D01*
Y202828D01*
X1852568D01*
X1850029Y205367D01*
X1852568Y207906D01*
X1860186D01*
X1865264Y202828D02*
X1872882D01*
X1875421Y205367D01*
X1872882Y207906D01*
X1867803D01*
X1865264Y210445D01*
X1867803Y212985D01*
X1875421D01*
X1895734Y202828D02*
X1900813D01*
X1898273D01*
Y218063D01*
X1895734D01*
X1910969Y202828D02*
X1916048D01*
X1918587Y205367D01*
Y210445D01*
X1916048Y212985D01*
X1910969D01*
X1908430Y210445D01*
Y205367D01*
X1910969Y202828D01*
X1923665D02*
Y212985D01*
X1931283D01*
X1933822Y210445D01*
Y202828D01*
X1943979Y197750D02*
X1946518D01*
X1949057Y200289D01*
Y212985D01*
X1941440D01*
X1938900Y210445D01*
Y205367D01*
X1941440Y202828D01*
X1949057D01*
X1971910Y212985D02*
X1976988D01*
X1979527Y210445D01*
Y202828D01*
X1971910D01*
X1969371Y205367D01*
X1971910Y207906D01*
X1979527D01*
X1984606Y202828D02*
X1992223D01*
X1994762Y205367D01*
X1992223Y207906D01*
X1987145D01*
X1984606Y210445D01*
X1987145Y212985D01*
X1994762D01*
X2015076D02*
Y205367D01*
X2017615Y202828D01*
X2025233D01*
Y200289D01*
X2022693Y197750D01*
X2020154D01*
X2025233Y202828D02*
Y212985D01*
X2032850Y202828D02*
X2037928D01*
X2040468Y205367D01*
Y210445D01*
X2037928Y212985D01*
X2032850D01*
X2030311Y210445D01*
Y205367D01*
X2032850Y202828D01*
X2045546Y212985D02*
Y205367D01*
X2048085Y202828D01*
X2055703D01*
Y212985D01*
X2078555Y202828D02*
Y215524D01*
Y210445D01*
X2076016D01*
X2081094D01*
X2078555D01*
Y215524D01*
X2081094Y218063D01*
X2091251Y202828D02*
X2096329D01*
X2098869Y205367D01*
Y210445D01*
X2096329Y212985D01*
X2091251D01*
X2088712Y210445D01*
Y205367D01*
X2091251Y202828D01*
X2103947D02*
X2109025D01*
X2106486D01*
Y218063D01*
X2103947D01*
X2116643Y202828D02*
X2121721D01*
X2119182D01*
Y218063D01*
X2116643D01*
X2131878Y202828D02*
X2136956D01*
X2139496Y205367D01*
Y210445D01*
X2136956Y212985D01*
X2131878D01*
X2129339Y210445D01*
Y205367D01*
X2131878Y202828D01*
X2144574Y212985D02*
Y205367D01*
X2147113Y202828D01*
X2149652Y205367D01*
X2152191Y202828D01*
X2154731Y205367D01*
Y212985D01*
X2177583Y215524D02*
Y212985D01*
X2175044D01*
X2180122D01*
X2177583D01*
Y205367D01*
X2180122Y202828D01*
X2187740Y218063D02*
Y202828D01*
Y210445D01*
X2190279Y212985D01*
X2195357D01*
X2197897Y210445D01*
Y202828D01*
X2210592D02*
X2205514D01*
X2202975Y205367D01*
Y210445D01*
X2205514Y212985D01*
X2210592D01*
X2213132Y210445D01*
Y207906D01*
X2202975D01*
X2233445Y202828D02*
X2238523D01*
X2235984D01*
Y218063D01*
X2233445D01*
X2246141Y202828D02*
X2251219D01*
X2248680D01*
Y212985D01*
X2246141D01*
X2268994D02*
X2261376D01*
X2258837Y210445D01*
Y205367D01*
X2261376Y202828D01*
X2268994D01*
X2281689D02*
X2276611D01*
X2274072Y205367D01*
Y210445D01*
X2276611Y212985D01*
X2281689D01*
X2284229Y210445D01*
Y207906D01*
X2274072D01*
X2289307Y202828D02*
Y212985D01*
X2296924D01*
X2299464Y210445D01*
Y202828D01*
X2304542D02*
X2312160D01*
X2314699Y205367D01*
X2312160Y207906D01*
X2307081D01*
X2304542Y210445D01*
X2307081Y212985D01*
X2314699D01*
X2327395Y202828D02*
X2322316D01*
X2319777Y205367D01*
Y210445D01*
X2322316Y212985D01*
X2327395D01*
X2329934Y210445D01*
Y207906D01*
X2319777D01*
X2352787Y215524D02*
Y212985D01*
X2350247D01*
X2355326D01*
X2352787D01*
Y205367D01*
X2355326Y202828D01*
X2370561D02*
X2365482D01*
X2362943Y205367D01*
Y210445D01*
X2365482Y212985D01*
X2370561D01*
X2373100Y210445D01*
Y207906D01*
X2362943D01*
X2378178Y212985D02*
Y202828D01*
Y207906D01*
X2380717Y210445D01*
X2383257Y212985D01*
X2385796D01*
X2393413Y202828D02*
Y212985D01*
X2395952D01*
X2398492Y210445D01*
Y202828D01*
Y210445D01*
X2401031Y212985D01*
X2403570Y210445D01*
Y202828D01*
X2408648D02*
X2416266D01*
X2418805Y205367D01*
X2416266Y207906D01*
X2411188D01*
X2408648Y210445D01*
X2411188Y212985D01*
X2418805D01*
X2423884Y202828D02*
Y205367D01*
X2426423D01*
Y202828D01*
X2423884D01*
X1222852Y168063D02*
Y155367D01*
X1225391Y152828D01*
X1230470D01*
X1233009Y155367D01*
Y168063D01*
X1238087Y152828D02*
Y162985D01*
X1245705D01*
X1248244Y160445D01*
Y152828D01*
X1263479Y168063D02*
Y152828D01*
X1255861D01*
X1253322Y155367D01*
Y160445D01*
X1255861Y162985D01*
X1263479D01*
X1276175Y152828D02*
X1271096D01*
X1268557Y155367D01*
Y160445D01*
X1271096Y162985D01*
X1276175D01*
X1278714Y160445D01*
Y157906D01*
X1268557D01*
X1283792Y162985D02*
Y152828D01*
Y157906D01*
X1286331Y160445D01*
X1288871Y162985D01*
X1291410D01*
X1316802Y165524D02*
Y162985D01*
X1314263D01*
X1319341D01*
X1316802D01*
Y155367D01*
X1319341Y152828D01*
X1326958Y168063D02*
Y152828D01*
Y160445D01*
X1329498Y162985D01*
X1334576D01*
X1337115Y160445D01*
Y152828D01*
X1349811D02*
X1344733D01*
X1342193Y155367D01*
Y160445D01*
X1344733Y162985D01*
X1349811D01*
X1352350Y160445D01*
Y157906D01*
X1342193D01*
X1375203Y152828D02*
Y165524D01*
Y160445D01*
X1372664D01*
X1377742D01*
X1375203D01*
Y165524D01*
X1377742Y168063D01*
X1387899Y152828D02*
X1392977D01*
X1395516Y155367D01*
Y160445D01*
X1392977Y162985D01*
X1387899D01*
X1385359Y160445D01*
Y155367D01*
X1387899Y152828D01*
X1400594D02*
X1405673D01*
X1403134D01*
Y168063D01*
X1400594D01*
X1413290Y152828D02*
X1418369D01*
X1415830D01*
Y168063D01*
X1413290D01*
X1428526Y152828D02*
X1433604D01*
X1436143Y155367D01*
Y160445D01*
X1433604Y162985D01*
X1428526D01*
X1425986Y160445D01*
Y155367D01*
X1428526Y152828D01*
X1441221Y162985D02*
Y155367D01*
X1443761Y152828D01*
X1446300Y155367D01*
X1448839Y152828D01*
X1451378Y155367D01*
Y162985D01*
X1456456Y152828D02*
X1461535D01*
X1458996D01*
Y162985D01*
X1456456D01*
X1469152Y152828D02*
Y162985D01*
X1476770D01*
X1479309Y160445D01*
Y152828D01*
X1489466Y147750D02*
X1492005D01*
X1494544Y150289D01*
Y162985D01*
X1486927D01*
X1484387Y160445D01*
Y155367D01*
X1486927Y152828D01*
X1494544D01*
X1517397Y165524D02*
Y162985D01*
X1514857D01*
X1519936D01*
X1517397D01*
Y155367D01*
X1519936Y152828D01*
X1535171D02*
X1530093D01*
X1527553Y155367D01*
Y160445D01*
X1530093Y162985D01*
X1535171D01*
X1537710Y160445D01*
Y157906D01*
X1527553D01*
X1542789Y162985D02*
Y152828D01*
Y157906D01*
X1545328Y160445D01*
X1547867Y162985D01*
X1550406D01*
X1558024Y152828D02*
Y162985D01*
X1560563D01*
X1563102Y160445D01*
Y152828D01*
Y160445D01*
X1565641Y162985D01*
X1568180Y160445D01*
Y152828D01*
X1573259D02*
X1580876D01*
X1583415Y155367D01*
X1580876Y157906D01*
X1575798D01*
X1573259Y160445D01*
X1575798Y162985D01*
X1583415D01*
X1588494D02*
X1591033D01*
Y160445D01*
X1588494D01*
Y162985D01*
Y155367D02*
X1591033D01*
Y152828D01*
X1588494D01*
Y155367D01*
X1222852Y127828D02*
Y137985D01*
X1227930Y143063D01*
X1233009Y137985D01*
Y127828D01*
Y135445D01*
X1222852D01*
X1240626Y140524D02*
Y137985D01*
X1238087D01*
X1243166D01*
X1240626D01*
Y130367D01*
X1243166Y127828D01*
X1253322Y140524D02*
Y137985D01*
X1250783D01*
X1255861D01*
X1253322D01*
Y130367D01*
X1255861Y127828D01*
X1263479Y137985D02*
Y127828D01*
Y132906D01*
X1266018Y135445D01*
X1268557Y137985D01*
X1271096D01*
X1278714Y127828D02*
X1283792D01*
X1281253D01*
Y137985D01*
X1278714D01*
X1291410Y143063D02*
Y127828D01*
X1299027D01*
X1301567Y130367D01*
Y132906D01*
Y135445D01*
X1299027Y137985D01*
X1291410D01*
X1306645D02*
Y130367D01*
X1309184Y127828D01*
X1316802D01*
Y137985D01*
X1324419Y140524D02*
Y137985D01*
X1321880D01*
X1326958D01*
X1324419D01*
Y130367D01*
X1326958Y127828D01*
X1334576D02*
X1339654D01*
X1337115D01*
Y137985D01*
X1334576D01*
X1349811Y127828D02*
X1354889D01*
X1357428Y130367D01*
Y135445D01*
X1354889Y137985D01*
X1349811D01*
X1347272Y135445D01*
Y130367D01*
X1349811Y127828D01*
X1362507D02*
Y137985D01*
X1370124D01*
X1372664Y135445D01*
Y127828D01*
X1392977Y135445D02*
X1403134D01*
X1423447Y143063D02*
Y140524D01*
X1428526Y135445D01*
X1433604Y140524D01*
Y143063D01*
X1428526Y135445D02*
Y127828D01*
X1441221D02*
X1446300D01*
X1448839Y130367D01*
Y135445D01*
X1446300Y137985D01*
X1441221D01*
X1438682Y135445D01*
Y130367D01*
X1441221Y127828D01*
X1453917Y137985D02*
Y130367D01*
X1456456Y127828D01*
X1464074D01*
Y137985D01*
X1484387Y127828D02*
Y137985D01*
X1486927D01*
X1489466Y135445D01*
Y127828D01*
Y135445D01*
X1492005Y137985D01*
X1494544Y135445D01*
Y127828D01*
X1499622Y137985D02*
Y130367D01*
X1502162Y127828D01*
X1509779D01*
Y137985D01*
X1514857Y127828D02*
X1522475D01*
X1525014Y130367D01*
X1522475Y132906D01*
X1517397D01*
X1514857Y135445D01*
X1517397Y137985D01*
X1525014D01*
X1532632Y140524D02*
Y137985D01*
X1530093D01*
X1535171D01*
X1532632D01*
Y130367D01*
X1535171Y127828D01*
X1563102Y122750D02*
X1565641D01*
X1568180Y125289D01*
Y137985D01*
X1560563D01*
X1558024Y135445D01*
Y130367D01*
X1560563Y127828D01*
X1568180D01*
X1573259D02*
X1578337D01*
X1575798D01*
Y137985D01*
X1573259D01*
X1585954D02*
X1591033Y127828D01*
X1596111Y137985D01*
X1608807Y127828D02*
X1603729D01*
X1601190Y130367D01*
Y135445D01*
X1603729Y137985D01*
X1608807D01*
X1611346Y135445D01*
Y132906D01*
X1601190D01*
X1634199Y137985D02*
X1639277D01*
X1641817Y135445D01*
Y127828D01*
X1634199D01*
X1631660Y130367D01*
X1634199Y132906D01*
X1641817D01*
X1646895Y122750D02*
Y137985D01*
X1654512D01*
X1657052Y135445D01*
Y130367D01*
X1654512Y127828D01*
X1646895D01*
X1662130Y122750D02*
Y137985D01*
X1669747D01*
X1672287Y135445D01*
Y130367D01*
X1669747Y127828D01*
X1662130D01*
X1677365Y137985D02*
Y127828D01*
Y132906D01*
X1679904Y135445D01*
X1682443Y137985D01*
X1684982D01*
X1695139Y127828D02*
X1700218D01*
X1702757Y130367D01*
Y135445D01*
X1700218Y137985D01*
X1695139D01*
X1692600Y135445D01*
Y130367D01*
X1695139Y127828D01*
X1707835Y122750D02*
Y137985D01*
X1715453D01*
X1717992Y135445D01*
Y130367D01*
X1715453Y127828D01*
X1707835D01*
X1723070Y137985D02*
Y127828D01*
Y132906D01*
X1725609Y135445D01*
X1728148Y137985D01*
X1730688D01*
X1738305Y127828D02*
X1743384D01*
X1740844D01*
Y137985D01*
X1738305D01*
X1753540D02*
X1758619D01*
X1761158Y135445D01*
Y127828D01*
X1753540D01*
X1751001Y130367D01*
X1753540Y132906D01*
X1761158D01*
X1768775Y140524D02*
Y137985D01*
X1766236D01*
X1771315D01*
X1768775D01*
Y130367D01*
X1771315Y127828D01*
X1786550D02*
X1781471D01*
X1778932Y130367D01*
Y135445D01*
X1781471Y137985D01*
X1786550D01*
X1789089Y135445D01*
Y132906D01*
X1778932D01*
X1819559Y137985D02*
X1811941D01*
X1809402Y135445D01*
Y130367D01*
X1811941Y127828D01*
X1819559D01*
X1824637Y137985D02*
Y127828D01*
Y132906D01*
X1827177Y135445D01*
X1829716Y137985D01*
X1832255D01*
X1847490Y127828D02*
X1842412D01*
X1839872Y130367D01*
Y135445D01*
X1842412Y137985D01*
X1847490D01*
X1850029Y135445D01*
Y132906D01*
X1839872D01*
X1865264Y143063D02*
Y127828D01*
X1857647D01*
X1855108Y130367D01*
Y135445D01*
X1857647Y137985D01*
X1865264D01*
X1870343Y127828D02*
X1875421D01*
X1872882D01*
Y137985D01*
X1870343D01*
X1885578Y140524D02*
Y137985D01*
X1883038D01*
X1888117D01*
X1885578D01*
Y130367D01*
X1888117Y127828D01*
X1898273Y125289D02*
X1900813Y127828D01*
Y130367D01*
X1898273D01*
Y127828D01*
X1900813D01*
X1898273Y125289D01*
X1895734Y122750D01*
X1926205D02*
Y137985D01*
X1933822D01*
X1936361Y135445D01*
Y130367D01*
X1933822Y127828D01*
X1926205D01*
X1941440Y137985D02*
Y127828D01*
Y132906D01*
X1943979Y135445D01*
X1946518Y137985D01*
X1949057D01*
X1959214Y127828D02*
X1964292D01*
X1966831Y130367D01*
Y135445D01*
X1964292Y137985D01*
X1959214D01*
X1956675Y135445D01*
Y130367D01*
X1959214Y127828D01*
X1971910Y137985D02*
X1976988Y127828D01*
X1982066Y137985D01*
X1987145Y127828D02*
X1992223D01*
X1989684D01*
Y137985D01*
X1987145D01*
X2009997Y143063D02*
Y127828D01*
X2002380D01*
X1999841Y130367D01*
Y135445D01*
X2002380Y137985D01*
X2009997D01*
X2022693Y127828D02*
X2017615D01*
X2015076Y130367D01*
Y135445D01*
X2017615Y137985D01*
X2022693D01*
X2025232Y135445D01*
Y132906D01*
X2015076D01*
X2048085Y137985D02*
X2053163D01*
X2055703Y135445D01*
Y127828D01*
X2048085D01*
X2045546Y130367D01*
X2048085Y132906D01*
X2055703D01*
X2076016Y127828D02*
X2081094D01*
X2078555D01*
Y143063D01*
X2076016D01*
X2088712Y127828D02*
X2093790D01*
X2091251D01*
Y137985D01*
X2088712D01*
X2101408Y127828D02*
Y137985D01*
X2109025D01*
X2111564Y135445D01*
Y127828D01*
X2116643D02*
Y143063D01*
Y132906D02*
X2124260Y137985D01*
X2116643Y132906D02*
X2124260Y127828D01*
X2149652Y140524D02*
Y137985D01*
X2147113D01*
X2152191D01*
X2149652D01*
Y130367D01*
X2152191Y127828D01*
X2162348D02*
X2167426D01*
X2169966Y130367D01*
Y135445D01*
X2167426Y137985D01*
X2162348D01*
X2159809Y135445D01*
Y130367D01*
X2162348Y127828D01*
X2192818Y140524D02*
Y137985D01*
X2190279D01*
X2195357D01*
X2192818D01*
Y130367D01*
X2195357Y127828D01*
X2202975Y143063D02*
Y127828D01*
Y135445D01*
X2205514Y137985D01*
X2210592D01*
X2213132Y135445D01*
Y127828D01*
X2225827D02*
X2220749D01*
X2218210Y130367D01*
Y135445D01*
X2220749Y137985D01*
X2225827D01*
X2228367Y135445D01*
Y132906D01*
X2218210D01*
X2248680Y127828D02*
X2253759D01*
X2251219D01*
Y143063D01*
X2248680D01*
X2261376Y127828D02*
X2266454D01*
X2263915D01*
Y137985D01*
X2261376D01*
X2284229D02*
X2276611D01*
X2274072Y135445D01*
Y130367D01*
X2276611Y127828D01*
X2284229D01*
X2296924D02*
X2291846D01*
X2289307Y130367D01*
Y135445D01*
X2291846Y137985D01*
X2296924D01*
X2299464Y135445D01*
Y132906D01*
X2289307D01*
X2304542Y127828D02*
Y137985D01*
X2312160D01*
X2314699Y135445D01*
Y127828D01*
X2319777D02*
X2327395D01*
X2329934Y130367D01*
X2327395Y132906D01*
X2322316D01*
X2319777Y135445D01*
X2322316Y137985D01*
X2329934D01*
X2342630Y127828D02*
X2337551D01*
X2335012Y130367D01*
Y135445D01*
X2337551Y137985D01*
X2342630D01*
X2345169Y135445D01*
Y132906D01*
X2335012D01*
X2352786Y125289D02*
X2355326Y127828D01*
Y130367D01*
X2352786D01*
Y127828D01*
X2355326D01*
X2352786Y125289D01*
X2350247Y122750D01*
X2383257Y137985D02*
X2388335D01*
X2390874Y135445D01*
Y127828D01*
X2383257D01*
X2380717Y130367D01*
X2383257Y132906D01*
X2390874D01*
X2395952Y127828D02*
Y137985D01*
X2403570D01*
X2406109Y135445D01*
Y127828D01*
X2421344Y143063D02*
Y127828D01*
X2413727D01*
X2411187Y130367D01*
Y135445D01*
X2413727Y137985D01*
X2421344D01*
X1222852Y102828D02*
X1227930D01*
X1225391D01*
Y112985D01*
X1222852D01*
X1235548Y102828D02*
Y112985D01*
X1243166D01*
X1245705Y110445D01*
Y102828D01*
X1260940Y118063D02*
Y102828D01*
X1253322D01*
X1250783Y105367D01*
Y110445D01*
X1253322Y112985D01*
X1260940D01*
X1266018Y102828D02*
X1271096D01*
X1268557D01*
Y112985D01*
X1266018D01*
X1288871D02*
X1281253D01*
X1278714Y110445D01*
Y105367D01*
X1281253Y102828D01*
X1288871D01*
X1296488Y112985D02*
X1301567D01*
X1304106Y110445D01*
Y102828D01*
X1296488D01*
X1293949Y105367D01*
X1296488Y107906D01*
X1304106D01*
X1311723Y115524D02*
Y112985D01*
X1309184D01*
X1314262D01*
X1311723D01*
Y105367D01*
X1314262Y102828D01*
X1329498D02*
X1324419D01*
X1321880Y105367D01*
Y110445D01*
X1324419Y112985D01*
X1329498D01*
X1332037Y110445D01*
Y107906D01*
X1321880D01*
X1352350Y102828D02*
X1357428D01*
X1354889D01*
Y112985D01*
X1352350D01*
X1367585Y102828D02*
Y115524D01*
Y110445D01*
X1365046D01*
X1370124D01*
X1367585D01*
Y115524D01*
X1370124Y118063D01*
X1403134Y112985D02*
X1395516D01*
X1392977Y110445D01*
Y105367D01*
X1395516Y102828D01*
X1403134D01*
X1408212Y118063D02*
Y102828D01*
Y110445D01*
X1410751Y112985D01*
X1415830D01*
X1418369Y110445D01*
Y102828D01*
X1425986Y112985D02*
X1431065D01*
X1433604Y110445D01*
Y102828D01*
X1425986D01*
X1423447Y105367D01*
X1425986Y107906D01*
X1433604D01*
X1438682Y102828D02*
Y112985D01*
X1446300D01*
X1448839Y110445D01*
Y102828D01*
X1458996Y97750D02*
X1461535D01*
X1464074Y100289D01*
Y112985D01*
X1456456D01*
X1453917Y110445D01*
Y105367D01*
X1456456Y102828D01*
X1464074D01*
X1476770D02*
X1471691D01*
X1469152Y105367D01*
Y110445D01*
X1471691Y112985D01*
X1476770D01*
X1479309Y110445D01*
Y107906D01*
X1469152D01*
X1484387Y102828D02*
X1492005D01*
X1494544Y105367D01*
X1492005Y107906D01*
X1486927D01*
X1484387Y110445D01*
X1486927Y112985D01*
X1494544D01*
X1514857D02*
Y105367D01*
X1517397Y102828D01*
X1519936Y105367D01*
X1522475Y102828D01*
X1525014Y105367D01*
Y112985D01*
X1537710Y102828D02*
X1532632D01*
X1530093Y105367D01*
Y110445D01*
X1532632Y112985D01*
X1537710D01*
X1540249Y110445D01*
Y107906D01*
X1530093D01*
X1545328Y112985D02*
Y102828D01*
Y107906D01*
X1547867Y110445D01*
X1550406Y112985D01*
X1552945D01*
X1568180Y102828D02*
X1563102D01*
X1560563Y105367D01*
Y110445D01*
X1563102Y112985D01*
X1568180D01*
X1570719Y110445D01*
Y107906D01*
X1560563D01*
X1591033Y102828D02*
Y112985D01*
X1593572D01*
X1596111Y110445D01*
Y102828D01*
Y110445D01*
X1598650Y112985D01*
X1601190Y110445D01*
Y102828D01*
X1608807Y112985D02*
X1613885D01*
X1616425Y110445D01*
Y102828D01*
X1608807D01*
X1606268Y105367D01*
X1608807Y107906D01*
X1616425D01*
X1631660Y118063D02*
Y102828D01*
X1624042D01*
X1621503Y105367D01*
Y110445D01*
X1624042Y112985D01*
X1631660D01*
X1644356Y102828D02*
X1639277D01*
X1636738Y105367D01*
Y110445D01*
X1639277Y112985D01*
X1644356D01*
X1646895Y110445D01*
Y107906D01*
X1636738D01*
X1651973Y102828D02*
Y105367D01*
X1654512D01*
Y102828D01*
X1651973D01*
X1679904Y118063D02*
Y115524D01*
X1684982Y110445D01*
X1690061Y115524D01*
Y118063D01*
X1684982Y110445D02*
Y102828D01*
X1697678D02*
X1702757D01*
X1705296Y105367D01*
Y110445D01*
X1702757Y112985D01*
X1697678D01*
X1695139Y110445D01*
Y105367D01*
X1697678Y102828D01*
X1710374Y112985D02*
Y105367D01*
X1712914Y102828D01*
X1720531D01*
Y112985D01*
X1740844Y102828D02*
Y112985D01*
X1743384D01*
X1745923Y110445D01*
Y102828D01*
Y110445D01*
X1748462Y112985D01*
X1751001Y110445D01*
Y102828D01*
X1758619Y112985D02*
X1763697D01*
X1766236Y110445D01*
Y102828D01*
X1758619D01*
X1756080Y105367D01*
X1758619Y107906D01*
X1766236D01*
X1771315Y112985D02*
Y105367D01*
X1773854Y102828D01*
X1781471D01*
Y100289D01*
X1778932Y97750D01*
X1776393D01*
X1781471Y102828D02*
Y112985D01*
X1811942Y118063D02*
Y102828D01*
X1804324D01*
X1801785Y105367D01*
Y110445D01*
X1804324Y112985D01*
X1811942D01*
X1819559Y102828D02*
X1824637D01*
X1827177Y105367D01*
Y110445D01*
X1824637Y112985D01*
X1819559D01*
X1817020Y110445D01*
Y105367D01*
X1819559Y102828D01*
X1847490D02*
X1855108D01*
X1857647Y105367D01*
X1855108Y107906D01*
X1850029D01*
X1847490Y110445D01*
X1850029Y112985D01*
X1857647D01*
X1865264Y102828D02*
X1870343D01*
X1872882Y105367D01*
Y110445D01*
X1870343Y112985D01*
X1865264D01*
X1862725Y110445D01*
Y105367D01*
X1865264Y102828D01*
X1893195D02*
X1898273D01*
X1895734D01*
Y112985D01*
X1893195D01*
X1905891Y102828D02*
Y112985D01*
X1913509D01*
X1916048Y110445D01*
Y102828D01*
X1938900Y112985D02*
X1943979D01*
X1946518Y110445D01*
Y102828D01*
X1938900D01*
X1936361Y105367D01*
X1938900Y107906D01*
X1946518D01*
X1951596Y102828D02*
Y112985D01*
X1959214D01*
X1961753Y110445D01*
Y102828D01*
X1966831Y112985D02*
Y105367D01*
X1969371Y102828D01*
X1976988D01*
Y100289D01*
X1974449Y97750D01*
X1971910D01*
X1976988Y102828D02*
Y112985D01*
X1997301D02*
Y102828D01*
Y107906D01*
X1999841Y110445D01*
X2002380Y112985D01*
X2004919D01*
X2020154Y102828D02*
X2015076D01*
X2012537Y105367D01*
Y110445D01*
X2015076Y112985D01*
X2020154D01*
X2022693Y110445D01*
Y107906D01*
X2012537D01*
X2030311Y112985D02*
X2035389D01*
X2037928Y110445D01*
Y102828D01*
X2030311D01*
X2027772Y105367D01*
X2030311Y107906D01*
X2037928D01*
X2043007Y102828D02*
X2050624D01*
X2053163Y105367D01*
X2050624Y107906D01*
X2045546D01*
X2043007Y110445D01*
X2045546Y112985D01*
X2053163D01*
X2060781Y102828D02*
X2065859D01*
X2068398Y105367D01*
Y110445D01*
X2065859Y112985D01*
X2060781D01*
X2058242Y110445D01*
Y105367D01*
X2060781Y102828D01*
X2073477D02*
Y112985D01*
X2081094D01*
X2083634Y110445D01*
Y102828D01*
X2091251Y112985D02*
X2096329D01*
X2098869Y110445D01*
Y102828D01*
X2091251D01*
X2088712Y105367D01*
X2091251Y107906D01*
X2098869D01*
X2103947Y118063D02*
Y102828D01*
X2111564D01*
X2114104Y105367D01*
Y107906D01*
Y110445D01*
X2111564Y112985D01*
X2103947D01*
X2119182Y102828D02*
X2124260D01*
X2121721D01*
Y118063D01*
X2119182D01*
X2139496Y102828D02*
X2134417D01*
X2131878Y105367D01*
Y110445D01*
X2134417Y112985D01*
X2139496D01*
X2142035Y110445D01*
Y107906D01*
X2131878D01*
X2162348Y102828D02*
Y112985D01*
X2164887D01*
X2167426Y110445D01*
Y102828D01*
Y110445D01*
X2169966Y112985D01*
X2172505Y110445D01*
Y102828D01*
X2180122Y112985D02*
X2185201D01*
X2187740Y110445D01*
Y102828D01*
X2180122D01*
X2177583Y105367D01*
X2180122Y107906D01*
X2187740D01*
X2192818Y102828D02*
Y112985D01*
X2200436D01*
X2202975Y110445D01*
Y102828D01*
X2208053D02*
Y112985D01*
X2215671D01*
X2218210Y110445D01*
Y102828D01*
X2230906D02*
X2225828D01*
X2223288Y105367D01*
Y110445D01*
X2225828Y112985D01*
X2230906D01*
X2233445Y110445D01*
Y107906D01*
X2223288D01*
X2238524Y112985D02*
Y102828D01*
Y107906D01*
X2241063Y110445D01*
X2243602Y112985D01*
X2246141D01*
X2256298Y100289D02*
X2258837Y102828D01*
Y105367D01*
X2256298D01*
Y102828D01*
X2258837D01*
X2256298Y100289D01*
X2253759Y97750D01*
X2284229Y118063D02*
Y102828D01*
X2291846D01*
X2294385Y105367D01*
Y107906D01*
Y110445D01*
X2291846Y112985D01*
X2284229D01*
X2299464D02*
Y105367D01*
X2302003Y102828D01*
X2309621D01*
Y112985D01*
X2317238Y115524D02*
Y112985D01*
X2314699D01*
X2319777D01*
X2317238D01*
Y105367D01*
X2319777Y102828D01*
X2342630D02*
Y112985D01*
X2350247D01*
X2352787Y110445D01*
Y102828D01*
X2360404D02*
X2365482D01*
X2368022Y105367D01*
Y110445D01*
X2365482Y112985D01*
X2360404D01*
X2357865Y110445D01*
Y105367D01*
X2360404Y102828D01*
X2375639Y115524D02*
Y112985D01*
X2373100D01*
X2378178D01*
X2375639D01*
Y105367D01*
X2378178Y102828D01*
X2401031D02*
X2406109D01*
X2403570D01*
Y112985D01*
X2401031D01*
X2413727Y102828D02*
Y112985D01*
X2421344D01*
X2423884Y110445D01*
Y102828D01*
X2446736Y112985D02*
X2451815D01*
X2454354Y110445D01*
Y102828D01*
X2446736D01*
X2444197Y105367D01*
X2446736Y107906D01*
X2454354D01*
X2459432Y102828D02*
Y112985D01*
X2467050D01*
X2469589Y110445D01*
Y102828D01*
X2474667Y112985D02*
Y105367D01*
X2477206Y102828D01*
X2484824D01*
Y100289D01*
X2482285Y97750D01*
X2479745D01*
X2484824Y102828D02*
Y112985D01*
X1222852Y87985D02*
Y80367D01*
X1225391Y77828D01*
X1227930Y80367D01*
X1230470Y77828D01*
X1233009Y80367D01*
Y87985D01*
X1240626D02*
X1245705D01*
X1248244Y85445D01*
Y77828D01*
X1240626D01*
X1238087Y80367D01*
X1240626Y82906D01*
X1248244D01*
X1253322Y87985D02*
Y80367D01*
X1255861Y77828D01*
X1263479D01*
Y75289D01*
X1260940Y72750D01*
X1258400D01*
X1263479Y77828D02*
Y87985D01*
X1286331Y90524D02*
Y87985D01*
X1283792D01*
X1288871D01*
X1286331D01*
Y80367D01*
X1288871Y77828D01*
X1296488Y93063D02*
Y77828D01*
Y85445D01*
X1299027Y87985D01*
X1304106D01*
X1306645Y85445D01*
Y77828D01*
X1314263Y87985D02*
X1319341D01*
X1321880Y85445D01*
Y77828D01*
X1314263D01*
X1311723Y80367D01*
X1314263Y82906D01*
X1321880D01*
X1329498Y90524D02*
Y87985D01*
X1326958D01*
X1332037D01*
X1329498D01*
Y80367D01*
X1332037Y77828D01*
X1354889D02*
X1362507D01*
X1365046Y80367D01*
X1362507Y82906D01*
X1357428D01*
X1354889Y85445D01*
X1357428Y87985D01*
X1365046D01*
X1370124D02*
Y80367D01*
X1372664Y77828D01*
X1380281D01*
Y87985D01*
X1390438Y72750D02*
X1392977D01*
X1395516Y75289D01*
Y87985D01*
X1387899D01*
X1385359Y85445D01*
Y80367D01*
X1387899Y77828D01*
X1395516D01*
X1405673Y72750D02*
X1408212D01*
X1410751Y75289D01*
Y87985D01*
X1403134D01*
X1400594Y85445D01*
Y80367D01*
X1403134Y77828D01*
X1410751D01*
X1423447D02*
X1418369D01*
X1415830Y80367D01*
Y85445D01*
X1418369Y87985D01*
X1423447D01*
X1425986Y85445D01*
Y82906D01*
X1415830D01*
X1431065Y77828D02*
X1438682D01*
X1441221Y80367D01*
X1438682Y82906D01*
X1433604D01*
X1431065Y85445D01*
X1433604Y87985D01*
X1441221D01*
X1448839Y90524D02*
Y87985D01*
X1446300D01*
X1451378D01*
X1448839D01*
Y80367D01*
X1451378Y77828D01*
X1458996D02*
X1466613D01*
X1469152Y80367D01*
X1466613Y82906D01*
X1461535D01*
X1458996Y85445D01*
X1461535Y87985D01*
X1469152D01*
X1492005Y90524D02*
Y87985D01*
X1489466D01*
X1494544D01*
X1492005D01*
Y80367D01*
X1494544Y77828D01*
X1502162Y93063D02*
Y77828D01*
Y85445D01*
X1504701Y87985D01*
X1509779D01*
X1512318Y85445D01*
Y77828D01*
X1525014D02*
X1519936D01*
X1517397Y80367D01*
Y85445D01*
X1519936Y87985D01*
X1525014D01*
X1527554Y85445D01*
Y82906D01*
X1517397D01*
X1547867Y77828D02*
X1552945D01*
X1550406D01*
Y93063D01*
X1547867D01*
X1560563Y77828D02*
X1565641D01*
X1563102D01*
Y87985D01*
X1560563D01*
X1583415D02*
X1575798D01*
X1573259Y85445D01*
Y80367D01*
X1575798Y77828D01*
X1583415D01*
X1596111D02*
X1591033D01*
X1588494Y80367D01*
Y85445D01*
X1591033Y87985D01*
X1596111D01*
X1598650Y85445D01*
Y82906D01*
X1588494D01*
X1603729Y77828D02*
Y87985D01*
X1611346D01*
X1613885Y85445D01*
Y77828D01*
X1618964D02*
X1626581D01*
X1629121Y80367D01*
X1626581Y82906D01*
X1621503D01*
X1618964Y85445D01*
X1621503Y87985D01*
X1629121D01*
X1636738Y77828D02*
X1641817D01*
X1644356Y80367D01*
Y85445D01*
X1641817Y87985D01*
X1636738D01*
X1634199Y85445D01*
Y80367D01*
X1636738Y77828D01*
X1649434Y87985D02*
Y77828D01*
Y82906D01*
X1651973Y85445D01*
X1654512Y87985D01*
X1657052D01*
X1687522Y77828D02*
X1682443D01*
X1679904Y80367D01*
Y85445D01*
X1682443Y87985D01*
X1687522D01*
X1690061Y85445D01*
Y82906D01*
X1679904D01*
X1695139Y77828D02*
Y87985D01*
X1702757D01*
X1705296Y85445D01*
Y77828D01*
X1720531Y93063D02*
Y77828D01*
X1712914D01*
X1710374Y80367D01*
Y85445D01*
X1712914Y87985D01*
X1720531D01*
X1728149Y77828D02*
X1733227D01*
X1735766Y80367D01*
Y85445D01*
X1733227Y87985D01*
X1728149D01*
X1725609Y85445D01*
Y80367D01*
X1728149Y77828D01*
X1740844Y87985D02*
Y77828D01*
Y82906D01*
X1743384Y85445D01*
X1745923Y87985D01*
X1748462D01*
X1756080Y77828D02*
X1763697D01*
X1766236Y80367D01*
X1763697Y82906D01*
X1758619D01*
X1756080Y85445D01*
X1758619Y87985D01*
X1766236D01*
X1778932Y77828D02*
X1773854D01*
X1771315Y80367D01*
Y85445D01*
X1773854Y87985D01*
X1778932D01*
X1781471Y85445D01*
Y82906D01*
X1771315D01*
X1786550Y77828D02*
X1794167D01*
X1796706Y80367D01*
X1794167Y82906D01*
X1789089D01*
X1786550Y85445D01*
X1789089Y87985D01*
X1796706D01*
X1817020D02*
Y80367D01*
X1819559Y77828D01*
X1827177D01*
Y75289D01*
X1824637Y72750D01*
X1822098D01*
X1827177Y77828D02*
Y87985D01*
X1834794Y77828D02*
X1839872D01*
X1842412Y80367D01*
Y85445D01*
X1839872Y87985D01*
X1834794D01*
X1832255Y85445D01*
Y80367D01*
X1834794Y77828D01*
X1847490Y87985D02*
Y80367D01*
X1850029Y77828D01*
X1857647D01*
Y87985D01*
X1880499Y77828D02*
X1885578D01*
X1888117Y80367D01*
Y85445D01*
X1885578Y87985D01*
X1880499D01*
X1877960Y85445D01*
Y80367D01*
X1880499Y77828D01*
X1893195Y87985D02*
Y77828D01*
Y82906D01*
X1895734Y85445D01*
X1898273Y87985D01*
X1900813D01*
X1923665D02*
Y80367D01*
X1926205Y77828D01*
X1933822D01*
Y75289D01*
X1931283Y72750D01*
X1928744D01*
X1933822Y77828D02*
Y87985D01*
X1941440Y77828D02*
X1946518D01*
X1949057Y80367D01*
Y85445D01*
X1946518Y87985D01*
X1941440D01*
X1938900Y85445D01*
Y80367D01*
X1941440Y77828D01*
X1954135Y87985D02*
Y80367D01*
X1956675Y77828D01*
X1964292D01*
Y87985D01*
X1969371D02*
Y77828D01*
Y82906D01*
X1971910Y85445D01*
X1974449Y87985D01*
X1976988D01*
X1999841D02*
Y80367D01*
X2002380Y77828D01*
X2009997D01*
Y87985D01*
X2015076Y77828D02*
X2022693D01*
X2025233Y80367D01*
X2022693Y82906D01*
X2017615D01*
X2015076Y85445D01*
X2017615Y87985D01*
X2025233D01*
X2037928Y77828D02*
X2032850D01*
X2030311Y80367D01*
Y85445D01*
X2032850Y87985D01*
X2037928D01*
X2040468Y85445D01*
Y82906D01*
X2030311D01*
X2045546Y77828D02*
Y80367D01*
X2048085D01*
Y77828D01*
X2045546D01*
X1220852Y-53172D02*
Y-37937D01*
X1231009Y-53172D01*
Y-37937D01*
X1238626Y-53172D02*
X1243705D01*
X1246244Y-50633D01*
Y-45554D01*
X1243705Y-43015D01*
X1238626D01*
X1236087Y-45554D01*
Y-50633D01*
X1238626Y-53172D01*
X1269096Y-43015D02*
X1274175D01*
X1276714Y-45554D01*
Y-53172D01*
X1269096D01*
X1266557Y-50633D01*
X1269096Y-48094D01*
X1276714D01*
X1291949Y-37937D02*
Y-53172D01*
X1284332D01*
X1281792Y-50633D01*
Y-45554D01*
X1284332Y-43015D01*
X1291949D01*
X1307184Y-37937D02*
Y-53172D01*
X1299567D01*
X1297027Y-50633D01*
Y-45554D01*
X1299567Y-43015D01*
X1307184D01*
X1312263Y-53172D02*
X1317341D01*
X1314802D01*
Y-43015D01*
X1312263D01*
X1327498Y-40476D02*
Y-43015D01*
X1324958D01*
X1330037D01*
X1327498D01*
Y-50633D01*
X1330037Y-53172D01*
X1337654D02*
X1342733D01*
X1340193D01*
Y-43015D01*
X1337654D01*
X1352889Y-53172D02*
X1357968D01*
X1360507Y-50633D01*
Y-45554D01*
X1357968Y-43015D01*
X1352889D01*
X1350350Y-45554D01*
Y-50633D01*
X1352889Y-53172D01*
X1365585D02*
Y-43015D01*
X1373203D01*
X1375742Y-45554D01*
Y-53172D01*
X1383359Y-43015D02*
X1388438D01*
X1390977Y-45554D01*
Y-53172D01*
X1383359D01*
X1380820Y-50633D01*
X1383359Y-48094D01*
X1390977D01*
X1396055Y-53172D02*
X1401134D01*
X1398595D01*
Y-37937D01*
X1396055D01*
X1423986Y-43015D02*
Y-53172D01*
Y-48094D01*
X1426526Y-45554D01*
X1429065Y-43015D01*
X1431604D01*
X1446839Y-53172D02*
X1441761D01*
X1439221Y-50633D01*
Y-45554D01*
X1441761Y-43015D01*
X1446839D01*
X1449378Y-45554D01*
Y-48094D01*
X1439221D01*
X1454456Y-53172D02*
X1462074D01*
X1464613Y-50633D01*
X1462074Y-48094D01*
X1456996D01*
X1454456Y-45554D01*
X1456996Y-43015D01*
X1464613D01*
X1472231Y-40476D02*
Y-43015D01*
X1469691D01*
X1474770D01*
X1472231D01*
Y-50633D01*
X1474770Y-53172D01*
X1482387Y-43015D02*
Y-53172D01*
Y-48094D01*
X1484927Y-45554D01*
X1487466Y-43015D01*
X1490005D01*
X1497623Y-53172D02*
X1502701D01*
X1500162D01*
Y-43015D01*
X1497623D01*
X1520475D02*
X1512858D01*
X1510318Y-45554D01*
Y-50633D01*
X1512858Y-53172D01*
X1520475D01*
X1528093Y-40476D02*
Y-43015D01*
X1525553D01*
X1530632D01*
X1528093D01*
Y-50633D01*
X1530632Y-53172D01*
X1538249D02*
X1543328D01*
X1540789D01*
Y-43015D01*
X1538249D01*
X1553484Y-53172D02*
X1558563D01*
X1561102Y-50633D01*
Y-45554D01*
X1558563Y-43015D01*
X1553484D01*
X1550945Y-45554D01*
Y-50633D01*
X1553484Y-53172D01*
X1566180D02*
Y-43015D01*
X1573798D01*
X1576337Y-45554D01*
Y-53172D01*
X1581415D02*
X1589033D01*
X1591572Y-50633D01*
X1589033Y-48094D01*
X1583954D01*
X1581415Y-45554D01*
X1583954Y-43015D01*
X1591572D01*
X1611886Y-45554D02*
X1622042D01*
X1642356Y-37937D02*
Y-40476D01*
X1647434Y-45554D01*
X1652512Y-40476D01*
Y-37937D01*
X1647434Y-45554D02*
Y-53172D01*
X1660130D02*
X1665208D01*
X1667747Y-50633D01*
Y-45554D01*
X1665208Y-43015D01*
X1660130D01*
X1657591Y-45554D01*
Y-50633D01*
X1660130Y-53172D01*
X1672826Y-43015D02*
Y-50633D01*
X1675365Y-53172D01*
X1682982D01*
Y-43015D01*
X1703296Y-53172D02*
Y-43015D01*
X1705835D01*
X1708374Y-45554D01*
Y-53172D01*
Y-45554D01*
X1710913Y-43015D01*
X1713453Y-45554D01*
Y-53172D01*
X1721070Y-43015D02*
X1726149D01*
X1728688Y-45554D01*
Y-53172D01*
X1721070D01*
X1718531Y-50633D01*
X1721070Y-48094D01*
X1728688D01*
X1733766Y-43015D02*
Y-50633D01*
X1736305Y-53172D01*
X1743923D01*
Y-55711D01*
X1741384Y-58250D01*
X1738844D01*
X1743923Y-53172D02*
Y-43015D01*
X1764236Y-53172D02*
Y-43015D01*
X1771854D01*
X1774393Y-45554D01*
Y-53172D01*
X1782010D02*
X1787089D01*
X1789628Y-50633D01*
Y-45554D01*
X1787089Y-43015D01*
X1782010D01*
X1779471Y-45554D01*
Y-50633D01*
X1782010Y-53172D01*
X1797245Y-40476D02*
Y-43015D01*
X1794706D01*
X1799785D01*
X1797245D01*
Y-50633D01*
X1799785Y-53172D01*
X1825177Y-43015D02*
X1830255D01*
X1832794Y-45554D01*
Y-53172D01*
X1825177D01*
X1822637Y-50633D01*
X1825177Y-48094D01*
X1832794D01*
X1837872Y-58250D02*
Y-43015D01*
X1845490D01*
X1848029Y-45554D01*
Y-50633D01*
X1845490Y-53172D01*
X1837872D01*
X1853107Y-58250D02*
Y-43015D01*
X1860725D01*
X1863264Y-45554D01*
Y-50633D01*
X1860725Y-53172D01*
X1853107D01*
X1868342D02*
X1873421D01*
X1870882D01*
Y-37937D01*
X1868342D01*
X1881038Y-43015D02*
Y-50633D01*
X1883578Y-53172D01*
X1891195D01*
Y-55711D01*
X1888656Y-58250D01*
X1886117D01*
X1891195Y-53172D02*
Y-43015D01*
X1911508Y-53172D02*
X1916587D01*
X1914048D01*
Y-37937D01*
X1911508D01*
X1931822Y-53172D02*
X1926744D01*
X1924204Y-50633D01*
Y-45554D01*
X1926744Y-43015D01*
X1931822D01*
X1934361Y-45554D01*
Y-48094D01*
X1924204D01*
X1944518Y-58250D02*
X1947057D01*
X1949596Y-55711D01*
Y-43015D01*
X1941979D01*
X1939440Y-45554D01*
Y-50633D01*
X1941979Y-53172D01*
X1949596D01*
X1957214Y-43015D02*
X1962292D01*
X1964831Y-45554D01*
Y-53172D01*
X1957214D01*
X1954675Y-50633D01*
X1957214Y-48094D01*
X1964831D01*
X1969910Y-53172D02*
X1974988D01*
X1972449D01*
Y-37937D01*
X1969910D01*
X2000380Y-40476D02*
Y-43015D01*
X1997841D01*
X2002919D01*
X2000380D01*
Y-50633D01*
X2002919Y-53172D01*
X2018154D02*
X2013076D01*
X2010536Y-50633D01*
Y-45554D01*
X2013076Y-43015D01*
X2018154D01*
X2020693Y-45554D01*
Y-48094D01*
X2010536D01*
X2025772Y-43015D02*
Y-53172D01*
Y-48094D01*
X2028311Y-45554D01*
X2030850Y-43015D01*
X2033389D01*
X2041007Y-53172D02*
Y-43015D01*
X2043546D01*
X2046085Y-45554D01*
Y-53172D01*
Y-45554D01*
X2048624Y-43015D01*
X2051163Y-45554D01*
Y-53172D01*
X2056242D02*
X2063859D01*
X2066398Y-50633D01*
X2063859Y-48094D01*
X2058781D01*
X2056242Y-45554D01*
X2058781Y-43015D01*
X2066398D01*
X2089251Y-53172D02*
X2094329D01*
X2096869Y-50633D01*
Y-45554D01*
X2094329Y-43015D01*
X2089251D01*
X2086712Y-45554D01*
Y-50633D01*
X2089251Y-53172D01*
X2101947Y-43015D02*
Y-53172D01*
Y-48094D01*
X2104486Y-45554D01*
X2107025Y-43015D01*
X2109565D01*
X2134956Y-40476D02*
Y-43015D01*
X2132417D01*
X2137495D01*
X2134956D01*
Y-50633D01*
X2137495Y-53172D01*
X2152731D02*
X2147652D01*
X2145113Y-50633D01*
Y-45554D01*
X2147652Y-43015D01*
X2152731D01*
X2155270Y-45554D01*
Y-48094D01*
X2145113D01*
X2170505Y-43015D02*
X2162887D01*
X2160348Y-45554D01*
Y-50633D01*
X2162887Y-53172D01*
X2170505D01*
X2175583Y-37937D02*
Y-53172D01*
Y-45554D01*
X2178122Y-43015D01*
X2183201D01*
X2185740Y-45554D01*
Y-53172D01*
X2190818D02*
Y-43015D01*
X2198436D01*
X2200975Y-45554D01*
Y-53172D01*
X2208592D02*
X2213671D01*
X2216210Y-50633D01*
Y-45554D01*
X2213671Y-43015D01*
X2208592D01*
X2206053Y-45554D01*
Y-50633D01*
X2208592Y-53172D01*
X2221288D02*
X2226367D01*
X2223828D01*
Y-37937D01*
X2221288D01*
X2236523Y-53172D02*
X2241602D01*
X2244141Y-50633D01*
Y-45554D01*
X2241602Y-43015D01*
X2236523D01*
X2233984Y-45554D01*
Y-50633D01*
X2236523Y-53172D01*
X2254298Y-58250D02*
X2256837D01*
X2259376Y-55711D01*
Y-43015D01*
X2251759D01*
X2249219Y-45554D01*
Y-50633D01*
X2251759Y-53172D01*
X2259376D01*
X2264454D02*
X2269533D01*
X2266994D01*
Y-43015D01*
X2264454D01*
X2287307D02*
X2279689D01*
X2277150Y-45554D01*
Y-50633D01*
X2279689Y-53172D01*
X2287307D01*
X2294924Y-43015D02*
X2300003D01*
X2302542Y-45554D01*
Y-53172D01*
X2294924D01*
X2292385Y-50633D01*
X2294924Y-48094D01*
X2302542D01*
X2307620Y-53172D02*
X2312699D01*
X2310160D01*
Y-37937D01*
X2307620D01*
X2335551Y-53172D02*
Y-43015D01*
X2338091D01*
X2340630Y-45554D01*
Y-53172D01*
Y-45554D01*
X2343169Y-43015D01*
X2345708Y-45554D01*
Y-53172D01*
X2358404D02*
X2353326D01*
X2350786Y-50633D01*
Y-45554D01*
X2353326Y-43015D01*
X2358404D01*
X2360943Y-45554D01*
Y-48094D01*
X2350786D01*
X2368561Y-43015D02*
X2373639D01*
X2376178Y-45554D01*
Y-53172D01*
X2368561D01*
X2366022Y-50633D01*
X2368561Y-48094D01*
X2376178D01*
X2381257Y-53172D02*
X2388874D01*
X2391413Y-50633D01*
X2388874Y-48094D01*
X2383796D01*
X2381257Y-45554D01*
X2383796Y-43015D01*
X2391413D01*
X2396492D02*
Y-50633D01*
X2399031Y-53172D01*
X2406648D01*
Y-43015D01*
X2411727D02*
Y-53172D01*
Y-48094D01*
X2414266Y-45554D01*
X2416805Y-43015D01*
X2419344D01*
X2434579Y-53172D02*
X2429501D01*
X2426962Y-50633D01*
Y-45554D01*
X2429501Y-43015D01*
X2434579D01*
X2437119Y-45554D01*
Y-48094D01*
X2426962D01*
X2442197Y-53172D02*
X2449814D01*
X2452354Y-50633D01*
X2449814Y-48094D01*
X2444736D01*
X2442197Y-45554D01*
X2444736Y-43015D01*
X2452354D01*
X1223391Y-65476D02*
Y-68015D01*
X1220852D01*
X1225930D01*
X1223391D01*
Y-75633D01*
X1225930Y-78172D01*
X1233548Y-62937D02*
Y-78172D01*
Y-70554D01*
X1236087Y-68015D01*
X1241165D01*
X1243705Y-70554D01*
Y-78172D01*
X1251322Y-68015D02*
X1256401D01*
X1258940Y-70554D01*
Y-78172D01*
X1251322D01*
X1248783Y-75633D01*
X1251322Y-73094D01*
X1258940D01*
X1266557Y-65476D02*
Y-68015D01*
X1264018D01*
X1269096D01*
X1266557D01*
Y-75633D01*
X1269096Y-78172D01*
X1291949D02*
X1297027D01*
X1294488D01*
Y-62937D01*
X1291949D01*
X1312262Y-78172D02*
X1307184D01*
X1304645Y-75633D01*
Y-70554D01*
X1307184Y-68015D01*
X1312262D01*
X1314802Y-70554D01*
Y-73094D01*
X1304645D01*
X1324958Y-83250D02*
X1327498D01*
X1330037Y-80711D01*
Y-68015D01*
X1322419D01*
X1319880Y-70554D01*
Y-75633D01*
X1322419Y-78172D01*
X1330037D01*
X1337654Y-68015D02*
X1342733D01*
X1345272Y-70554D01*
Y-78172D01*
X1337654D01*
X1335115Y-75633D01*
X1337654Y-73094D01*
X1345272D01*
X1350350Y-78172D02*
X1355428D01*
X1352889D01*
Y-62937D01*
X1350350D01*
X1363046Y-78172D02*
X1368124D01*
X1365585D01*
Y-62937D01*
X1363046D01*
X1375742Y-68015D02*
Y-75633D01*
X1378281Y-78172D01*
X1385899D01*
Y-80711D01*
X1383359Y-83250D01*
X1380820D01*
X1385899Y-78172D02*
Y-68015D01*
X1406212D02*
Y-78172D01*
Y-73094D01*
X1408751Y-70554D01*
X1411290Y-68015D01*
X1413830D01*
X1429065Y-78172D02*
X1423986D01*
X1421447Y-75633D01*
Y-70554D01*
X1423986Y-68015D01*
X1429065D01*
X1431604Y-70554D01*
Y-73094D01*
X1421447D01*
X1436682Y-78172D02*
X1444300D01*
X1446839Y-75633D01*
X1444300Y-73094D01*
X1439221D01*
X1436682Y-70554D01*
X1439221Y-68015D01*
X1446839D01*
X1454456Y-65476D02*
Y-68015D01*
X1451917D01*
X1456996D01*
X1454456D01*
Y-75633D01*
X1456996Y-78172D01*
X1464613Y-68015D02*
Y-78172D01*
Y-73094D01*
X1467152Y-70554D01*
X1469691Y-68015D01*
X1472231D01*
X1479848Y-78172D02*
X1484926D01*
X1482387D01*
Y-68015D01*
X1479848D01*
X1502701D02*
X1495083D01*
X1492544Y-70554D01*
Y-75633D01*
X1495083Y-78172D01*
X1502701D01*
X1510318Y-65476D02*
Y-68015D01*
X1507779D01*
X1512858D01*
X1510318D01*
Y-75633D01*
X1512858Y-78172D01*
X1538249D02*
X1543328D01*
X1545867Y-75633D01*
Y-70554D01*
X1543328Y-68015D01*
X1538249D01*
X1535710Y-70554D01*
Y-75633D01*
X1538249Y-78172D01*
X1553484Y-65476D02*
Y-68015D01*
X1550945D01*
X1556024D01*
X1553484D01*
Y-75633D01*
X1556024Y-78172D01*
X1563641Y-62937D02*
Y-78172D01*
Y-70554D01*
X1566180Y-68015D01*
X1571259D01*
X1573798Y-70554D01*
Y-78172D01*
X1586494D02*
X1581415D01*
X1578876Y-75633D01*
Y-70554D01*
X1581415Y-68015D01*
X1586494D01*
X1589033Y-70554D01*
Y-73094D01*
X1578876D01*
X1594111Y-68015D02*
Y-78172D01*
Y-73094D01*
X1596650Y-70554D01*
X1599190Y-68015D01*
X1601729D01*
X1609346Y-78172D02*
X1616964D01*
X1619503Y-75633D01*
X1616964Y-73094D01*
X1611886D01*
X1609346Y-70554D01*
X1611886Y-68015D01*
X1619503D01*
X1642356Y-78172D02*
Y-65476D01*
Y-70554D01*
X1639816D01*
X1644895D01*
X1642356D01*
Y-65476D01*
X1644895Y-62937D01*
X1652512Y-68015D02*
Y-78172D01*
Y-73094D01*
X1655052Y-70554D01*
X1657591Y-68015D01*
X1660130D01*
X1670287Y-78172D02*
X1675365D01*
X1677904Y-75633D01*
Y-70554D01*
X1675365Y-68015D01*
X1670287D01*
X1667747Y-70554D01*
Y-75633D01*
X1670287Y-78172D01*
X1682982D02*
Y-68015D01*
X1685522D01*
X1688061Y-70554D01*
Y-78172D01*
Y-70554D01*
X1690600Y-68015D01*
X1693139Y-70554D01*
Y-78172D01*
X1723609Y-62937D02*
Y-78172D01*
X1715992D01*
X1713453Y-75633D01*
Y-70554D01*
X1715992Y-68015D01*
X1723609D01*
X1731227Y-78172D02*
X1736305D01*
X1738844Y-75633D01*
Y-70554D01*
X1736305Y-68015D01*
X1731227D01*
X1728688Y-70554D01*
Y-75633D01*
X1731227Y-78172D01*
X1743923D02*
X1749001D01*
X1746462D01*
Y-68015D01*
X1743923D01*
X1756619Y-78172D02*
Y-68015D01*
X1764236D01*
X1766775Y-70554D01*
Y-78172D01*
X1776932Y-83250D02*
X1779471D01*
X1782010Y-80711D01*
Y-68015D01*
X1774393D01*
X1771854Y-70554D01*
Y-75633D01*
X1774393Y-78172D01*
X1782010D01*
X1804863Y-68015D02*
X1809941D01*
X1812481Y-70554D01*
Y-78172D01*
X1804863D01*
X1802324Y-75633D01*
X1804863Y-73094D01*
X1812481D01*
X1817559Y-78172D02*
Y-68015D01*
X1825177D01*
X1827716Y-70554D01*
Y-78172D01*
X1832794Y-68015D02*
Y-75633D01*
X1835333Y-78172D01*
X1842951D01*
Y-80711D01*
X1840412Y-83250D01*
X1837872D01*
X1842951Y-78172D02*
Y-68015D01*
X1850568Y-65476D02*
Y-68015D01*
X1848029D01*
X1853107D01*
X1850568D01*
Y-75633D01*
X1853107Y-78172D01*
X1860725Y-62937D02*
Y-78172D01*
Y-70554D01*
X1863264Y-68015D01*
X1868342D01*
X1870882Y-70554D01*
Y-78172D01*
X1875960D02*
X1881038D01*
X1878499D01*
Y-68015D01*
X1875960D01*
X1888656Y-78172D02*
Y-68015D01*
X1896273D01*
X1898813Y-70554D01*
Y-78172D01*
X1908969Y-83250D02*
X1911508D01*
X1914048Y-80711D01*
Y-68015D01*
X1906430D01*
X1903891Y-70554D01*
Y-75633D01*
X1906430Y-78172D01*
X1914048D01*
X1936900Y-65476D02*
Y-68015D01*
X1934361D01*
X1939440D01*
X1936900D01*
Y-75633D01*
X1939440Y-78172D01*
X1947057Y-62937D02*
Y-78172D01*
Y-70554D01*
X1949596Y-68015D01*
X1954675D01*
X1957214Y-70554D01*
Y-78172D01*
X1969910D02*
X1964831D01*
X1962292Y-75633D01*
Y-70554D01*
X1964831Y-68015D01*
X1969910D01*
X1972449Y-70554D01*
Y-73094D01*
X1962292D01*
X1992762Y-78172D02*
X1997841D01*
X1995301D01*
Y-62937D01*
X1992762D01*
X2005458Y-78172D02*
X2010536D01*
X2007997D01*
Y-68015D01*
X2005458D01*
X2028311D02*
X2020693D01*
X2018154Y-70554D01*
Y-75633D01*
X2020693Y-78172D01*
X2028311D01*
X2041007D02*
X2035928D01*
X2033389Y-75633D01*
Y-70554D01*
X2035928Y-68015D01*
X2041007D01*
X2043546Y-70554D01*
Y-73094D01*
X2033389D01*
X2048624Y-78172D02*
Y-68015D01*
X2056242D01*
X2058781Y-70554D01*
Y-78172D01*
X2063859D02*
X2071477D01*
X2074016Y-75633D01*
X2071477Y-73094D01*
X2066398D01*
X2063859Y-70554D01*
X2066398Y-68015D01*
X2074016D01*
X2086712Y-78172D02*
X2081633D01*
X2079094Y-75633D01*
Y-70554D01*
X2081633Y-68015D01*
X2086712D01*
X2089251Y-70554D01*
Y-73094D01*
X2079094D01*
X2109564Y-83250D02*
Y-68015D01*
X2117182D01*
X2119721Y-70554D01*
Y-75633D01*
X2117182Y-78172D01*
X2109564D01*
X2132417D02*
X2127339D01*
X2124799Y-75633D01*
Y-70554D01*
X2127339Y-68015D01*
X2132417D01*
X2134956Y-70554D01*
Y-73094D01*
X2124799D01*
X2140035Y-68015D02*
Y-78172D01*
Y-73094D01*
X2142574Y-70554D01*
X2145113Y-68015D01*
X2147652D01*
X2155270Y-78172D02*
Y-68015D01*
X2157809D01*
X2160348Y-70554D01*
Y-78172D01*
Y-70554D01*
X2162887Y-68015D01*
X2165426Y-70554D01*
Y-78172D01*
X2170505D02*
X2175583D01*
X2173044D01*
Y-68015D01*
X2170505D01*
X2185740Y-65476D02*
Y-68015D01*
X2183201D01*
X2188279D01*
X2185740D01*
Y-75633D01*
X2188279Y-78172D01*
X2195896D02*
X2203514D01*
X2206053Y-75633D01*
X2203514Y-73094D01*
X2198436D01*
X2195896Y-70554D01*
X2198436Y-68015D01*
X2206053D01*
X2211132Y-78172D02*
Y-75633D01*
X2213671D01*
Y-78172D01*
X2211132D01*
X1220852Y-128172D02*
Y-112937D01*
X1231009Y-128172D01*
Y-112937D01*
X1238626Y-128172D02*
X1243705D01*
X1246244Y-125633D01*
Y-120555D01*
X1243705Y-118015D01*
X1238626D01*
X1236087Y-120555D01*
Y-125633D01*
X1238626Y-128172D01*
X1253861Y-115476D02*
Y-118015D01*
X1251322D01*
X1256401D01*
X1253861D01*
Y-125633D01*
X1256401Y-128172D01*
X1264018D02*
X1269096D01*
X1266557D01*
Y-118015D01*
X1264018D01*
X1286871D02*
X1279253D01*
X1276714Y-120555D01*
Y-125633D01*
X1279253Y-128172D01*
X1286871D01*
X1299566D02*
X1294488D01*
X1291949Y-125633D01*
Y-120555D01*
X1294488Y-118015D01*
X1299566D01*
X1302106Y-120555D01*
Y-123094D01*
X1291949D01*
X1307184Y-128172D02*
X1314802D01*
X1317341Y-125633D01*
X1314802Y-123094D01*
X1309723D01*
X1307184Y-120555D01*
X1309723Y-118015D01*
X1317341D01*
X1322419D02*
X1324958D01*
Y-120555D01*
X1322419D01*
Y-118015D01*
Y-125633D02*
X1324958D01*
Y-128172D01*
X1322419D01*
Y-125633D01*
X1220852Y-137937D02*
Y-140476D01*
X1225930Y-145555D01*
X1231009Y-140476D01*
Y-137937D01*
X1225930Y-145555D02*
Y-153172D01*
X1238626D02*
X1243705D01*
X1246244Y-150633D01*
Y-145555D01*
X1243705Y-143015D01*
X1238626D01*
X1236087Y-145555D01*
Y-150633D01*
X1238626Y-153172D01*
X1251322Y-143015D02*
Y-150633D01*
X1253861Y-153172D01*
X1261479D01*
Y-143015D01*
X1291949Y-137937D02*
Y-153172D01*
X1284332D01*
X1281792Y-150633D01*
Y-145555D01*
X1284332Y-143015D01*
X1291949D01*
X1299567Y-153172D02*
X1304645D01*
X1307184Y-150633D01*
Y-145555D01*
X1304645Y-143015D01*
X1299567D01*
X1297027Y-145555D01*
Y-150633D01*
X1299567Y-153172D01*
X1327498D02*
Y-143015D01*
X1335115D01*
X1337654Y-145555D01*
Y-153172D01*
X1345272D02*
X1350350D01*
X1352889Y-150633D01*
Y-145555D01*
X1350350Y-143015D01*
X1345272D01*
X1342733Y-145555D01*
Y-150633D01*
X1345272Y-153172D01*
X1360507Y-140476D02*
Y-143015D01*
X1357968D01*
X1363046D01*
X1360507D01*
Y-150633D01*
X1363046Y-153172D01*
X1385899Y-137937D02*
Y-153172D01*
Y-145555D01*
X1388438Y-143015D01*
X1393516D01*
X1396055Y-145555D01*
Y-153172D01*
X1403673Y-143015D02*
X1408751D01*
X1411290Y-145555D01*
Y-153172D01*
X1403673D01*
X1401134Y-150633D01*
X1403673Y-148094D01*
X1411290D01*
X1416369Y-143015D02*
X1421447Y-153172D01*
X1426526Y-143015D01*
X1439221Y-153172D02*
X1434143D01*
X1431604Y-150633D01*
Y-145555D01*
X1434143Y-143015D01*
X1439221D01*
X1441761Y-145555D01*
Y-148094D01*
X1431604D01*
X1464613Y-140476D02*
Y-143015D01*
X1462074D01*
X1467152D01*
X1464613D01*
Y-150633D01*
X1467152Y-153172D01*
X1477309D02*
X1482387D01*
X1484927Y-150633D01*
Y-145555D01*
X1482387Y-143015D01*
X1477309D01*
X1474770Y-145555D01*
Y-150633D01*
X1477309Y-153172D01*
X1515397Y-143015D02*
X1507779D01*
X1505240Y-145555D01*
Y-150633D01*
X1507779Y-153172D01*
X1515397D01*
X1523014D02*
X1528093D01*
X1530632Y-150633D01*
Y-145555D01*
X1528093Y-143015D01*
X1523014D01*
X1520475Y-145555D01*
Y-150633D01*
X1523014Y-153172D01*
X1535710D02*
Y-143015D01*
X1538249D01*
X1540789Y-145555D01*
Y-153172D01*
Y-145555D01*
X1543328Y-143015D01*
X1545867Y-145555D01*
Y-153172D01*
X1550945Y-158250D02*
Y-143015D01*
X1558563D01*
X1561102Y-145555D01*
Y-150633D01*
X1558563Y-153172D01*
X1550945D01*
X1566180D02*
X1571259D01*
X1568719D01*
Y-137937D01*
X1566180D01*
X1578876Y-143015D02*
Y-150633D01*
X1581415Y-153172D01*
X1589033D01*
Y-155711D01*
X1586494Y-158250D01*
X1583954D01*
X1589033Y-153172D02*
Y-143015D01*
X1609346D02*
Y-150633D01*
X1611886Y-153172D01*
X1614425Y-150633D01*
X1616964Y-153172D01*
X1619503Y-150633D01*
Y-143015D01*
X1624581Y-153172D02*
X1629660D01*
X1627121D01*
Y-143015D01*
X1624581D01*
X1639816Y-140476D02*
Y-143015D01*
X1637277D01*
X1642356D01*
X1639816D01*
Y-150633D01*
X1642356Y-153172D01*
X1649973Y-137937D02*
Y-153172D01*
Y-145555D01*
X1652512Y-143015D01*
X1657591D01*
X1660130Y-145555D01*
Y-153172D01*
X1682982Y-140476D02*
Y-143015D01*
X1680443D01*
X1685522D01*
X1682982D01*
Y-150633D01*
X1685522Y-153172D01*
X1693139Y-137937D02*
Y-153172D01*
Y-145555D01*
X1695678Y-143015D01*
X1700757D01*
X1703296Y-145555D01*
Y-153172D01*
X1715992D02*
X1710914D01*
X1708374Y-150633D01*
Y-145555D01*
X1710914Y-143015D01*
X1715992D01*
X1718531Y-145555D01*
Y-148094D01*
X1708374D01*
X1738844Y-153172D02*
X1743923D01*
X1741384D01*
Y-137937D01*
X1738844D01*
X1751540Y-153172D02*
X1756619D01*
X1754079D01*
Y-143015D01*
X1751540D01*
X1774393D02*
X1766775D01*
X1764236Y-145555D01*
Y-150633D01*
X1766775Y-153172D01*
X1774393D01*
X1787089D02*
X1782010D01*
X1779471Y-150633D01*
Y-145555D01*
X1782010Y-143015D01*
X1787089D01*
X1789628Y-145555D01*
Y-148094D01*
X1779471D01*
X1794706Y-153172D02*
Y-143015D01*
X1802324D01*
X1804863Y-145555D01*
Y-153172D01*
X1809941D02*
X1817559D01*
X1820098Y-150633D01*
X1817559Y-148094D01*
X1812481D01*
X1809941Y-145555D01*
X1812481Y-143015D01*
X1820098D01*
X1832794Y-153172D02*
X1827716D01*
X1825177Y-150633D01*
Y-145555D01*
X1827716Y-143015D01*
X1832794D01*
X1835333Y-145555D01*
Y-148094D01*
X1825177D01*
X1858186Y-153172D02*
Y-140476D01*
Y-145555D01*
X1855647D01*
X1860725D01*
X1858186D01*
Y-140476D01*
X1860725Y-137937D01*
X1870882Y-153172D02*
X1875960D01*
X1878499Y-150633D01*
Y-145555D01*
X1875960Y-143015D01*
X1870882D01*
X1868342Y-145555D01*
Y-150633D01*
X1870882Y-153172D01*
X1883578Y-143015D02*
Y-153172D01*
Y-148094D01*
X1886117Y-145555D01*
X1888656Y-143015D01*
X1891195D01*
X1921665Y-153172D02*
X1916587D01*
X1914048Y-150633D01*
Y-145555D01*
X1916587Y-143015D01*
X1921665D01*
X1924205Y-145555D01*
Y-148094D01*
X1914048D01*
X1929283Y-153172D02*
X1934361D01*
X1931822D01*
Y-137937D01*
X1929283D01*
X1949596Y-153172D02*
X1944518D01*
X1941979Y-150633D01*
Y-145555D01*
X1944518Y-143015D01*
X1949596D01*
X1952135Y-145555D01*
Y-148094D01*
X1941979D01*
X1957214Y-153172D02*
Y-143015D01*
X1959753D01*
X1962292Y-145555D01*
Y-153172D01*
Y-145555D01*
X1964831Y-143015D01*
X1967370Y-145555D01*
Y-153172D01*
X1980066D02*
X1974988D01*
X1972449Y-150633D01*
Y-145555D01*
X1974988Y-143015D01*
X1980066D01*
X1982606Y-145555D01*
Y-148094D01*
X1972449D01*
X1987684Y-153172D02*
Y-143015D01*
X1995301D01*
X1997841Y-145555D01*
Y-153172D01*
X2005458Y-140476D02*
Y-143015D01*
X2002919D01*
X2007997D01*
X2005458D01*
Y-150633D01*
X2007997Y-153172D01*
X2015615D02*
X2023232D01*
X2025772Y-150633D01*
X2023232Y-148094D01*
X2018154D01*
X2015615Y-145555D01*
X2018154Y-143015D01*
X2025772D01*
X2048624Y-153172D02*
X2053703D01*
X2056242Y-150633D01*
Y-145555D01*
X2053703Y-143015D01*
X2048624D01*
X2046085Y-145555D01*
Y-150633D01*
X2048624Y-153172D01*
X2063859D02*
Y-140476D01*
Y-145555D01*
X2061320D01*
X2066398D01*
X2063859D01*
Y-140476D01*
X2066398Y-137937D01*
X2091790Y-140476D02*
Y-143015D01*
X2089251D01*
X2094329D01*
X2091790D01*
Y-150633D01*
X2094329Y-153172D01*
X2101947Y-137937D02*
Y-153172D01*
Y-145555D01*
X2104486Y-143015D01*
X2109565D01*
X2112104Y-145555D01*
Y-153172D01*
X2124799D02*
X2119721D01*
X2117182Y-150633D01*
Y-145555D01*
X2119721Y-143015D01*
X2124799D01*
X2127339Y-145555D01*
Y-148094D01*
X2117182D01*
X2147652Y-153172D02*
Y-143015D01*
X2150191D01*
X2152731Y-145555D01*
Y-153172D01*
Y-145555D01*
X2155270Y-143015D01*
X2157809Y-145555D01*
Y-153172D01*
X2165426Y-143015D02*
X2170505D01*
X2173044Y-145555D01*
Y-153172D01*
X2165426D01*
X2162887Y-150633D01*
X2165426Y-148094D01*
X2173044D01*
X2180661Y-140476D02*
Y-143015D01*
X2178122D01*
X2183201D01*
X2180661D01*
Y-150633D01*
X2183201Y-153172D01*
X2198436D02*
X2193357D01*
X2190818Y-150633D01*
Y-145555D01*
X2193357Y-143015D01*
X2198436D01*
X2200975Y-145555D01*
Y-148094D01*
X2190818D01*
X2206053Y-143015D02*
Y-153172D01*
Y-148094D01*
X2208592Y-145555D01*
X2211132Y-143015D01*
X2213671D01*
X2221288Y-153172D02*
X2226367D01*
X2223828D01*
Y-143015D01*
X2221288D01*
X2236523D02*
X2241602D01*
X2244141Y-145555D01*
Y-153172D01*
X2236523D01*
X2233984Y-150633D01*
X2236523Y-148094D01*
X2244141D01*
X2249219Y-153172D02*
X2254298D01*
X2251759D01*
Y-137937D01*
X2249219D01*
X2277150Y-153172D02*
X2282229D01*
X2279689D01*
Y-143015D01*
X2277150D01*
X2289846Y-153172D02*
Y-143015D01*
X2297464D01*
X2300003Y-145555D01*
Y-153172D01*
X2322856Y-140476D02*
Y-143015D01*
X2320316D01*
X2325395D01*
X2322856D01*
Y-150633D01*
X2325395Y-153172D01*
X2333012Y-137937D02*
Y-153172D01*
Y-145555D01*
X2335551Y-143015D01*
X2340630D01*
X2343169Y-145555D01*
Y-153172D01*
X2355865D02*
X2350786D01*
X2348247Y-150633D01*
Y-145555D01*
X2350786Y-143015D01*
X2355865D01*
X2358404Y-145555D01*
Y-148094D01*
X2348247D01*
X2378717Y-158250D02*
Y-143015D01*
X2386335D01*
X2388874Y-145555D01*
Y-150633D01*
X2386335Y-153172D01*
X2378717D01*
X2393952Y-143015D02*
Y-150633D01*
X2396492Y-153172D01*
X2404109D01*
Y-143015D01*
X2409187Y-137937D02*
Y-153172D01*
X2416805D01*
X2419344Y-150633D01*
Y-148094D01*
Y-145555D01*
X2416805Y-143015D01*
X2409187D01*
X2424423Y-153172D02*
X2429501D01*
X2426962D01*
Y-137937D01*
X2424423D01*
X2437119Y-153172D02*
X2442197D01*
X2439658D01*
Y-143015D01*
X2437119D01*
X2459971D02*
X2452354D01*
X2449814Y-145555D01*
Y-150633D01*
X2452354Y-153172D01*
X2459971D01*
X2490441Y-137937D02*
Y-153172D01*
X2482824D01*
X2480284Y-150633D01*
Y-145555D01*
X2482824Y-143015D01*
X2490441D01*
X2498059Y-153172D02*
X2503137D01*
X2505676Y-150633D01*
Y-145555D01*
X2503137Y-143015D01*
X2498059D01*
X2495520Y-145555D01*
Y-150633D01*
X2498059Y-153172D01*
X2510755D02*
Y-143015D01*
X2513294D01*
X2515833Y-145555D01*
Y-153172D01*
Y-145555D01*
X2518372Y-143015D01*
X2520911Y-145555D01*
Y-153172D01*
X2528529Y-143015D02*
X2533607D01*
X2536146Y-145555D01*
Y-153172D01*
X2528529D01*
X2525990Y-150633D01*
X2528529Y-148094D01*
X2536146D01*
X2541225Y-153172D02*
X2546303D01*
X2543764D01*
Y-143015D01*
X2541225D01*
X2553921Y-153172D02*
Y-143015D01*
X2561538D01*
X2564077Y-145555D01*
Y-153172D01*
X2586930D02*
X2592008D01*
X2594547Y-150633D01*
Y-145555D01*
X2592008Y-143015D01*
X2586930D01*
X2584391Y-145555D01*
Y-150633D01*
X2586930Y-153172D01*
X2599626Y-143015D02*
Y-153172D01*
Y-148094D01*
X2602165Y-145555D01*
X2604704Y-143015D01*
X2607243D01*
X2630096D02*
Y-150633D01*
X2632635Y-153172D01*
X2635174Y-150633D01*
X2637714Y-153172D01*
X2640253Y-150633D01*
Y-143015D01*
X2645331Y-137937D02*
Y-153172D01*
Y-145555D01*
X2647870Y-143015D01*
X2652949D01*
X2655488Y-145555D01*
Y-153172D01*
X2668184D02*
X2663105D01*
X2660566Y-150633D01*
Y-145555D01*
X2663105Y-143015D01*
X2668184D01*
X2670723Y-145555D01*
Y-148094D01*
X2660566D01*
X2675801Y-143015D02*
Y-153172D01*
Y-148094D01*
X2678340Y-145555D01*
X2680880Y-143015D01*
X2683419D01*
X2698654Y-153172D02*
X2693575D01*
X2691036Y-150633D01*
Y-145555D01*
X2693575Y-143015D01*
X2698654D01*
X2701193Y-145555D01*
Y-148094D01*
X2691036D01*
X1220852Y-168015D02*
Y-175633D01*
X1223391Y-178172D01*
X1231009D01*
Y-180711D01*
X1228470Y-183250D01*
X1225930D01*
X1231009Y-178172D02*
Y-168015D01*
X1238626Y-178172D02*
X1243705D01*
X1246244Y-175633D01*
Y-170555D01*
X1243705Y-168015D01*
X1238626D01*
X1236087Y-170555D01*
Y-175633D01*
X1238626Y-178172D01*
X1251322Y-168015D02*
Y-175633D01*
X1253861Y-178172D01*
X1261479D01*
Y-168015D01*
X1266557D02*
Y-178172D01*
Y-173094D01*
X1269096Y-170555D01*
X1271636Y-168015D01*
X1274175D01*
X1297027D02*
Y-175633D01*
X1299567Y-178172D01*
X1307184D01*
Y-168015D01*
X1312263Y-178172D02*
X1319880D01*
X1322419Y-175633D01*
X1319880Y-173094D01*
X1314802D01*
X1312263Y-170555D01*
X1314802Y-168015D01*
X1322419D01*
X1335115Y-178172D02*
X1330037D01*
X1327498Y-175633D01*
Y-170555D01*
X1330037Y-168015D01*
X1335115D01*
X1337654Y-170555D01*
Y-173094D01*
X1327498D01*
X1357968Y-178172D02*
X1363046D01*
X1360507D01*
Y-168015D01*
X1357968D01*
X1370664Y-178172D02*
X1378281D01*
X1380820Y-175633D01*
X1378281Y-173094D01*
X1373203D01*
X1370664Y-170555D01*
X1373203Y-168015D01*
X1380820D01*
X1401134Y-183250D02*
Y-168015D01*
X1408751D01*
X1411290Y-170555D01*
Y-175633D01*
X1408751Y-178172D01*
X1401134D01*
X1423986D02*
X1418908D01*
X1416369Y-175633D01*
Y-170555D01*
X1418908Y-168015D01*
X1423986D01*
X1426526Y-170555D01*
Y-173094D01*
X1416369D01*
X1431604Y-168015D02*
Y-178172D01*
Y-173094D01*
X1434143Y-170555D01*
X1436682Y-168015D01*
X1439221D01*
X1446839Y-178172D02*
Y-168015D01*
X1449378D01*
X1451917Y-170555D01*
Y-178172D01*
Y-170555D01*
X1454456Y-168015D01*
X1456996Y-170555D01*
Y-178172D01*
X1462074D02*
X1467152D01*
X1464613D01*
Y-168015D01*
X1462074D01*
X1477309Y-165476D02*
Y-168015D01*
X1474770D01*
X1479848D01*
X1477309D01*
Y-175633D01*
X1479848Y-178172D01*
X1490005Y-165476D02*
Y-168015D01*
X1487466D01*
X1492544D01*
X1490005D01*
Y-175633D01*
X1492544Y-178172D01*
X1507779D02*
X1502701D01*
X1500162Y-175633D01*
Y-170555D01*
X1502701Y-168015D01*
X1507779D01*
X1510318Y-170555D01*
Y-173094D01*
X1500162D01*
X1525553Y-162937D02*
Y-178172D01*
X1517936D01*
X1515397Y-175633D01*
Y-170555D01*
X1517936Y-168015D01*
X1525553D01*
X1545867Y-162937D02*
Y-178172D01*
X1553484D01*
X1556024Y-175633D01*
Y-173094D01*
Y-170555D01*
X1553484Y-168015D01*
X1545867D01*
X1561102D02*
Y-175633D01*
X1563641Y-178172D01*
X1571259D01*
Y-180711D01*
X1568719Y-183250D01*
X1566180D01*
X1571259Y-178172D02*
Y-168015D01*
X1594111D02*
X1599190D01*
X1601729Y-170555D01*
Y-178172D01*
X1594111D01*
X1591572Y-175633D01*
X1594111Y-173094D01*
X1601729D01*
X1606807Y-178172D02*
Y-168015D01*
X1614425D01*
X1616964Y-170555D01*
Y-178172D01*
X1639816Y-168015D02*
X1644895D01*
X1647434Y-170555D01*
Y-178172D01*
X1639816D01*
X1637277Y-175633D01*
X1639816Y-173094D01*
X1647434D01*
X1652512Y-183250D02*
Y-168015D01*
X1660130D01*
X1662669Y-170555D01*
Y-175633D01*
X1660130Y-178172D01*
X1652512D01*
X1667747Y-183250D02*
Y-168015D01*
X1675365D01*
X1677904Y-170555D01*
Y-175633D01*
X1675365Y-178172D01*
X1667747D01*
X1682982D02*
X1688061D01*
X1685522D01*
Y-162937D01*
X1682982D01*
X1695678Y-178172D02*
X1700757D01*
X1698218D01*
Y-168015D01*
X1695678D01*
X1718531D02*
X1710914D01*
X1708374Y-170555D01*
Y-175633D01*
X1710914Y-178172D01*
X1718531D01*
X1726149Y-168015D02*
X1731227D01*
X1733766Y-170555D01*
Y-178172D01*
X1726149D01*
X1723609Y-175633D01*
X1726149Y-173094D01*
X1733766D01*
X1738844Y-162937D02*
Y-178172D01*
X1746462D01*
X1749001Y-175633D01*
Y-173094D01*
Y-170555D01*
X1746462Y-168015D01*
X1738844D01*
X1754079Y-178172D02*
X1759158D01*
X1756619D01*
Y-162937D01*
X1754079D01*
X1774393Y-178172D02*
X1769315D01*
X1766775Y-175633D01*
Y-170555D01*
X1769315Y-168015D01*
X1774393D01*
X1776932Y-170555D01*
Y-173094D01*
X1766775D01*
X1804863Y-178172D02*
X1799785D01*
X1797245Y-175633D01*
Y-170555D01*
X1799785Y-168015D01*
X1804863D01*
X1807402Y-170555D01*
Y-173094D01*
X1797245D01*
X1812481Y-168015D02*
X1822637Y-178172D01*
X1817559Y-173094D01*
X1822637Y-168015D01*
X1812481Y-178172D01*
X1837872Y-168015D02*
X1830255D01*
X1827716Y-170555D01*
Y-175633D01*
X1830255Y-178172D01*
X1837872D01*
X1850568D02*
X1845490D01*
X1842951Y-175633D01*
Y-170555D01*
X1845490Y-168015D01*
X1850568D01*
X1853107Y-170555D01*
Y-173094D01*
X1842951D01*
X1858186Y-183250D02*
Y-168015D01*
X1865803D01*
X1868342Y-170555D01*
Y-175633D01*
X1865803Y-178172D01*
X1858186D01*
X1875960Y-165476D02*
Y-168015D01*
X1873421D01*
X1878499D01*
X1875960D01*
Y-175633D01*
X1878499Y-178172D01*
X1886117D02*
X1891195D01*
X1888656D01*
Y-168015D01*
X1886117D01*
X1901352Y-178172D02*
X1906430D01*
X1908969Y-175633D01*
Y-170555D01*
X1906430Y-168015D01*
X1901352D01*
X1898813Y-170555D01*
Y-175633D01*
X1901352Y-178172D01*
X1914048D02*
Y-168015D01*
X1921665D01*
X1924205Y-170555D01*
Y-178172D01*
X1947057D02*
X1952135D01*
X1954675Y-175633D01*
Y-170555D01*
X1952135Y-168015D01*
X1947057D01*
X1944518Y-170555D01*
Y-175633D01*
X1947057Y-178172D01*
X1959753Y-168015D02*
Y-178172D01*
Y-173094D01*
X1962292Y-170555D01*
X1964831Y-168015D01*
X1967370D01*
X1990223Y-178172D02*
X1995301D01*
X1992762D01*
Y-162937D01*
X1990223D01*
X2002919Y-178172D02*
X2007997D01*
X2005458D01*
Y-168015D01*
X2002919D01*
X2015615Y-178172D02*
Y-168015D01*
X2018154D01*
X2020693Y-170555D01*
Y-178172D01*
Y-170555D01*
X2023232Y-168015D01*
X2025772Y-170555D01*
Y-178172D01*
X2030850D02*
X2035928D01*
X2033389D01*
Y-168015D01*
X2030850D01*
X2046085Y-165476D02*
Y-168015D01*
X2043546D01*
X2048624D01*
X2046085D01*
Y-175633D01*
X2048624Y-178172D01*
X2058781Y-168015D02*
X2063859D01*
X2066398Y-170555D01*
Y-178172D01*
X2058781D01*
X2056242Y-175633D01*
X2058781Y-173094D01*
X2066398D01*
X2074016Y-165476D02*
Y-168015D01*
X2071477D01*
X2076555D01*
X2074016D01*
Y-175633D01*
X2076555Y-178172D01*
X2084173D02*
X2089251D01*
X2086712D01*
Y-168015D01*
X2084173D01*
X2099408Y-178172D02*
X2104486D01*
X2107025Y-175633D01*
Y-170555D01*
X2104486Y-168015D01*
X2099408D01*
X2096869Y-170555D01*
Y-175633D01*
X2099408Y-178172D01*
X2112104D02*
Y-168015D01*
X2119721D01*
X2122260Y-170555D01*
Y-178172D01*
X2127339D02*
Y-175633D01*
X2129878D01*
Y-178172D01*
X2127339D01*
X1220852Y-228172D02*
Y-212937D01*
X1231009Y-228172D01*
Y-212937D01*
X1238626Y-228172D02*
X1243705D01*
X1246244Y-225633D01*
Y-220555D01*
X1243705Y-218015D01*
X1238626D01*
X1236087Y-220555D01*
Y-225633D01*
X1238626Y-228172D01*
X1266557Y-218015D02*
Y-225633D01*
X1269096Y-228172D01*
X1271636Y-225633D01*
X1274175Y-228172D01*
X1276714Y-225633D01*
Y-218015D01*
X1284332D02*
X1289410D01*
X1291949Y-220555D01*
Y-228172D01*
X1284332D01*
X1281792Y-225633D01*
X1284332Y-223094D01*
X1291949D01*
X1297027Y-218015D02*
Y-228172D01*
Y-223094D01*
X1299567Y-220555D01*
X1302106Y-218015D01*
X1304645D01*
X1312263D02*
Y-228172D01*
Y-223094D01*
X1314802Y-220555D01*
X1317341Y-218015D01*
X1319880D01*
X1330037D02*
X1335115D01*
X1337654Y-220555D01*
Y-228172D01*
X1330037D01*
X1327498Y-225633D01*
X1330037Y-223094D01*
X1337654D01*
X1342733Y-228172D02*
Y-218015D01*
X1350350D01*
X1352889Y-220555D01*
Y-228172D01*
X1360507Y-215476D02*
Y-218015D01*
X1357968D01*
X1363046D01*
X1360507D01*
Y-225633D01*
X1363046Y-228172D01*
X1370664D02*
X1375742D01*
X1373203D01*
Y-218015D01*
X1370664D01*
X1390977Y-228172D02*
X1385899D01*
X1383359Y-225633D01*
Y-220555D01*
X1385899Y-218015D01*
X1390977D01*
X1393516Y-220555D01*
Y-223094D01*
X1383359D01*
X1398595Y-228172D02*
X1406212D01*
X1408751Y-225633D01*
X1406212Y-223094D01*
X1401134D01*
X1398595Y-220555D01*
X1401134Y-218015D01*
X1408751D01*
X1431604D02*
X1436682D01*
X1439221Y-220555D01*
Y-228172D01*
X1431604D01*
X1429065Y-225633D01*
X1431604Y-223094D01*
X1439221D01*
X1444300Y-218015D02*
Y-228172D01*
Y-223094D01*
X1446839Y-220555D01*
X1449378Y-218015D01*
X1451917D01*
X1467152Y-228172D02*
X1462074D01*
X1459535Y-225633D01*
Y-220555D01*
X1462074Y-218015D01*
X1467152D01*
X1469691Y-220555D01*
Y-223094D01*
X1459535D01*
X1495083Y-233250D02*
X1497623D01*
X1500162Y-230711D01*
Y-218015D01*
X1492544D01*
X1490005Y-220555D01*
Y-225633D01*
X1492544Y-228172D01*
X1500162D01*
X1505240D02*
X1510318D01*
X1507779D01*
Y-218015D01*
X1505240D01*
X1517936D02*
X1523014Y-228172D01*
X1528093Y-218015D01*
X1540789Y-228172D02*
X1535710D01*
X1533171Y-225633D01*
Y-220555D01*
X1535710Y-218015D01*
X1540789D01*
X1543328Y-220555D01*
Y-223094D01*
X1533171D01*
X1548406Y-228172D02*
Y-218015D01*
X1556024D01*
X1558563Y-220555D01*
Y-228172D01*
X1563641D02*
Y-225633D01*
X1566180D01*
Y-228172D01*
X1563641D01*
X1591572Y-212937D02*
X1601729D01*
X1596650D01*
Y-228172D01*
X1606807Y-212937D02*
Y-228172D01*
Y-220555D01*
X1609346Y-218015D01*
X1614425D01*
X1616964Y-220555D01*
Y-228172D01*
X1629660D02*
X1624581D01*
X1622042Y-225633D01*
Y-220555D01*
X1624581Y-218015D01*
X1629660D01*
X1632199Y-220555D01*
Y-223094D01*
X1622042D01*
X1652512Y-228172D02*
X1657591D01*
X1655052D01*
Y-212937D01*
X1652512D01*
X1665208Y-228172D02*
X1670287D01*
X1667747D01*
Y-218015D01*
X1665208D01*
X1688061D02*
X1680443D01*
X1677904Y-220555D01*
Y-225633D01*
X1680443Y-228172D01*
X1688061D01*
X1700757D02*
X1695678D01*
X1693139Y-225633D01*
Y-220555D01*
X1695678Y-218015D01*
X1700757D01*
X1703296Y-220555D01*
Y-223094D01*
X1693139D01*
X1708374Y-228172D02*
Y-218015D01*
X1715992D01*
X1718531Y-220555D01*
Y-228172D01*
X1723609D02*
X1731227D01*
X1733766Y-225633D01*
X1731227Y-223094D01*
X1726149D01*
X1723609Y-220555D01*
X1726149Y-218015D01*
X1733766D01*
X1746462Y-228172D02*
X1741384D01*
X1738844Y-225633D01*
Y-220555D01*
X1741384Y-218015D01*
X1746462D01*
X1749001Y-220555D01*
Y-223094D01*
X1738844D01*
X1769315Y-228172D02*
Y-218015D01*
X1771854D01*
X1774393Y-220555D01*
Y-228172D01*
Y-220555D01*
X1776932Y-218015D01*
X1779471Y-220555D01*
Y-228172D01*
X1787089Y-218015D02*
X1792167D01*
X1794706Y-220555D01*
Y-228172D01*
X1787089D01*
X1784550Y-225633D01*
X1787089Y-223094D01*
X1794706D01*
X1799785Y-218015D02*
Y-225633D01*
X1802324Y-228172D01*
X1809941D01*
Y-230711D01*
X1807402Y-233250D01*
X1804863D01*
X1809941Y-228172D02*
Y-218015D01*
X1830255Y-228172D02*
Y-218015D01*
X1837872D01*
X1840412Y-220555D01*
Y-228172D01*
X1848029D02*
X1853107D01*
X1855647Y-225633D01*
Y-220555D01*
X1853107Y-218015D01*
X1848029D01*
X1845490Y-220555D01*
Y-225633D01*
X1848029Y-228172D01*
X1863264Y-215476D02*
Y-218015D01*
X1860725D01*
X1865803D01*
X1863264D01*
Y-225633D01*
X1865803Y-228172D01*
X1893734Y-233250D02*
X1896273D01*
X1898813Y-230711D01*
Y-218015D01*
X1891195D01*
X1888656Y-220555D01*
Y-225633D01*
X1891195Y-228172D01*
X1898813D01*
X1903891D02*
X1908969D01*
X1906430D01*
Y-218015D01*
X1903891D01*
X1916587D02*
X1921665Y-228172D01*
X1926744Y-218015D01*
X1939440Y-228172D02*
X1934361D01*
X1931822Y-225633D01*
Y-220555D01*
X1934361Y-218015D01*
X1939440D01*
X1941979Y-220555D01*
Y-223094D01*
X1931822D01*
X1962292Y-218015D02*
Y-225633D01*
X1964831Y-228172D01*
X1972449D01*
Y-230711D01*
X1969910Y-233250D01*
X1967370D01*
X1972449Y-228172D02*
Y-218015D01*
X1980066Y-228172D02*
X1985145D01*
X1987684Y-225633D01*
Y-220555D01*
X1985145Y-218015D01*
X1980066D01*
X1977527Y-220555D01*
Y-225633D01*
X1980066Y-228172D01*
X1992762Y-218015D02*
Y-225633D01*
X1995302Y-228172D01*
X2002919D01*
Y-218015D01*
X2025772D02*
X2030850D01*
X2033389Y-220555D01*
Y-228172D01*
X2025772D01*
X2023232Y-225633D01*
X2025772Y-223094D01*
X2033389D01*
X2038468Y-228172D02*
X2043546D01*
X2041007D01*
Y-212937D01*
X2038468D01*
X2051163Y-228172D02*
X2056242D01*
X2053703D01*
Y-212937D01*
X2051163D01*
X2081633Y-228172D02*
X2086712D01*
X2089251Y-225633D01*
Y-220555D01*
X2086712Y-218015D01*
X2081633D01*
X2079094Y-220555D01*
Y-225633D01*
X2081633Y-228172D01*
X2096869D02*
Y-215476D01*
Y-220555D01*
X2094329D01*
X2099408D01*
X2096869D01*
Y-215476D01*
X2099408Y-212937D01*
X2124800Y-215476D02*
Y-218015D01*
X2122260D01*
X2127339D01*
X2124800D01*
Y-225633D01*
X2127339Y-228172D01*
X2134956Y-212937D02*
Y-228172D01*
Y-220555D01*
X2137495Y-218015D01*
X2142574D01*
X2145113Y-220555D01*
Y-228172D01*
X2157809D02*
X2152731D01*
X2150191Y-225633D01*
Y-220555D01*
X2152731Y-218015D01*
X2157809D01*
X2160348Y-220555D01*
Y-223094D01*
X2150191D01*
X2180661Y-233250D02*
Y-218015D01*
X2188279D01*
X2190818Y-220555D01*
Y-225633D01*
X2188279Y-228172D01*
X2180661D01*
X2203514D02*
X2198436D01*
X2195896Y-225633D01*
Y-220555D01*
X2198436Y-218015D01*
X2203514D01*
X2206053Y-220555D01*
Y-223094D01*
X2195896D01*
X2211132Y-218015D02*
Y-228172D01*
Y-223094D01*
X2213671Y-220555D01*
X2216210Y-218015D01*
X2218749D01*
X2226367Y-228172D02*
Y-218015D01*
X2228906D01*
X2231445Y-220555D01*
Y-228172D01*
Y-220555D01*
X2233984Y-218015D01*
X2236523Y-220555D01*
Y-228172D01*
X2241602D02*
X2246680D01*
X2244141D01*
Y-218015D01*
X2241602D01*
X2254298Y-228172D02*
X2261915D01*
X2264454Y-225633D01*
X2261915Y-223094D01*
X2256837D01*
X2254298Y-220555D01*
X2256837Y-218015D01*
X2264454D01*
X2269533Y-228172D02*
X2277150D01*
X2279689Y-225633D01*
X2277150Y-223094D01*
X2272072D01*
X2269533Y-220555D01*
X2272072Y-218015D01*
X2279689D01*
X2284768Y-228172D02*
X2289846D01*
X2287307D01*
Y-218015D01*
X2284768D01*
X2300003Y-228172D02*
X2305081D01*
X2307620Y-225633D01*
Y-220555D01*
X2305081Y-218015D01*
X2300003D01*
X2297464Y-220555D01*
Y-225633D01*
X2300003Y-228172D01*
X2312699D02*
Y-218015D01*
X2320316D01*
X2322856Y-220555D01*
Y-228172D01*
X2327934D02*
X2335551D01*
X2338091Y-225633D01*
X2335551Y-223094D01*
X2330473D01*
X2327934Y-220555D01*
X2330473Y-218015D01*
X2338091D01*
X2358404Y-228172D02*
Y-218015D01*
X2366022D01*
X2368561Y-220555D01*
Y-228172D01*
X2381257D02*
X2376178D01*
X2373639Y-225633D01*
Y-220555D01*
X2376178Y-218015D01*
X2381257D01*
X2383796Y-220555D01*
Y-223094D01*
X2373639D01*
X2399031Y-218015D02*
X2391413D01*
X2388874Y-220555D01*
Y-225633D01*
X2391413Y-228172D01*
X2399031D01*
X2411727D02*
X2406648D01*
X2404109Y-225633D01*
Y-220555D01*
X2406648Y-218015D01*
X2411727D01*
X2414266Y-220555D01*
Y-223094D01*
X2404109D01*
X2419344Y-228172D02*
X2426962D01*
X2429501Y-225633D01*
X2426962Y-223094D01*
X2421883D01*
X2419344Y-220555D01*
X2421883Y-218015D01*
X2429501D01*
X2434579Y-228172D02*
X2442197D01*
X2444736Y-225633D01*
X2442197Y-223094D01*
X2437119D01*
X2434579Y-220555D01*
X2437119Y-218015D01*
X2444736D01*
X2452354D02*
X2457432D01*
X2459971Y-220555D01*
Y-228172D01*
X2452354D01*
X2449814Y-225633D01*
X2452354Y-223094D01*
X2459971D01*
X2465049Y-218015D02*
Y-228172D01*
Y-223094D01*
X2467589Y-220555D01*
X2470128Y-218015D01*
X2472667D01*
X2480284D02*
Y-225633D01*
X2482824Y-228172D01*
X2490441D01*
Y-230711D01*
X2487902Y-233250D01*
X2485363D01*
X2490441Y-228172D02*
Y-218015D01*
X2513294Y-228172D02*
Y-215476D01*
Y-220555D01*
X2510755D01*
X2515833D01*
X2513294D01*
Y-215476D01*
X2515833Y-212937D01*
X2525990Y-228172D02*
X2531068D01*
X2533607Y-225633D01*
Y-220555D01*
X2531068Y-218015D01*
X2525990D01*
X2523451Y-220555D01*
Y-225633D01*
X2525990Y-228172D01*
X2538686Y-218015D02*
Y-228172D01*
Y-223094D01*
X2541225Y-220555D01*
X2543764Y-218015D01*
X2546303D01*
X2569156D02*
Y-225633D01*
X2571695Y-228172D01*
X2579312D01*
Y-230711D01*
X2576773Y-233250D01*
X2574234D01*
X2579312Y-228172D02*
Y-218015D01*
X2586930Y-228172D02*
X2592008D01*
X2594548Y-225633D01*
Y-220555D01*
X2592008Y-218015D01*
X2586930D01*
X2584391Y-220555D01*
Y-225633D01*
X2586930Y-228172D01*
X2599626Y-218015D02*
Y-225633D01*
X2602165Y-228172D01*
X2609783D01*
Y-218015D01*
X2614861D02*
Y-228172D01*
Y-223094D01*
X2617400Y-220555D01*
X2619939Y-218015D01*
X2622479D01*
X1220852Y-253172D02*
X1225930D01*
X1223391D01*
Y-243015D01*
X1220852D01*
X1233548Y-253172D02*
Y-243015D01*
X1241165D01*
X1243705Y-245555D01*
Y-253172D01*
X1251322Y-240476D02*
Y-243015D01*
X1248783D01*
X1253861D01*
X1251322D01*
Y-250633D01*
X1253861Y-253172D01*
X1269096D02*
X1264018D01*
X1261479Y-250633D01*
Y-245555D01*
X1264018Y-243015D01*
X1269096D01*
X1271636Y-245555D01*
Y-248094D01*
X1261479D01*
X1276714Y-253172D02*
Y-243015D01*
X1284332D01*
X1286871Y-245555D01*
Y-253172D01*
X1302106Y-237937D02*
Y-253172D01*
X1294488D01*
X1291949Y-250633D01*
Y-245555D01*
X1294488Y-243015D01*
X1302106D01*
X1314802Y-253172D02*
X1309723D01*
X1307184Y-250633D01*
Y-245555D01*
X1309723Y-243015D01*
X1314802D01*
X1317341Y-245555D01*
Y-248094D01*
X1307184D01*
X1332576Y-237937D02*
Y-253172D01*
X1324958D01*
X1322419Y-250633D01*
Y-245555D01*
X1324958Y-243015D01*
X1332576D01*
X1352889D02*
Y-250633D01*
X1355428Y-253172D01*
X1363046D01*
Y-243015D01*
X1368124Y-253172D02*
X1375742D01*
X1378281Y-250633D01*
X1375742Y-248094D01*
X1370664D01*
X1368124Y-245555D01*
X1370664Y-243015D01*
X1378281D01*
X1390977Y-253172D02*
X1385899D01*
X1383359Y-250633D01*
Y-245555D01*
X1385899Y-243015D01*
X1390977D01*
X1393516Y-245555D01*
Y-248094D01*
X1383359D01*
X1398595Y-253172D02*
Y-250633D01*
X1401134D01*
Y-253172D01*
X1398595D01*
X1436682Y-237937D02*
X1426526D01*
Y-245555D01*
X1431604D01*
X1426526D01*
Y-253172D01*
X1444300D02*
X1449378D01*
X1451917Y-250633D01*
Y-245555D01*
X1449378Y-243015D01*
X1444300D01*
X1441761Y-245555D01*
Y-250633D01*
X1444300Y-253172D01*
X1456996Y-243015D02*
Y-253172D01*
Y-248094D01*
X1459535Y-245555D01*
X1462074Y-243015D01*
X1464613D01*
X1495083Y-253172D02*
X1490005D01*
X1487466Y-250633D01*
Y-245555D01*
X1490005Y-243015D01*
X1495083D01*
X1497623Y-245555D01*
Y-248094D01*
X1487466D01*
X1502701Y-243015D02*
X1512858Y-253172D01*
X1507779Y-248094D01*
X1512858Y-243015D01*
X1502701Y-253172D01*
X1520475Y-243015D02*
X1525553D01*
X1528093Y-245555D01*
Y-253172D01*
X1520475D01*
X1517936Y-250633D01*
X1520475Y-248094D01*
X1528093D01*
X1533171Y-253172D02*
Y-243015D01*
X1535710D01*
X1538249Y-245555D01*
Y-253172D01*
Y-245555D01*
X1540789Y-243015D01*
X1543328Y-245555D01*
Y-253172D01*
X1548406Y-258250D02*
Y-243015D01*
X1556024D01*
X1558563Y-245555D01*
Y-250633D01*
X1556024Y-253172D01*
X1548406D01*
X1563641D02*
X1568719D01*
X1566180D01*
Y-237937D01*
X1563641D01*
X1583954Y-253172D02*
X1578876D01*
X1576337Y-250633D01*
Y-245555D01*
X1578876Y-243015D01*
X1583954D01*
X1586494Y-245555D01*
Y-248094D01*
X1576337D01*
X1594111Y-255711D02*
X1596650Y-253172D01*
Y-250633D01*
X1594111D01*
Y-253172D01*
X1596650D01*
X1594111Y-255711D01*
X1591572Y-258250D01*
X1624581Y-253172D02*
X1629660D01*
X1632199Y-250633D01*
Y-245555D01*
X1629660Y-243015D01*
X1624581D01*
X1622042Y-245555D01*
Y-250633D01*
X1624581Y-253172D01*
X1639816Y-240476D02*
Y-243015D01*
X1637277D01*
X1642356D01*
X1639816D01*
Y-250633D01*
X1642356Y-253172D01*
X1649973Y-237937D02*
Y-253172D01*
Y-245555D01*
X1652512Y-243015D01*
X1657591D01*
X1660130Y-245555D01*
Y-253172D01*
X1672826D02*
X1667747D01*
X1665208Y-250633D01*
Y-245555D01*
X1667747Y-243015D01*
X1672826D01*
X1675365Y-245555D01*
Y-248094D01*
X1665208D01*
X1680443Y-243015D02*
Y-253172D01*
Y-248094D01*
X1682982Y-245555D01*
X1685522Y-243015D01*
X1688061D01*
X1710914D02*
Y-253172D01*
Y-248094D01*
X1713453Y-245555D01*
X1715992Y-243015D01*
X1718531D01*
X1726149Y-253172D02*
X1731227D01*
X1728688D01*
Y-243015D01*
X1726149D01*
X1743923Y-258250D02*
X1746462D01*
X1749001Y-255711D01*
Y-243015D01*
X1741384D01*
X1738844Y-245555D01*
Y-250633D01*
X1741384Y-253172D01*
X1749001D01*
X1754079Y-237937D02*
Y-253172D01*
Y-245555D01*
X1756619Y-243015D01*
X1761697D01*
X1764236Y-245555D01*
Y-253172D01*
X1771854Y-240476D02*
Y-243015D01*
X1769315D01*
X1774393D01*
X1771854D01*
Y-250633D01*
X1774393Y-253172D01*
X1782010D02*
X1789628D01*
X1792167Y-250633D01*
X1789628Y-248094D01*
X1784550D01*
X1782010Y-245555D01*
X1784550Y-243015D01*
X1792167D01*
X1812481Y-253172D02*
X1820098D01*
X1822637Y-250633D01*
X1820098Y-248094D01*
X1815020D01*
X1812481Y-245555D01*
X1815020Y-243015D01*
X1822637D01*
X1827716D02*
Y-250633D01*
X1830255Y-253172D01*
X1837872D01*
Y-243015D01*
X1853107D02*
X1845490D01*
X1842951Y-245555D01*
Y-250633D01*
X1845490Y-253172D01*
X1853107D01*
X1858186Y-237937D02*
Y-253172D01*
Y-245555D01*
X1860725Y-243015D01*
X1865803D01*
X1868342Y-245555D01*
Y-253172D01*
X1891195Y-243015D02*
X1896273D01*
X1898813Y-245555D01*
Y-253172D01*
X1891195D01*
X1888656Y-250633D01*
X1891195Y-248094D01*
X1898813D01*
X1903891Y-253172D02*
X1911509D01*
X1914048Y-250633D01*
X1911509Y-248094D01*
X1906430D01*
X1903891Y-245555D01*
X1906430Y-243015D01*
X1914048D01*
X1934361Y-258250D02*
Y-243015D01*
X1941979D01*
X1944518Y-245555D01*
Y-250633D01*
X1941979Y-253172D01*
X1934361D01*
X1949596Y-243015D02*
Y-250633D01*
X1952135Y-253172D01*
X1959753D01*
Y-243015D01*
X1964831Y-237937D02*
Y-253172D01*
X1972449D01*
X1974988Y-250633D01*
Y-248094D01*
Y-245555D01*
X1972449Y-243015D01*
X1964831D01*
X1980066Y-253172D02*
X1985145D01*
X1982606D01*
Y-237937D01*
X1980066D01*
X1992762Y-253172D02*
X1997841D01*
X1995302D01*
Y-243015D01*
X1992762D01*
X2015615D02*
X2007997D01*
X2005458Y-245555D01*
Y-250633D01*
X2007997Y-253172D01*
X2015615D01*
X2020693D02*
X2025772D01*
X2023232D01*
Y-243015D01*
X2020693D01*
X2035928Y-240476D02*
Y-243015D01*
X2033389D01*
X2038468D01*
X2035928D01*
Y-250633D01*
X2038468Y-253172D01*
X2046085Y-243015D02*
Y-250633D01*
X2048624Y-253172D01*
X2056242D01*
Y-255711D01*
X2053703Y-258250D01*
X2051163D01*
X2056242Y-253172D02*
Y-243015D01*
X2063859Y-255711D02*
X2066398Y-253172D01*
Y-250633D01*
X2063859D01*
Y-253172D01*
X2066398D01*
X2063859Y-255711D01*
X2061320Y-258250D01*
X2091790D02*
Y-243015D01*
X2099408D01*
X2101947Y-245555D01*
Y-250633D01*
X2099408Y-253172D01*
X2091790D01*
X2107025Y-243015D02*
Y-253172D01*
Y-248094D01*
X2109565Y-245555D01*
X2112104Y-243015D01*
X2114643D01*
X2122260Y-253172D02*
X2127339D01*
X2124800D01*
Y-243015D01*
X2122260D01*
X2134956D02*
X2140035Y-253172D01*
X2145113Y-243015D01*
X2152731D02*
X2157809D01*
X2160348Y-245555D01*
Y-253172D01*
X2152731D01*
X2150191Y-250633D01*
X2152731Y-248094D01*
X2160348D01*
X2175583Y-243015D02*
X2167966D01*
X2165426Y-245555D01*
Y-250633D01*
X2167966Y-253172D01*
X2175583D01*
X2180661Y-243015D02*
Y-250633D01*
X2183201Y-253172D01*
X2190818D01*
Y-255711D01*
X2188279Y-258250D01*
X2185740D01*
X2190818Y-253172D02*
Y-243015D01*
X2198436Y-255711D02*
X2200975Y-253172D01*
Y-250633D01*
X2198436D01*
Y-253172D01*
X2200975D01*
X2198436Y-255711D01*
X2195896Y-258250D01*
X2228906Y-253172D02*
X2233984D01*
X2236523Y-250633D01*
Y-245555D01*
X2233984Y-243015D01*
X2228906D01*
X2226367Y-245555D01*
Y-250633D01*
X2228906Y-253172D01*
X2241602Y-243015D02*
Y-253172D01*
Y-248094D01*
X2244141Y-245555D01*
X2246680Y-243015D01*
X2249219D01*
X2272072Y-253172D02*
Y-243015D01*
X2274611D01*
X2277150Y-245555D01*
Y-253172D01*
Y-245555D01*
X2279689Y-243015D01*
X2282229Y-245555D01*
Y-253172D01*
X2289846D02*
X2294924D01*
X2297464Y-250633D01*
Y-245555D01*
X2294924Y-243015D01*
X2289846D01*
X2287307Y-245555D01*
Y-250633D01*
X2289846Y-253172D01*
X2302542Y-243015D02*
Y-253172D01*
Y-248094D01*
X2305081Y-245555D01*
X2307620Y-243015D01*
X2310160D01*
X2320316D02*
X2325395D01*
X2327934Y-245555D01*
Y-253172D01*
X2320316D01*
X2317777Y-250633D01*
X2320316Y-248094D01*
X2327934D01*
X2333012Y-253172D02*
X2338091D01*
X2335551D01*
Y-237937D01*
X2333012D01*
X2360943Y-243015D02*
Y-253172D01*
Y-248094D01*
X2363482Y-245555D01*
X2366022Y-243015D01*
X2368561D01*
X2376178Y-253172D02*
X2381257D01*
X2378717D01*
Y-243015D01*
X2376178D01*
X2393952Y-258250D02*
X2396492D01*
X2399031Y-255711D01*
Y-243015D01*
X2391413D01*
X2388874Y-245555D01*
Y-250633D01*
X2391413Y-253172D01*
X2399031D01*
X2404109Y-237937D02*
Y-253172D01*
Y-245555D01*
X2406648Y-243015D01*
X2411727D01*
X2414266Y-245555D01*
Y-253172D01*
X2421883Y-240476D02*
Y-243015D01*
X2419344D01*
X2424423D01*
X2421883D01*
Y-250633D01*
X2424423Y-253172D01*
X2432040D02*
X2439658D01*
X2442197Y-250633D01*
X2439658Y-248094D01*
X2434579D01*
X2432040Y-245555D01*
X2434579Y-243015D01*
X2442197D01*
X2462510Y-253172D02*
Y-243015D01*
X2465049D01*
X2467589Y-245555D01*
Y-253172D01*
Y-245555D01*
X2470128Y-243015D01*
X2472667Y-245555D01*
Y-253172D01*
X2480284Y-243015D02*
X2485363D01*
X2487902Y-245555D01*
Y-253172D01*
X2480284D01*
X2477745Y-250633D01*
X2480284Y-248094D01*
X2487902D01*
X2492980Y-243015D02*
Y-250633D01*
X2495520Y-253172D01*
X2503137D01*
Y-255711D01*
X2500598Y-258250D01*
X2498059D01*
X2503137Y-253172D02*
Y-243015D01*
X2523451Y-253172D02*
X2528529D01*
X2525990D01*
Y-237937D01*
X2523451D01*
X2536147Y-253172D02*
X2541225D01*
X2538686D01*
Y-243015D01*
X2536147D01*
X2548842Y-253172D02*
Y-243015D01*
X2551382D01*
X2553921Y-245555D01*
Y-253172D01*
Y-245555D01*
X2556460Y-243015D01*
X2558999Y-245555D01*
Y-253172D01*
X2564077D02*
X2569156D01*
X2566617D01*
Y-243015D01*
X2564077D01*
X2579312Y-240476D02*
Y-243015D01*
X2576773D01*
X2581852D01*
X2579312D01*
Y-250633D01*
X2581852Y-253172D01*
X2604704Y-237937D02*
Y-253172D01*
Y-245555D01*
X2607244Y-243015D01*
X2612322D01*
X2614861Y-245555D01*
Y-253172D01*
X2622479D02*
X2627557D01*
X2630096Y-250633D01*
Y-245555D01*
X2627557Y-243015D01*
X2622479D01*
X2619939Y-245555D01*
Y-250633D01*
X2622479Y-253172D01*
X2635174Y-243015D02*
Y-250633D01*
X2637714Y-253172D01*
X2640253Y-250633D01*
X2642792Y-253172D01*
X2645331Y-250633D01*
Y-243015D01*
X2665645D02*
Y-250633D01*
X2668184Y-253172D01*
X2675801D01*
Y-255711D01*
X2673262Y-258250D01*
X2670723D01*
X2675801Y-253172D02*
Y-243015D01*
X2683419Y-253172D02*
X2688497D01*
X2691036Y-250633D01*
Y-245555D01*
X2688497Y-243015D01*
X2683419D01*
X2680880Y-245555D01*
Y-250633D01*
X2683419Y-253172D01*
X2696115Y-243015D02*
Y-250633D01*
X2698654Y-253172D01*
X2706271D01*
Y-243015D01*
X1220852Y-268015D02*
Y-275633D01*
X1223391Y-278172D01*
X1231009D01*
Y-268015D01*
X1236087Y-278172D02*
X1243705D01*
X1246244Y-275633D01*
X1243705Y-273094D01*
X1238626D01*
X1236087Y-270555D01*
X1238626Y-268015D01*
X1246244D01*
X1258940Y-278172D02*
X1253861D01*
X1251322Y-275633D01*
Y-270555D01*
X1253861Y-268015D01*
X1258940D01*
X1261479Y-270555D01*
Y-273094D01*
X1251322D01*
X1284332Y-265476D02*
Y-268015D01*
X1281792D01*
X1286871D01*
X1284332D01*
Y-275633D01*
X1286871Y-278172D01*
X1294488Y-262937D02*
Y-278172D01*
Y-270555D01*
X1297027Y-268015D01*
X1302106D01*
X1304645Y-270555D01*
Y-278172D01*
X1317341D02*
X1312263D01*
X1309723Y-275633D01*
Y-270555D01*
X1312263Y-268015D01*
X1317341D01*
X1319880Y-270555D01*
Y-273094D01*
X1309723D01*
X1340193Y-278172D02*
Y-268015D01*
X1342733D01*
X1345272Y-270555D01*
Y-278172D01*
Y-270555D01*
X1347811Y-268015D01*
X1350350Y-270555D01*
Y-278172D01*
X1357968Y-268015D02*
X1363046D01*
X1365585Y-270555D01*
Y-278172D01*
X1357968D01*
X1355428Y-275633D01*
X1357968Y-273094D01*
X1365585D01*
X1373203Y-265476D02*
Y-268015D01*
X1370664D01*
X1375742D01*
X1373203D01*
Y-275633D01*
X1375742Y-278172D01*
X1390977D02*
X1385899D01*
X1383359Y-275633D01*
Y-270555D01*
X1385899Y-268015D01*
X1390977D01*
X1393516Y-270555D01*
Y-273094D01*
X1383359D01*
X1398595Y-268015D02*
Y-278172D01*
Y-273094D01*
X1401134Y-270555D01*
X1403673Y-268015D01*
X1406212D01*
X1413830Y-278172D02*
X1418908D01*
X1416369D01*
Y-268015D01*
X1413830D01*
X1429065D02*
X1434143D01*
X1436682Y-270555D01*
Y-278172D01*
X1429065D01*
X1426526Y-275633D01*
X1429065Y-273094D01*
X1436682D01*
X1441761Y-278172D02*
X1446839D01*
X1444300D01*
Y-262937D01*
X1441761D01*
X1454456Y-278172D02*
Y-275633D01*
X1456996D01*
Y-278172D01*
X1454456D01*
X1233549Y14210D02*
X1225931D01*
X1223392Y11671D01*
Y6592D01*
X1225931Y4053D01*
X1233549D01*
X1241166D02*
X1246245D01*
X1248784Y6592D01*
Y11671D01*
X1246245Y14210D01*
X1241166D01*
X1238627Y11671D01*
Y6592D01*
X1241166Y4053D01*
X1253862D02*
Y14210D01*
X1261480D01*
X1264019Y11671D01*
Y4053D01*
X1271636Y16749D02*
Y14210D01*
X1269097D01*
X1274176D01*
X1271636D01*
Y6592D01*
X1274176Y4053D01*
X1281793Y14210D02*
Y4053D01*
Y9131D01*
X1284332Y11671D01*
X1286871Y14210D01*
X1289411D01*
X1297028Y4053D02*
X1302106D01*
X1299567D01*
Y14210D01*
X1297028D01*
X1309724Y19288D02*
Y4053D01*
X1317342D01*
X1319881Y6592D01*
Y9131D01*
Y11671D01*
X1317342Y14210D01*
X1309724D01*
X1324959D02*
Y6592D01*
X1327498Y4053D01*
X1335116D01*
Y14210D01*
X1342733Y16749D02*
Y14210D01*
X1340194D01*
X1345273D01*
X1342733D01*
Y6592D01*
X1345273Y4053D01*
X1352890D02*
X1357968D01*
X1355429D01*
Y14210D01*
X1352890D01*
X1368125Y4053D02*
X1373203D01*
X1375743Y6592D01*
Y11671D01*
X1373203Y14210D01*
X1368125D01*
X1365586Y11671D01*
Y6592D01*
X1368125Y4053D01*
X1380821D02*
Y14210D01*
X1388439D01*
X1390978Y11671D01*
Y4053D01*
X1396056D02*
X1403674D01*
X1406213Y6592D01*
X1403674Y9131D01*
X1398595D01*
X1396056Y11671D01*
X1398595Y14210D01*
X1406213D01*
X1426526D02*
Y6592D01*
X1429066Y4053D01*
X1436683D01*
Y14210D01*
X1441761Y4053D02*
Y14210D01*
X1449379D01*
X1451918Y11671D01*
Y4053D01*
X1467153Y19288D02*
Y4053D01*
X1459536D01*
X1456996Y6592D01*
Y11671D01*
X1459536Y14210D01*
X1467153D01*
X1479849Y4053D02*
X1474771D01*
X1472231Y6592D01*
Y11671D01*
X1474771Y14210D01*
X1479849D01*
X1482388Y11671D01*
Y9131D01*
X1472231D01*
X1487467Y14210D02*
Y4053D01*
Y9131D01*
X1490006Y11671D01*
X1492545Y14210D01*
X1495084D01*
X1520476Y16749D02*
Y14210D01*
X1517937D01*
X1523015D01*
X1520476D01*
Y6592D01*
X1523015Y4053D01*
X1530633Y19288D02*
Y4053D01*
Y11671D01*
X1533172Y14210D01*
X1538250D01*
X1540789Y11671D01*
Y4053D01*
X1553485D02*
X1548407D01*
X1545868Y6592D01*
Y11671D01*
X1548407Y14210D01*
X1553485D01*
X1556024Y11671D01*
Y9131D01*
X1545868D01*
X1576338Y4053D02*
X1583955D01*
X1586494Y6592D01*
X1583955Y9131D01*
X1578877D01*
X1576338Y11671D01*
X1578877Y14210D01*
X1586494D01*
X1594112D02*
X1599190D01*
X1601730Y11671D01*
Y4053D01*
X1594112D01*
X1591573Y6592D01*
X1594112Y9131D01*
X1601730D01*
X1606808Y4053D02*
Y14210D01*
X1609347D01*
X1611886Y11671D01*
Y4053D01*
Y11671D01*
X1614426Y14210D01*
X1616965Y11671D01*
Y4053D01*
X1629661D02*
X1624582D01*
X1622043Y6592D01*
Y11671D01*
X1624582Y14210D01*
X1629661D01*
X1632200Y11671D01*
Y9131D01*
X1622043D01*
X1652513Y4053D02*
X1657592D01*
X1655052D01*
Y19288D01*
X1652513D01*
X1665209Y4053D02*
X1670287D01*
X1667748D01*
Y14210D01*
X1665209D01*
X1688062D02*
X1680444D01*
X1677905Y11671D01*
Y6592D01*
X1680444Y4053D01*
X1688062D01*
X1700758D02*
X1695679D01*
X1693140Y6592D01*
Y11671D01*
X1695679Y14210D01*
X1700758D01*
X1703297Y11671D01*
Y9131D01*
X1693140D01*
X1708375Y4053D02*
Y14210D01*
X1715993D01*
X1718532Y11671D01*
Y4053D01*
X1723610D02*
X1731228D01*
X1733767Y6592D01*
X1731228Y9131D01*
X1726149D01*
X1723610Y11671D01*
X1726149Y14210D01*
X1733767D01*
X1746463Y4053D02*
X1741384D01*
X1738845Y6592D01*
Y11671D01*
X1741384Y14210D01*
X1746463D01*
X1749002Y11671D01*
Y9131D01*
X1738845D01*
X1771855Y14210D02*
X1776933D01*
X1779472Y11671D01*
Y4053D01*
X1771855D01*
X1769315Y6592D01*
X1771855Y9131D01*
X1779472D01*
X1784550Y4053D02*
X1792168D01*
X1794707Y6592D01*
X1792168Y9131D01*
X1787090D01*
X1784550Y11671D01*
X1787090Y14210D01*
X1794707D01*
X1817560Y16749D02*
Y14210D01*
X1815021D01*
X1820099D01*
X1817560D01*
Y6592D01*
X1820099Y4053D01*
X1827717Y19288D02*
Y4053D01*
Y11671D01*
X1830256Y14210D01*
X1835334D01*
X1837873Y11671D01*
Y4053D01*
X1850569D02*
X1845491D01*
X1842952Y6592D01*
Y11671D01*
X1845491Y14210D01*
X1850569D01*
X1853108Y11671D01*
Y9131D01*
X1842952D01*
X1875961Y4053D02*
X1881039D01*
X1883578Y6592D01*
Y11671D01*
X1881039Y14210D01*
X1875961D01*
X1873422Y11671D01*
Y6592D01*
X1875961Y4053D01*
X1888657Y14210D02*
Y4053D01*
Y9131D01*
X1891196Y11671D01*
X1893735Y14210D01*
X1896274D01*
X1903892Y4053D02*
X1908970D01*
X1906431D01*
Y14210D01*
X1903892D01*
X1921666Y-1025D02*
X1924205D01*
X1926745Y1514D01*
Y14210D01*
X1919127D01*
X1916588Y11671D01*
Y6592D01*
X1919127Y4053D01*
X1926745D01*
X1931823D02*
X1936901D01*
X1934362D01*
Y14210D01*
X1931823D01*
X1944519Y4053D02*
Y14210D01*
X1952136D01*
X1954675Y11671D01*
Y4053D01*
X1962293Y14210D02*
X1967371D01*
X1969910Y11671D01*
Y4053D01*
X1962293D01*
X1959754Y6592D01*
X1962293Y9131D01*
X1969910D01*
X1974989Y4053D02*
X1980067D01*
X1977528D01*
Y19288D01*
X1974989D01*
X1987685Y4053D02*
Y6592D01*
X1990224D01*
Y4053D01*
X1987685D01*
X1233549Y41749D02*
X1231010Y44288D01*
X1225931D01*
X1223392Y41749D01*
Y39210D01*
X1225931Y36670D01*
X1231010D01*
X1233549Y34131D01*
Y31592D01*
X1231010Y29053D01*
X1225931D01*
X1223392Y31592D01*
X1238627Y44288D02*
Y29053D01*
Y36670D01*
X1241166Y39210D01*
X1246245D01*
X1248784Y36670D01*
Y29053D01*
X1256401Y39210D02*
X1261480D01*
X1264019Y36670D01*
Y29053D01*
X1256401D01*
X1253862Y31592D01*
X1256401Y34131D01*
X1264019D01*
X1269097Y39210D02*
Y29053D01*
Y34131D01*
X1271636Y36670D01*
X1274176Y39210D01*
X1276715D01*
X1291950Y29053D02*
X1286871D01*
X1284332Y31592D01*
Y36670D01*
X1286871Y39210D01*
X1291950D01*
X1294489Y36670D01*
Y34131D01*
X1284332D01*
X1299567Y29053D02*
Y39210D01*
X1304646Y44288D01*
X1309724Y39210D01*
Y29053D01*
Y36670D01*
X1299567D01*
X1314803Y29053D02*
X1319881D01*
X1317342D01*
Y44288D01*
X1314803D01*
X1327498Y29053D02*
X1332577D01*
X1330038D01*
Y39210D01*
X1327498D01*
X1340194Y29053D02*
Y44288D01*
Y34131D02*
X1347812Y39210D01*
X1340194Y34131D02*
X1347812Y29053D01*
X1363047D02*
X1357968D01*
X1355429Y31592D01*
Y36670D01*
X1357968Y39210D01*
X1363047D01*
X1365586Y36670D01*
Y34131D01*
X1355429D01*
X1385899Y36670D02*
X1396056D01*
X1416370Y44288D02*
X1421448D01*
X1418909D01*
Y29053D01*
X1416370D01*
X1421448D01*
X1431605D02*
Y41749D01*
Y36670D01*
X1429066D01*
X1434144D01*
X1431605D01*
Y41749D01*
X1434144Y44288D01*
X1456996Y39210D02*
Y31592D01*
X1459536Y29053D01*
X1467153D01*
Y26514D01*
X1464614Y23975D01*
X1462075D01*
X1467153Y29053D02*
Y39210D01*
X1474771Y29053D02*
X1479849D01*
X1482388Y31592D01*
Y36670D01*
X1479849Y39210D01*
X1474771D01*
X1472231Y36670D01*
Y31592D01*
X1474771Y29053D01*
X1487467Y39210D02*
Y31592D01*
X1490006Y29053D01*
X1497623D01*
Y39210D01*
X1517937D02*
Y29053D01*
Y34131D01*
X1520476Y36670D01*
X1523015Y39210D01*
X1525554D01*
X1540789Y29053D02*
X1535711D01*
X1533172Y31592D01*
Y36670D01*
X1535711Y39210D01*
X1540789D01*
X1543329Y36670D01*
Y34131D01*
X1533172D01*
X1548407Y29053D02*
Y39210D01*
X1550946D01*
X1553485Y36670D01*
Y29053D01*
Y36670D01*
X1556024Y39210D01*
X1558564Y36670D01*
Y29053D01*
X1563642D02*
X1568720D01*
X1566181D01*
Y39210D01*
X1563642D01*
X1576338D02*
X1586494Y29053D01*
X1581416Y34131D01*
X1586494Y39210D01*
X1576338Y29053D01*
X1594112Y26514D02*
X1596651Y29053D01*
Y31592D01*
X1594112D01*
Y29053D01*
X1596651D01*
X1594112Y26514D01*
X1591573Y23975D01*
X1624582Y41749D02*
Y39210D01*
X1622043D01*
X1627121D01*
X1624582D01*
Y31592D01*
X1627121Y29053D01*
X1634739Y39210D02*
Y29053D01*
Y34131D01*
X1637278Y36670D01*
X1639817Y39210D01*
X1642357D01*
X1652513D02*
X1657592D01*
X1660131Y36670D01*
Y29053D01*
X1652513D01*
X1649974Y31592D01*
X1652513Y34131D01*
X1660131D01*
X1665209Y29053D02*
Y39210D01*
X1672827D01*
X1675366Y36670D01*
Y29053D01*
X1680444D02*
X1688062D01*
X1690601Y31592D01*
X1688062Y34131D01*
X1682983D01*
X1680444Y36670D01*
X1682983Y39210D01*
X1690601D01*
X1698218Y29053D02*
Y41749D01*
Y36670D01*
X1695679D01*
X1700758D01*
X1698218D01*
Y41749D01*
X1700758Y44288D01*
X1710914Y29053D02*
X1715993D01*
X1718532Y31592D01*
Y36670D01*
X1715993Y39210D01*
X1710914D01*
X1708375Y36670D01*
Y31592D01*
X1710914Y29053D01*
X1723610Y39210D02*
Y29053D01*
Y34131D01*
X1726149Y36670D01*
X1728689Y39210D01*
X1731228D01*
X1738845Y29053D02*
Y39210D01*
X1741384D01*
X1743924Y36670D01*
Y29053D01*
Y36670D01*
X1746463Y39210D01*
X1749002Y36670D01*
Y29053D01*
X1756620Y26514D02*
X1759159Y29053D01*
Y31592D01*
X1756620D01*
Y29053D01*
X1759159D01*
X1756620Y26514D01*
X1754080Y23975D01*
X1787090Y29053D02*
X1792168D01*
X1794707Y31592D01*
Y36670D01*
X1792168Y39210D01*
X1787090D01*
X1784550Y36670D01*
Y31592D01*
X1787090Y29053D01*
X1799785Y39210D02*
Y29053D01*
Y34131D01*
X1802325Y36670D01*
X1804864Y39210D01*
X1807403D01*
X1830256Y44288D02*
Y29053D01*
X1837873D01*
X1840412Y31592D01*
Y34131D01*
Y36670D01*
X1837873Y39210D01*
X1830256D01*
X1845491D02*
Y31592D01*
X1848030Y29053D01*
X1855647D01*
Y39210D01*
X1860726Y29053D02*
X1865804D01*
X1863265D01*
Y39210D01*
X1860726D01*
X1873422Y29053D02*
X1878500D01*
X1875961D01*
Y44288D01*
X1873422D01*
X1896274D02*
Y29053D01*
X1888657D01*
X1886118Y31592D01*
Y36670D01*
X1888657Y39210D01*
X1896274D01*
X1916588D02*
Y31592D01*
X1919127Y29053D01*
X1926745D01*
Y39210D01*
X1931823Y23975D02*
Y39210D01*
X1939440D01*
X1941980Y36670D01*
Y31592D01*
X1939440Y29053D01*
X1931823D01*
X1949597D02*
X1954675D01*
X1957215Y31592D01*
Y36670D01*
X1954675Y39210D01*
X1949597D01*
X1947058Y36670D01*
Y31592D01*
X1949597Y29053D01*
X1962293D02*
Y39210D01*
X1969910D01*
X1972450Y36670D01*
Y29053D01*
X1995302Y41749D02*
Y39210D01*
X1992763D01*
X1997841D01*
X1995302D01*
Y31592D01*
X1997841Y29053D01*
X2005459Y44288D02*
Y29053D01*
Y36670D01*
X2007998Y39210D01*
X2013076D01*
X2015616Y36670D01*
Y29053D01*
X2028312D02*
X2023233D01*
X2020694Y31592D01*
Y36670D01*
X2023233Y39210D01*
X2028312D01*
X2030851Y36670D01*
Y34131D01*
X2020694D01*
X2051164Y29053D02*
Y39210D01*
X2053703D01*
X2056243Y36670D01*
Y29053D01*
Y36670D01*
X2058782Y39210D01*
X2061321Y36670D01*
Y29053D01*
X2068938Y39210D02*
X2074017D01*
X2076556Y36670D01*
Y29053D01*
X2068938D01*
X2066399Y31592D01*
X2068938Y34131D01*
X2076556D01*
X2084173Y41749D02*
Y39210D01*
X2081634D01*
X2086713D01*
X2084173D01*
Y31592D01*
X2086713Y29053D01*
X2101948D02*
X2096869D01*
X2094330Y31592D01*
Y36670D01*
X2096869Y39210D01*
X2101948D01*
X2104487Y36670D01*
Y34131D01*
X2094330D01*
X2109565Y39210D02*
Y29053D01*
Y34131D01*
X2112104Y36670D01*
X2114644Y39210D01*
X2117183D01*
X2124800Y29053D02*
X2129879D01*
X2127340D01*
Y39210D01*
X2124800D01*
X2140035D02*
X2145114D01*
X2147653Y36670D01*
Y29053D01*
X2140035D01*
X2137496Y31592D01*
X2140035Y34131D01*
X2147653D01*
X2152731Y29053D02*
X2157810D01*
X2155271D01*
Y44288D01*
X2152731D01*
X2167966Y26514D02*
X2170506Y29053D01*
Y31592D01*
X2167966D01*
Y29053D01*
X2170506D01*
X2167966Y26514D01*
X2165427Y23975D01*
X2195897Y39210D02*
Y31592D01*
X2198436Y29053D01*
X2206054D01*
Y26514D01*
X2203515Y23975D01*
X2200976D01*
X2206054Y29053D02*
Y39210D01*
X2213672Y29053D02*
X2218750D01*
X2221289Y31592D01*
Y36670D01*
X2218750Y39210D01*
X2213672D01*
X2211132Y36670D01*
Y31592D01*
X2213672Y29053D01*
X2226367Y39210D02*
Y31592D01*
X2228907Y29053D01*
X2236524D01*
Y39210D01*
X2256838Y29053D02*
Y39210D01*
X2259377D01*
X2261916Y36670D01*
Y29053D01*
Y36670D01*
X2264455Y39210D01*
X2266994Y36670D01*
Y29053D01*
X2272073Y39210D02*
Y31592D01*
X2274612Y29053D01*
X2282229D01*
Y39210D01*
X2287308Y29053D02*
X2294925D01*
X2297464Y31592D01*
X2294925Y34131D01*
X2289847D01*
X2287308Y36670D01*
X2289847Y39210D01*
X2297464D01*
X2305082Y41749D02*
Y39210D01*
X2302543D01*
X2307621D01*
X2305082D01*
Y31592D01*
X2307621Y29053D01*
X2340630Y44288D02*
Y29053D01*
X2333013D01*
X2330474Y31592D01*
Y36670D01*
X2333013Y39210D01*
X2340630D01*
X2345709Y29053D02*
X2350787D01*
X2348248D01*
Y39210D01*
X2345709D01*
X2358405Y29053D02*
X2366022D01*
X2368562Y31592D01*
X2366022Y34131D01*
X2360944D01*
X2358405Y36670D01*
X2360944Y39210D01*
X2368562D01*
X2376179Y41749D02*
Y39210D01*
X2373640D01*
X2378718D01*
X2376179D01*
Y31592D01*
X2378718Y29053D01*
X2386336Y39210D02*
Y29053D01*
Y34131D01*
X2388875Y36670D01*
X2391414Y39210D01*
X2393953D01*
X2401571Y29053D02*
X2406649D01*
X2404110D01*
Y39210D01*
X2401571D01*
X2414267Y44288D02*
Y29053D01*
X2421884D01*
X2424423Y31592D01*
Y34131D01*
Y36670D01*
X2421884Y39210D01*
X2414267D01*
X2429502D02*
Y31592D01*
X2432041Y29053D01*
X2439659D01*
Y39210D01*
X2447276Y41749D02*
Y39210D01*
X2444737D01*
X2449815D01*
X2447276D01*
Y31592D01*
X2449815Y29053D01*
X2465050D02*
X2459972D01*
X2457433Y31592D01*
Y36670D01*
X2459972Y39210D01*
X2465050D01*
X2467590Y36670D01*
Y34131D01*
X2457433D01*
X2487903Y39210D02*
Y31592D01*
X2490442Y29053D01*
X2498060D01*
Y26514D01*
X2495520Y23975D01*
X2492981D01*
X2498060Y29053D02*
Y39210D01*
X2505677Y29053D02*
X2510755D01*
X2513295Y31592D01*
Y36670D01*
X2510755Y39210D01*
X2505677D01*
X2503138Y36670D01*
Y31592D01*
X2505677Y29053D01*
X2518373Y39210D02*
Y31592D01*
X2520912Y29053D01*
X2528530D01*
Y39210D01*
X2533608D02*
Y29053D01*
Y34131D01*
X2536147Y36670D01*
X2538686Y39210D01*
X2541226D01*
X1222852Y343063D02*
Y340524D01*
X1227930Y335446D01*
X1233009Y340524D01*
Y343063D01*
X1227930Y335446D02*
Y327828D01*
X1240626D02*
X1245705D01*
X1248244Y330367D01*
Y335446D01*
X1245705Y337985D01*
X1240626D01*
X1238087Y335446D01*
Y330367D01*
X1240626Y327828D01*
X1253322Y337985D02*
Y330367D01*
X1255861Y327828D01*
X1263479D01*
Y337985D01*
X1286331D02*
X1291410D01*
X1293949Y335446D01*
Y327828D01*
X1286331D01*
X1283792Y330367D01*
X1286331Y332906D01*
X1293949D01*
X1299027Y337985D02*
Y327828D01*
Y332906D01*
X1301567Y335446D01*
X1304106Y337985D01*
X1306645D01*
X1321880Y327828D02*
X1316802D01*
X1314263Y330367D01*
Y335446D01*
X1316802Y337985D01*
X1321880D01*
X1324419Y335446D01*
Y332906D01*
X1314263D01*
X1347272Y327828D02*
Y340524D01*
Y335446D01*
X1344733D01*
X1349811D01*
X1347272D01*
Y340524D01*
X1349811Y343063D01*
X1357428Y337985D02*
Y327828D01*
Y332906D01*
X1359968Y335446D01*
X1362507Y337985D01*
X1365046D01*
X1380281Y327828D02*
X1375203D01*
X1372664Y330367D01*
Y335446D01*
X1375203Y337985D01*
X1380281D01*
X1382820Y335446D01*
Y332906D01*
X1372664D01*
X1395516Y327828D02*
X1390438D01*
X1387899Y330367D01*
Y335446D01*
X1390438Y337985D01*
X1395516D01*
X1398055Y335446D01*
Y332906D01*
X1387899D01*
X1420908Y340524D02*
Y337985D01*
X1418369D01*
X1423447D01*
X1420908D01*
Y330367D01*
X1423447Y327828D01*
X1433604D02*
X1438682D01*
X1441221Y330367D01*
Y335446D01*
X1438682Y337985D01*
X1433604D01*
X1431065Y335446D01*
Y330367D01*
X1433604Y327828D01*
X1446300Y337985D02*
X1448839D01*
Y335446D01*
X1446300D01*
Y337985D01*
Y330367D02*
X1448839D01*
Y327828D01*
X1446300D01*
Y330367D01*
X1220852Y-312937D02*
Y-328172D01*
X1228470D01*
X1231009Y-325633D01*
Y-323094D01*
X1228470Y-320555D01*
X1220852D01*
X1228470D01*
X1231009Y-318015D01*
Y-315476D01*
X1228470Y-312937D01*
X1220852D01*
X1238626Y-318015D02*
X1243705D01*
X1246244Y-320555D01*
Y-328172D01*
X1238626D01*
X1236087Y-325633D01*
X1238626Y-323094D01*
X1246244D01*
X1251322Y-328172D02*
X1258940D01*
X1261479Y-325633D01*
X1258940Y-323094D01*
X1253861D01*
X1251322Y-320555D01*
X1253861Y-318015D01*
X1261479D01*
X1274175Y-328172D02*
X1269096D01*
X1266557Y-325633D01*
Y-320555D01*
X1269096Y-318015D01*
X1274175D01*
X1276714Y-320555D01*
Y-323094D01*
X1266557D01*
X1291949Y-312937D02*
Y-328172D01*
X1284332D01*
X1281792Y-325633D01*
Y-320555D01*
X1284332Y-318015D01*
X1291949D01*
X1314802Y-328172D02*
X1319880D01*
X1322419Y-325633D01*
Y-320555D01*
X1319880Y-318015D01*
X1314802D01*
X1312263Y-320555D01*
Y-325633D01*
X1314802Y-328172D01*
X1327498D02*
Y-318015D01*
X1335115D01*
X1337654Y-320555D01*
Y-328172D01*
X1357968D02*
Y-318015D01*
X1363046Y-312937D01*
X1368124Y-318015D01*
Y-328172D01*
Y-320555D01*
X1357968D01*
X1373203Y-318015D02*
Y-328172D01*
Y-323094D01*
X1375742Y-320555D01*
X1378281Y-318015D01*
X1380820D01*
X1398595Y-312937D02*
Y-328172D01*
X1390977D01*
X1388438Y-325633D01*
Y-320555D01*
X1390977Y-318015D01*
X1398595D01*
X1403673D02*
Y-325633D01*
X1406212Y-328172D01*
X1413830D01*
Y-318015D01*
X1418908Y-328172D02*
X1423986D01*
X1421447D01*
Y-318015D01*
X1418908D01*
X1431604Y-328172D02*
Y-318015D01*
X1439221D01*
X1441761Y-320555D01*
Y-328172D01*
X1449378D02*
X1454456D01*
X1456996Y-325633D01*
Y-320555D01*
X1454456Y-318015D01*
X1449378D01*
X1446839Y-320555D01*
Y-325633D01*
X1449378Y-328172D01*
X1462074Y-318015D02*
X1464613D01*
Y-320555D01*
X1462074D01*
Y-318015D01*
Y-325633D02*
X1464613D01*
Y-328172D01*
X1462074D01*
Y-325633D01*
X1490005Y-312937D02*
Y-328172D01*
Y-320555D01*
X1492544Y-318015D01*
X1497623D01*
X1500162Y-320555D01*
Y-328172D01*
X1507779Y-315476D02*
Y-318015D01*
X1505240D01*
X1510318D01*
X1507779D01*
Y-325633D01*
X1510318Y-328172D01*
X1520475Y-315476D02*
Y-318015D01*
X1517936D01*
X1523014D01*
X1520475D01*
Y-325633D01*
X1523014Y-328172D01*
X1530632Y-333250D02*
Y-318015D01*
X1538249D01*
X1540789Y-320555D01*
Y-325633D01*
X1538249Y-328172D01*
X1530632D01*
X1545867Y-318015D02*
X1548406D01*
Y-320555D01*
X1545867D01*
Y-318015D01*
Y-325633D02*
X1548406D01*
Y-328172D01*
X1545867D01*
Y-325633D01*
X1558563Y-328172D02*
X1568719Y-318015D01*
X1573798Y-328172D02*
X1583954Y-318015D01*
X1589033D02*
Y-325633D01*
X1591572Y-328172D01*
X1594111Y-325633D01*
X1596650Y-328172D01*
X1599190Y-325633D01*
Y-318015D01*
X1604268D02*
Y-325633D01*
X1606807Y-328172D01*
X1609346Y-325633D01*
X1611886Y-328172D01*
X1614425Y-325633D01*
Y-318015D01*
X1619503D02*
Y-325633D01*
X1622042Y-328172D01*
X1624581Y-325633D01*
X1627121Y-328172D01*
X1629660Y-325633D01*
Y-318015D01*
X1634738Y-328172D02*
Y-325633D01*
X1637277D01*
Y-328172D01*
X1634738D01*
X1649973Y-318015D02*
X1655052D01*
X1657591Y-320555D01*
Y-328172D01*
X1649973D01*
X1647434Y-325633D01*
X1649973Y-323094D01*
X1657591D01*
X1662669Y-318015D02*
Y-328172D01*
Y-323094D01*
X1665208Y-320555D01*
X1667747Y-318015D01*
X1670287D01*
X1688061Y-312937D02*
Y-328172D01*
X1680443D01*
X1677904Y-325633D01*
Y-320555D01*
X1680443Y-318015D01*
X1688061D01*
X1693139D02*
Y-325633D01*
X1695678Y-328172D01*
X1703296D01*
Y-318015D01*
X1708374Y-328172D02*
X1713453D01*
X1710914D01*
Y-318015D01*
X1708374D01*
X1721070Y-328172D02*
Y-318015D01*
X1728688D01*
X1731227Y-320555D01*
Y-328172D01*
X1738844D02*
X1743923D01*
X1746462Y-325633D01*
Y-320555D01*
X1743923Y-318015D01*
X1738844D01*
X1736305Y-320555D01*
Y-325633D01*
X1738844Y-328172D01*
X1751540D02*
Y-325633D01*
X1754079D01*
Y-328172D01*
X1751540D01*
X1774393Y-318015D02*
X1766775D01*
X1764236Y-320555D01*
Y-325633D01*
X1766775Y-328172D01*
X1774393D01*
X1789628Y-318015D02*
X1782010D01*
X1779471Y-320555D01*
Y-325633D01*
X1782010Y-328172D01*
X1789628D01*
X1794706D02*
X1804863Y-318015D01*
M02*
